<svg viewBox="0 0 100 100" width="100" height="100" fill="none" xmlns="http://www.w3.org/2000/svg">
  <!-- Main I-beam web (vertical) -->
  <polygon points="40,20 60,30 60,80 40,70" fill="#fff" stroke="#181818" stroke-width="2"/>
  <!-- Top flange -->
  <polygon points="35,17 65,27 60,30 40,20" fill="#181818" stroke="#181818" stroke-width="2"/>
  <!-- Bottom flange -->
  <polygon points="35,67 65,77 60,80 40,70" fill="#181818" stroke="#181818" stroke-width="2"/>
  <!-- Top flange top surface -->
  <polygon points="35,17 65,27 70,25 40,15" fill="#fff" stroke="#181818" stroke-width="2"/>
  <!-- Bottom flange bottom surface -->
  <polygon points="35,67 65,77 70,75 40,65" fill="#fff" stroke="#181818" stroke-width="2"/>
  <!-- Right web shadow for depth -->
  <polygon points="60,30 65,27 65,77 60,80" fill="#e6e6e6" stroke="#181818" stroke-width="0.7"/>
  <!-- Extra lines for detail (top) -->
  <line x1="40" y1="20" x2="60" y2="30" stroke="#181818" stroke-width="1"/>
  <line x1="35" y1="17" x2="65" y2="27" stroke="#181818" stroke-width="1"/>
  <line x1="40" y1="15" x2="70" y2="25" stroke="#181818" stroke-width="1"/>
  <!-- Extra lines for detail (bottom) -->
  <line x1="40" y1="70" x2="60" y2="80" stroke="#181818" stroke-width="1"/>
  <line x1="35" y1="67" x2="65" y2="77" stroke="#181818" stroke-width="1"/>
  <line x1="40" y1="65" x2="70" y2="75" stroke="#181818" stroke-width="1"/>
  <!-- Web vertical lines for depth -->
  <line x1="50" y1="25" x2="50" y2="75" stroke="#181818" stroke-width="0.8" stroke-dasharray="2 2"/>
</svg>
