<svg viewBox="0 0 100 100" width="100" height="100" fill="none" stroke="#181818" stroke-width="2.2" xmlns="http://www.w3.org/2000/svg">
  <!-- Top flange (isometric) -->
  <polygon points="25,25 75,15 75,28 25,38" fill="#fff" />
  <polygon points="25,25 75,15 75,28 25,38" stroke="#181818" stroke-width="2.2" fill="none" />
  <!-- Bottom flange (isometric) -->
  <polygon points="25,65 75,55 75,68 25,78" fill="#fff" />
  <polygon points="25,65 75,55 75,68 25,78" stroke="#181818" stroke-width="2.2" fill="none" />
  <!-- Web sides -->
  <polygon points="34,36.5 66,30.5 66,60.5 34,66.5" fill="#fff" />
  <polygon points="34,36.5 66,30.5 66,60.5 34,66.5" stroke="#181818" stroke-width="2.2" fill="none" />
  <!-- Left flange depth (side) -->
  <polygon points="25,25 25,38 25,78 25,65" fill="#fff" />
  <polygon points="25,25 25,38 25,78 25,65" stroke="#181818" stroke-width="2.2" fill="none" />
  <!-- Right flange depth (side) -->
  <polygon points="75,15 75,28 75,68 75,55" fill="#fff" />
  <polygon points="75,15 75,28 75,68 75,55" stroke="#181818" stroke-width="2.2" fill="none" />
  <!-- Top flange face -->
  <polygon points="25,25 34,36.5 66,30.5 75,15" fill="#fff" />
  <polygon points="25,25 34,36.5 66,30.5 75,15" stroke="#181818" stroke-width="2.2" fill="none" />
  <!-- Bottom flange face -->
  <polygon points="25,65 34,66.5 66,60.5 75,55" fill="#fff" />
  <polygon points="25,65 34,66.5 66,60.5 75,55" stroke="#181818" stroke-width="2.2" fill="none" />
  <!-- Web interior lines -->
  <line x1="34" y1="36.5" x2="34" y2="66.5" stroke="#181818" stroke-width="1.5"/>
  <line x1="66" y1="30.5" x2="66" y2="60.5" stroke="#181818" stroke-width="1.5"/>
  <!-- Top flange thickness lines -->
  <line x1="25" y1="38" x2="75" y2="28" stroke="#181818" stroke-width="1.1"/>
  <!-- Bottom flange thickness lines -->
  <line x1="25" y1="78" x2="75" y2="68" stroke="#181818" stroke-width="1.1"/>
</svg>
