<svg width="736" height="414" viewBox="0 0 736 414" fill="none" xmlns="http://www.w3.org/2000/svg">
  <!-- Torn paper border: white stroke, no fill -->
  <path
    d="
      M40,20
      Q100,3 160,18
      Q220,2 280,20
      Q340,10 400,22
      Q460,8 520,18
      Q580,0 640,20
      Q708,25 730,60
      Q734,130 734,200
      Q734,270 730,354
      Q700,410 640,394
      Q580,410 520,394
      Q460,410 400,392
      Q340,406 280,394
      Q220,410 160,394
      Q100,410 40,394
      Q12,350 6,200
      Q12,60 40,20
      Z"
    fill="none"
    stroke="#fff"
    stroke-width="28"
    filter="url(#shadow1)"
  />
  <!-- Dramatic tab on right: bold red rectangle with white border -->
  <rect x="698" y="140" width="32" height="134" rx="8" fill="#b32c2c" stroke="#fff" stroke-width="6" />
  <defs>
    <filter id="shadow1" x="-40" y="-40" width="820" height="494">
      <feDropShadow dx="0" dy="8" stdDeviation="16" flood-color="#d6c08e" flood-opacity="0.19"/>
    </filter>
  </defs>
</svg>
