<svg width="736" height="414" viewBox="0 0 736 414" fill="none" xmlns="http://www.w3.org/2000/svg">
  <!-- Torn paper edge path: white fill, shadow, transparent center -->
  <filter id="paperShadow" x="-20%" y="-20%" width="140%" height="140%">
    <feDropShadow dx="0" dy="6" stdDeviation="8" flood-color="#d6c08e" flood-opacity="0.17"/>
    <feDropShadow dx="0" dy="2" stdDeviation="2" flood-color="#222" flood-opacity="0.13"/>
  </filter>
  <path
    d="
      M40,20
      Q100,3 160,18
      Q220,2 280,20
      Q340,10 400,22
      Q460,8 520,18
      Q580,0 640,20
      Q708,25 730,60
      Q734,130 734,200
      Q734,270 730,354
      Q700,410 640,394
      Q580,410 520,394
      Q460,410 400,392
      Q340,406 280,394
      Q220,410 160,394
      Q100,410 40,394
      Q12,350 6,200
      Q12,60 40,20
      Z
      M690,60
      Q734,100 734,200
      Q734,300 690,354
      L690,60
      Z
    "
    fill="#fff"
    filter="url(#paperShadow)"
    stroke="#e6dbb9"
    stroke-width="4"
    />
  <!-- Right tab: dramatic, bold, red rectangle -->
  <rect x="710" y="140" width="26" height="134" rx="7" fill="#b32c2c" stroke="#fff" stroke-width="4" />
</svg>
