<?xml version="1.0" encoding="UTF-8"?>
<svg id="Layer_2" data-name="Layer 2" xmlns="http://www.w3.org/2000/svg" viewBox="0 0 119.71 112.39">
  <defs>
    <style>
      .cls-1 {
        stroke-width: .5px;
      }

      .cls-1, .cls-2 {
        fill: none;
        stroke: #000;
        stroke-miterlimit: 10;
      }

      .cls-2 {
        stroke-width: .59px;
      }
    </style>
  </defs>
  <g id="MATERIAL_ICONS" data-name="MATERIAL ICONS">
    <g id="GLASS">
      <path class="cls-1" d="M118.9,4.09l.39.83.11,97,.06,5.78-8.51,4.44-5.35-.78L.25,95.43l.05-3.53.09-75.21,4.76-.74L111.01.26l7.89,3.83h0ZM110.87,111.84l.14-111.58"/>
      <path class="cls-1" d="M103.06,11.4l-43.11,5.75.08,79.26,43.03,5.25V11.4h0ZM103.06,6.95l3.52-.53v95.12s-.08,4.88-.08,4.88l-46.59-6.51-3.3-.48.09-86.15,2.44-.35,43.91-5.97h0Z"/>
      <polygon class="cls-1" points="89.46 29.06 91.22 30.25 90.38 31.64 71.2 45.86 69.03 44.05 89.46 29.06 89.46 29.06"/>
      <polygon class="cls-1" points="90.51 37.91 92.03 39.62 82.43 46.88 80.13 45.43 90.51 37.91 90.51 37.91"/>
      <polygon class="cls-1" points="69 53.91 75.44 49.08 76.97 51.1 70.99 55.63 69 53.91 69 53.91"/>
      <polygon class="cls-1" points="48.55 14.42 51.33 14.04 51.33 98.79 47.78 98.27 7.35 92.57 4.48 92.13 4.48 19.99 7.38 19.57 48.55 14.42 48.55 14.42"/>
      <line class="cls-1" x1="4.48" y1="92.13" x2="7.99" y2="88.7"/>
      <line class="cls-1" x1="4.48" y1="19.99" x2="8" y2="23.18"/>
      <line class="cls-1" x1="47.63" y1="18.3" x2="51.33" y2="14.04"/>
      <line class="cls-1" x1="47.63" y1="93.82" x2="51.33" y2="98.79"/>
      <line class="cls-1" x1="60.04" y1="96.41" x2="56.62" y2="99.43"/>
      <line class="cls-1" x1="103.06" y1="101.56" x2="106.5" y2="106.42"/>
      <line class="cls-1" x1="59.96" y1="17.15" x2="56.71" y2="13.28"/>
      <line class="cls-1" x1="103.06" y1="11.4" x2="106.58" y2="6.42"/>
      <polygon class="cls-2" points="27.03 91.35 47.7 94.13 47.63 18.3 8 23.18 7.98 88.85 27.03 91.35"/>
      <polygon class="cls-1" points="35.55 44.89 36.55 46.81 19.65 59.41 18.69 57.4 35.55 44.89 35.55 44.89"/>
      <polygon class="cls-1" points="36.73 51.68 37.59 53.74 29.6 59.84 28.24 58.02 36.73 51.68 36.73 51.68"/>
      <polygon class="cls-1" points="25.02 61.81 25.06 63.22 20.02 67.1 18.59 65.42 23.44 61.71 25.02 61.81 25.02 61.81"/>
    </g>
  </g>
</svg>