<?xml version="1.0" encoding="UTF-8"?>
<svg id="Layer_2" data-name="Layer 2" xmlns="http://www.w3.org/2000/svg" viewBox="0 0 97.21 106.24">
  <defs>
    <style>
      .cls-1 {
        fill: none;
      }

      .cls-1, .cls-2, .cls-3 {
        stroke: #000;
        stroke-miterlimit: 10;
        stroke-width: .5px;
      }

      .cls-4 {
        fill: #9c9da0;
      }

      .cls-5, .cls-3 {
        fill: #c69c6d;
      }

      .cls-2 {
        fill: #736357;
      }

      .cls-6 {
        fill: #d5d8dc;
      }

      .cls-7 {
        fill: #ededed;
      }
    </style>
  </defs>
  <g id="MATERIAL_ICONS" data-name="MATERIAL ICONS">
    <g id="PAINT">
      <g id="COLORS">
        <rect class="cls-7" x="6.42" y="32.75" width="84.9" height="53.66"/>
        <rect class="cls-5" x="6.38" y="12.61" width="85.22" height="3.56"/>
        <rect class="cls-5" x="6.61" y="86.42" width="84.7" height="3.89"/>
        <polygon class="cls-6" points="6.51 5.68 91.58 5.68 91.58 2.28 91.18 1.55 89.85 .23 8 .23 7.27 .74 6.61 1.42 6.37 2.46 6.51 5.68"/>
        <path class="cls-4" d="M6.27,4.59h-2.3l-.26,11.89-.17,4.44.34,6.17.33,5.33,1,5.26,1.3,4.7,1.3,2.59,2.36,4.15,1.85,3.3,3.56,4.3,4.52,4.33,4.56,3.45,3.25,2.07,2.85,1.4,3.43,1.26,3.14,1.03s4.23.97,4.27.97,3.2.37,3.26.36,1.67.19,1.67.19l3.74.12,6.45-.7,4.49-1.12,3.96-1.31,4.69-2.14,4.11-2.44,3.53-2.83,2.67-2.33,5.39-6.1,3.3-5.09,3.17-6.91,1.28-5.44.69-5.25V4.78h-2.38v-2.62h2.97l1.11.4.89.82.22,1.01v20.33l.12,4.65-.28,3.37-.38,3.52-.83,3.64-1.31,3.86-1.88,4.7-1.59,2.98-1.83,2.95-2.09,2.37-4.81,5.13-4.02,3.16-3.19,2.28-4.06,2.18-4.72,2.01-3.25,1.08-3.97.96-3.24.5-4.07.44-2.56-.04-3.78-.13-2.67-.32-3.79-.6-3.89-1.06-2.48-.76-3.74-1.57-3.06-1.51-3.86-2.43-2.85-2.17-2.94-2.46-2.57-2.48-2.38-3.03-3.29-4.29-1.52-2.57-1.86-3.57-1.44-4.32-.69-3.53-.95-7.15-.61-6.69-.17-6.53.69-10.31.21-3.46.83-1.07,1.86-.31h2.39s-.02,2.44-.02,2.44Z"/>
        <polygon class="cls-6" points="6.71 98.95 6.62 103.77 6.97 104.9 7.84 105.81 8.66 105.86 89.8 105.86 90.93 105.15 91.37 104.18 91.53 100.91 91.38 98.82 6.71 98.95"/>
        <rect class="cls-4" x="6.69" y="90.39" width="84.52" height="8.46"/>
        <rect class="cls-4" x="6.42" y="5.73" width="85.15" height="6.91"/>
        <rect class="cls-4" x="6.47" y="16.25" width="85.13" height="16.65"/>
        <rect class="cls-5" x="6.52" y="19.39" width="85.22" height="3.61"/>
      </g>
      <path class="cls-1" d="M91.38,50.19v48.4c.17.85.15,4.44.04,5.38-.12.98-.78,1.51-1.64,1.86-27.19.19-54.49.24-81.67-.03-.72-.24-1.38-1.1-1.49-1.85-.14-.91-.13-4.14,0-5.07v-48.76"/>
      <path class="cls-1" d="M85.64,57.95c-6.67,7.54-15.08,12.77-24.93,15.15-3.49.84-6.93,1.19-10.51,1.43h-1.91c-6.7-.24-13.19-1.51-19.31-4.24-6.49-2.89-12.13-7.24-16.81-12.55l-3.62-4.57c-4.96-7.37-6.19-9.55-7.89-25.92-.89-11.04-.13-11.65.37-22.26.17-3.68,2.54-2.67,5.31-2.86.11-.87.82-1.67,1.73-1.88h81.87c.86.38,1.3,1.05,1.5,1.94,1.96.17,4.71-.66,5.38,1.86-.29,8.94.41,18.14.02,27.05-.36,8.14-3.28,15.73-7.49,22.58-1.05,1.36-2.29,2.79-3.7,4.27Z"/>
      <path class="cls-1" d="M6.34,2.13l.06,2.62h-2.31c-.26,12.02-1.84,26.62,2.86,38.54l1.73,3.52,3.5,5.52c10.81,15.77,30.78,23.09,49.01,17.75,9.91-2.9,18.89-9.12,24.76-17.83,1.09-1.45,2.24-3.36,3.41-5.45l1.73-3.6c1.69-4.22,2.48-8.69,2.88-13.18V4.81s-2.31,0-2.31,0v-2.59"/>
      <path class="cls-2" d="M61.72,57.88c0,7.02-5.69,12.71-12.71,12.71s-12.71-5.69-12.71-12.71,5.69-12.71,12.71-12.71,12.71,5.69,12.71,12.71ZM59.13,57.89c0-5.59-4.53-10.12-10.12-10.12s-10.12,4.53-10.12,10.12,4.53,10.12,10.12,10.12,10.12-4.53,10.12-10.12Z"/>
      <path class="cls-3" d="M47.08,61.01c1.44,1.45,4.04.74,4.43-1.18.31-1.54-1.74-4.6-2.51-5.98-.93,1.84-3.75,5.32-1.92,7.16Z"/>
      <line class="cls-1" x1="6.37" y1="5.79" x2="91.51" y2="5.87"/>
      <line class="cls-1" x1="6.39" y1="4.75" x2="6.39" y2="41.78"/>
      <line class="cls-1" x1="91.65" y1="4.81" x2="91.65" y2="41.7"/>
      <line class="cls-1" x1="6.62" y1="98.89" x2="91.38" y2="98.89"/>
      <line class="cls-1" x1="6.74" y1="86.47" x2="91.25" y2="86.47"/>
      <line class="cls-1" x1="6.57" y1="32.84" x2="91.68" y2="32.84"/>
      <line class="cls-1" x1="6.48" y1="12.68" x2="91.49" y2="12.68"/>
      <line class="cls-1" x1="91.61" y1="16.21" x2="6.46" y2="16.21"/>
      <line class="cls-1" x1="6.35" y1="19.52" x2="91.36" y2="19.52"/>
      <line class="cls-1" x1="91.48" y1="23.06" x2="6.33" y2="23.06"/>
      <line class="cls-1" x1="6.69" y1="90.39" x2="91.2" y2="90.39"/>
    </g>
  </g>
</svg>