<?xml version="1.0" encoding="UTF-8"?>
<svg id="Layer_2" data-name="Layer 2" xmlns="http://www.w3.org/2000/svg" viewBox="0 0 178.26 105.79">
  <defs>
    <style>
      .cls-1 {
        stroke-width: .5px;
      }

      .cls-1, .cls-2, .cls-3, .cls-4 {
        fill: none;
        stroke: #000;
        stroke-miterlimit: 10;
      }

      .cls-2 {
        stroke-width: .5px;
      }

      .cls-3 {
        stroke-width: .49px;
      }

      .cls-4 {
        stroke-width: .48px;
      }
    </style>
  </defs>
  <g id="MATERIAL_ICONS" data-name="MATERIAL ICONS">
    <g id="PLASTIC">
      <path class="cls-4" d="M33.36,4.86c-16.88,2.01-18.64,38.92-3.56,46.36,11.16,5.51,18.79-8.49,19.83-18.92,1.08-10.84-3.77-28.92-16.27-27.44ZM34.33,85.97c-.51,5.56-4.95,9.49-4.95,9.49-4.43,4.04-15.44,6.36-21.88-.19C.06,87.48-1.79,70.97,2.54,59.94c2.64-6.73,8.03-12.38,17.7-12.83-2.11-3.81-3.64-8.79-4.2-13.21C14.44,21.46,18.84,3.41,31.61.48c3.04-.7,8.15.22,10.52,1.87l2.36,1.76c9.73,9.81,11.5,26.89,6.06,39.79l-3.08,5.53c4.76-.38,9.38-.43,14.07-.61,28.58-1.1,57.29-2,85.84-3.3,2.23-.1,10.1-.35,10.9-.4M34.72.24l103.92,8.99c5.99.56,12.77-.27,17.6,4.2,8.1,7.5,8.94,22.91,2.05,31.68,3.25-.1,5.77-.7,8.88.79,13.38,6.39,15.57,36.92-.12,41.98l-112.9,17.67c-4.4-.21-8.49-.88-11.97-4.05-1.14-1.03-2.53-2.39-3.17-3.49M58.75,51.73c.77.34,1.72,1.11,2.7,2.09,11.25,12.21,11.38,36.17-.56,47.88M49.41,53.39c-9.76,1.09-13.1,16.28-12.7,25.17.33,7.39,3.79,18.17,10.49,21.17,11.9,5.34,18.5-9.6,19.05-20.39.53-10.49-5.1-27.26-16.84-25.95ZM38.54,56.19c-2.05.68-4.23.84-6.33.41,1.31,2.21,2.02,4.74,2.89,7.17.77-2.72,2.05-5.21,3.44-7.58ZM17.5,52.1c-15.4,1.83-17.01,35.5-3.24,42.29,10.19,5.02,17.14-7.74,18.09-17.26.98-9.89-3.44-26.39-14.84-25.03Z"/>
      <path class="cls-2" d="M38.54,56.23c2.16-.95,4.87-2.49,7.35-4.97.67-.67,1.25-1.33,1.75-1.98"/>
      <path class="cls-3" d="M59.4,52.09s-1.72-1.15-4.78-2.03c-2.33-.67-6.83-.27-7.4-.19"/>
      <path class="cls-1" d="M58.23,103.84c-2.17,1.44-4.35,1.71-4.35,1.71"/>
      <path class="cls-1" d="M60.98,101.67c-.34.36-1.74,1.49-2.78,2.18"/>
      <path class="cls-1" d="M35.09,63.77c-2.85,12.58-2.2,24.16,3.91,34.24"/>
      <path class="cls-1" d="M19.92,46.55c1.81,3.48,6.88,8.36,12.29,10.05"/>
      <line class="cls-4" x1="23.22" y1="98.65" x2="38.12" y2="96.82"/>
    </g>
  </g>
</svg>