<?xml version="1.0" encoding="UTF-8"?>
<svg id="Layer_2" data-name="Layer 2" xmlns="http://www.w3.org/2000/svg" xmlns:xlink="http://www.w3.org/1999/xlink" viewBox="0 0 178.26 105.79">
  <defs>
    <style>
      .cls-1 {
        stroke-width: .5px;
      }

      .cls-1, .cls-2, .cls-3, .cls-4 {
        fill: none;
        stroke: #000;
        stroke-miterlimit: 10;
      }

      .cls-5 {
        fill: url(#linear-gradient-2);
      }

      .cls-6 {
        fill: url(#linear-gradient-4);
      }

      .cls-7 {
        fill: url(#linear-gradient-3);
      }

      .cls-2 {
        stroke-width: .5px;
      }

      .cls-3 {
        stroke-width: .49px;
      }

      .cls-4 {
        stroke-width: .48px;
      }

      .cls-8 {
        fill: url(#linear-gradient);
      }
    </style>
    <linearGradient id="linear-gradient" x1="75.32" y1="-7.2" x2="94.35" y2="100.73" gradientUnits="userSpaceOnUse">
      <stop offset="0" stop-color="#fff" stop-opacity=".6"/>
      <stop offset=".01" stop-color="#fdede2" stop-opacity=".66"/>
      <stop offset=".05" stop-color="#faccac" stop-opacity=".76"/>
      <stop offset=".09" stop-color="#f8b080" stop-opacity=".85"/>
      <stop offset=".14" stop-color="#f79b5e" stop-opacity=".92"/>
      <stop offset=".19" stop-color="#f58c46" stop-opacity=".97"/>
      <stop offset=".28" stop-color="#f58438" stop-opacity=".99"/>
      <stop offset=".5" stop-color="#f58235"/>
      <stop offset=".69" stop-color="#f38134" stop-opacity="1"/>
      <stop offset=".76" stop-color="#ec7d33" stop-opacity=".99"/>
      <stop offset=".8" stop-color="#e07730" stop-opacity=".97"/>
      <stop offset=".84" stop-color="#cf6e2c" stop-opacity=".94"/>
      <stop offset=".88" stop-color="#b96228" stop-opacity=".9"/>
      <stop offset=".91" stop-color="#9e5422" stop-opacity=".86"/>
      <stop offset=".93" stop-color="#7d421b" stop-opacity=".81"/>
      <stop offset=".96" stop-color="#582e13" stop-opacity=".74"/>
      <stop offset=".98" stop-color="#2f180a" stop-opacity=".68"/>
      <stop offset="1" stop-color="#010000" stop-opacity=".6"/>
      <stop offset="1" stop-color="#000" stop-opacity=".6"/>
    </linearGradient>
    <linearGradient id="linear-gradient-2" x1="34.67" y1="4.76" x2="34.67" y2="52.51" gradientUnits="userSpaceOnUse">
      <stop offset="0" stop-color="#f58235"/>
      <stop offset=".3" stop-color="#f28034" stop-opacity="1"/>
      <stop offset=".42" stop-color="#eb7d33" stop-opacity=".99"/>
      <stop offset=".52" stop-color="#df7630" stop-opacity=".96"/>
      <stop offset=".59" stop-color="#cd6d2c" stop-opacity=".94"/>
      <stop offset=".66" stop-color="#b66027" stop-opacity=".9"/>
      <stop offset=".72" stop-color="#9a5121" stop-opacity=".85"/>
      <stop offset=".77" stop-color="#783f1a" stop-opacity=".8"/>
      <stop offset=".82" stop-color="#512b11" stop-opacity=".73"/>
      <stop offset=".87" stop-color="#261408" stop-opacity=".66"/>
      <stop offset=".91" stop-color="#000" stop-opacity=".6"/>
    </linearGradient>
    <linearGradient id="linear-gradient-3" x1="28.62" y1="56.14" x2="8.49" y2="91.01" xlink:href="#linear-gradient-2"/>
    <linearGradient id="linear-gradient-4" x1="62.49" y1="57.98" x2="40.49" y2="96.09" xlink:href="#linear-gradient-2"/>
  </defs>
  <g id="MATERIAL_ICONS" data-name="MATERIAL ICONS">
    <g id="PLASTIC">
      <g id="Layer_17" data-name="Layer 17">
        <polygon class="cls-8" points="23.99 98.58 38.36 96.87 39.18 98.54 40.48 100.04 42.39 101.82 44.32 103.23 46.91 104.36 49.8 105.11 52.78 105.51 55.38 105.44 58.44 104.89 68.08 103.41 123.91 94.59 167.24 87.87 170.65 86.21 173.28 83.65 175.52 80.26 177.02 76.51 177.67 73.27 178.14 68.37 177.72 63.54 176.64 58.69 174.9 54.17 173.14 51.13 170.75 48.35 167.51 46.06 164.88 45.1 162.37 44.89 158.46 45.06 160.18 42.43 161.03 40.46 162.27 36.78 162.55 34.37 162.9 32.25 162.84 28.07 162.2 24.57 161.56 21.56 160.14 18.63 158.14 15.33 155.78 13.09 153.66 11.59 150.88 10.56 148.38 9.99 145.52 9.62 116.89 7.29 36.21 .29 33.24 .22 31.32 .64 28.81 1.49 26.59 2.7 25.32 3.71 24.02 4.77 22.91 6.01 20.62 9.04 19.71 10.74 18.51 13.46 17.58 16.26 16.96 18.4 16.38 21.29 15.99 24.47 15.7 28.76 15.92 33.14 16.96 38.76 18.23 42.97 20.15 47.02 16.7 47.48 12.46 48.95 9.75 50.43 7.21 52.47 5.66 54.45 4.14 56.64 2.36 60.39 .99 65.53 .33 70.24 .31 76.13 1.1 81.87 2.68 86.76 4.04 90.22 6.47 94.26 8.78 96.51 11.47 98.1 15.59 99.21 19.78 99.29 23.99 98.58"/>
        <path class="cls-5" d="M34.17,4.76l2.69.22,2.19.69,3.02,1.8,1.56,1.91.95,1.16,1.3,2.07,1.19,2.57.9,2.59.75,2.15s.36,1.43.36,1.5.6,4.22.6,4.22l.14,4.17-.27,3.93-.67,2.86-1.11,3.61-1.48,3.24-.93,1.78-1.72,2.5-1.91,1.93-2.5,1.78-2.26.93-3.17.17-2.63-.63-2.66-1.31-3.35-2.99-1.96-3s-1.77-3.91-1.77-3.98-1.41-5.17-1.41-5.17l-.46-4.54.06-5.25.42-3.35,1.53-6.06,1.14-2.86,1.88-3.23,2.61-2.78,2.99-1.81,4-.82Z"/>
        <path class="cls-7" d="M18.29,51.92l2.45.2,2,.62,2.76,1.64,1.42,1.74.87,1.05,1.18,1.89,1.08,2.35.82,2.36.69,1.96s.33,1.3.33,1.37.55,3.85.55,3.85l.13,3.8-.25,3.58-.61,2.61-1.02,3.29-1.35,2.95-.85,1.62-1.57,2.27-1.74,1.75-2.29,1.62-2.07.84-2.89.15-2.4-.57-2.43-1.19-3.06-2.72-1.79-2.73s-1.62-3.56-1.62-3.63-1.29-4.71-1.29-4.71l-.42-4.13.05-4.78.38-3.05,1.4-5.52,1.04-2.61,1.72-2.94,2.39-2.53,2.73-1.65,3.65-.75Z"/>
        <path class="cls-6" d="M51.2,53.29l2.62.22,2.13.68,2.94,1.8,1.52,1.91.93,1.16,1.26,2.07,1.15,2.57.88,2.59.73,2.15s.35,1.43.35,1.5.59,4.22.59,4.22l.14,4.16-.26,3.92-.65,2.86-1.08,3.61-1.44,3.24-.91,1.78-1.68,2.49-1.86,1.92-2.44,1.78-2.2.93-3.09.17-2.56-.63-2.59-1.31-3.26-2.98-1.91-3s-1.73-3.91-1.73-3.98-1.37-5.16-1.37-5.16l-.45-4.53.05-5.25.41-3.34,1.49-6.05,1.11-2.86,1.84-3.22,2.54-2.78,2.91-1.8,3.89-.82Z"/>
      </g>
      <path class="cls-4" d="M33.36,4.86c-16.88,2.01-18.64,38.92-3.56,46.36,11.16,5.51,18.79-8.49,19.83-18.92,1.08-10.84-3.77-28.92-16.27-27.44ZM34.33,85.97c-.51,5.56-4.95,9.49-4.95,9.49-4.43,4.04-15.44,6.36-21.88-.19C.06,87.48-1.79,70.97,2.54,59.94c2.64-6.73,8.03-12.38,17.7-12.83-2.11-3.81-3.64-8.79-4.2-13.21C14.44,21.46,18.84,3.41,31.61.48c3.04-.7,8.15.22,10.52,1.87l2.36,1.76c9.73,9.81,11.5,26.89,6.06,39.79l-3.08,5.53c4.76-.38,9.38-.43,14.07-.61,28.58-1.1,57.29-2,85.84-3.3,2.23-.1,10.1-.35,10.9-.4M34.72.24l103.92,8.99c5.99.56,12.77-.27,17.6,4.2,8.1,7.5,8.94,22.91,2.05,31.68,3.25-.1,5.77-.7,8.88.79,13.38,6.39,15.57,36.92-.12,41.98l-112.9,17.67c-4.4-.21-8.49-.88-11.97-4.05-1.14-1.03-2.53-2.39-3.17-3.49M58.75,51.73c.77.34,1.72,1.11,2.7,2.09,11.25,12.21,11.38,36.17-.56,47.88M49.41,53.39c-9.76,1.09-13.1,16.28-12.7,25.17.33,7.39,3.79,18.17,10.49,21.17,11.9,5.34,18.5-9.6,19.05-20.39.53-10.49-5.1-27.26-16.84-25.95ZM38.54,56.19c-2.05.68-4.23.84-6.33.41,1.31,2.21,2.02,4.74,2.89,7.17.77-2.72,2.05-5.21,3.44-7.58ZM17.5,52.1c-15.4,1.83-17.01,35.5-3.24,42.29,10.19,5.02,17.14-7.74,18.09-17.26.98-9.89-3.44-26.39-14.84-25.03Z"/>
      <path class="cls-2" d="M38.54,56.23c2.16-.95,4.87-2.49,7.35-4.97.67-.67,1.25-1.33,1.75-1.98"/>
      <path class="cls-3" d="M59.4,52.09s-1.72-1.15-4.78-2.03c-2.33-.67-6.83-.27-7.4-.19"/>
      <path class="cls-1" d="M58.23,103.84c-2.17,1.44-4.35,1.71-4.35,1.71"/>
      <path class="cls-1" d="M60.98,101.67c-.34.36-1.74,1.49-2.78,2.18"/>
      <path class="cls-1" d="M35.09,63.77c-2.85,12.58-2.2,24.16,3.91,34.24"/>
      <path class="cls-1" d="M19.92,46.55c1.81,3.48,6.88,8.36,12.29,10.05"/>
      <line class="cls-4" x1="23.22" y1="98.65" x2="38.12" y2="96.82"/>
    </g>
  </g>
</svg>