<?xml version="1.0" encoding="UTF-8"?>
<svg id="Layer_2" data-name="Layer 2" xmlns="http://www.w3.org/2000/svg" viewBox="0 0 131.06 103.48">
  <defs>
    <style>
      .cls-1 {
        fill: none;
        stroke: #000;
        stroke-miterlimit: 10;
        stroke-width: .5px;
      }
    </style>
  </defs>
  <g id="MATERIAL_ICONS" data-name="MATERIAL ICONS">
    <g id="SOLAR_PANEL" data-name="SOLAR PANEL">
      <g>
        <path class="cls-1" d="M73.24,83.39v6.68l12.72,2.31,2.48,3.88.06,1.42-22.6,5.54-22.77-5.67-.09-5.42,13.28-2.38-.09-9.32L3.71,70.95l-3.42-5.9L37.66.26l89.06,4.77.63.49,3.44,7.15-41.09,73.1-.75.61-15.7-2.99h0ZM125.24,6.9L38.61,2.17,2.64,64.62l82.37,14.88L125.24,6.9h0ZM88.98,83.39L128.68,12.79l-2.01-4.3-39.79,71.61-.03.26,2.14,3.02h0ZM86.92,84.02l-2.06-2.63L3.12,66.53l1.42,2.59,82.38,14.9h0ZM67.2,82.28l-9.06-1.59v10.65l9.06,1.75v-10.81h0ZM68.95,82.75v10.34l2.55-.57-.03-9.19-2.52-.58h0ZM56.39,91.66l-8.11,1.43,18.06,4.12,16.12-3.64-9.22-1.75-.16,2.15-5.32,1.04-11.38-2.23v-1.11h0ZM65.45,98.81l-20.59-4.77v2.08s20.59,5.08,20.59,5.08v-2.39h0ZM67.2,98.81v2.39l19.24-4.77-1.04-1.75-18.2,4.14h0Z"/>
        <path class="cls-1" d="M40.05,5.68l78.6,4.72-35.86,65.12L7.8,62.24l.05-.75L40.05,5.68h0ZM56.07,8.18l-14.92-.77-6.7,11.74,14.68,1.09,6.94-12.06h0ZM74.04,9.29l-15.89-.95-6.85,12.23,15.71,1.08,7.03-12.37h0ZM94.07,10.56l-17.94-1.08-7.03,12.37,17.86,1.41,7.1-12.69h0ZM116.18,11.83l-19.93-1.26-7.26,13.02,19.77,1.57,7.42-13.33h0ZM47.96,22.17l-14.47-1.2-7.47,12.73,14.31,1.75,7.63-13.28h0ZM65.77,23.6l-15.74-1.2-7.63,13.44,15.42,1.68,7.95-13.92h0ZM85.96,25.19l-18.09-1.4-7.98,14.12,17.86,1.88,8.21-14.6h0ZM107.75,27.1l-19.84-1.56-7.98,14.59,19.37,2.2,8.45-15.24h0ZM39.21,37.28l-14.29-1.73-7.65,13.65,13.97,2.05,7.97-13.98h0ZM56.71,39.34l-15.43-1.84-8.11,14.08,15.27,2.15,8.26-14.39h0ZM76.74,41.57l-17.97-1.83-8.27,14.39,17.81,2.48,8.43-15.04h0ZM70.38,56.99l19.09,2.78,8.73-15.42-19.29-2.45-8.53,15.09h0ZM30.15,52.86l-13.97-2.21-5.9,10.24,13.72,2.44,6.15-10.47h0ZM47.32,55.4l-15.16-2.21-6.15,10.63,15,2.52,6.31-10.95h0ZM67.36,58.43l-17.87-2.67-6.62,11.09,17.98,3.11,6.51-11.53h0ZM81.82,73.68l6.69-12-19.21-2.91-6.55,11.58,19.07,3.34h0Z"/>
      </g>
    </g>
  </g>
</svg>