<?xml version="1.0" encoding="UTF-8"?>
<svg id="Layer_2" data-name="Layer 2" xmlns="http://www.w3.org/2000/svg" viewBox="0 0 131.06 103.49">
  <defs>
    <style>
      .cls-1 {
        fill: none;
        stroke: #000;
        stroke-miterlimit: 10;
        stroke-width: .5px;
      }

      .cls-2 {
        fill: #fff;
      }

      .cls-3 {
        fill: #023f6e;
      }

      .cls-4 {
        fill: #e1cab1;
      }

      .cls-5 {
        fill: #c69c6d;
      }

      .cls-6 {
        fill: #023f6e;
      }

      .cls-7 {
        fill: #666;
      }

      .cls-8 {
        fill: #e6e6e6;
      }
    </style>
  </defs>
  <g id="MATERIAL_ICONS" data-name="MATERIAL ICONS">
    <g id="SOLAR_PANEL" data-name="SOLAR PANEL">
      <g>
        <g>
          <path class="cls-8" d="M127.34,5.52l3.44,7.15-41.09,73.09-.75.62-15.7-2.99v6.68l12.72,2.31,2.47,3.88.06,1.42-22.6,5.55-22.77-5.67-.08-5.42,13.28-2.38-.09-9.32L3.71,70.95l-3.42-5.9L37.65.26l89.07,4.77.62.49ZM128.68,12.79l-2.01-4.3-39.8,71.61-.03.27,2.14,3.02L128.68,12.79ZM85.01,79.5L125.24,6.9,38.61,2.17,2.64,64.62l82.37,14.88ZM86.92,84.02l-2.06-2.63L3.12,66.53l1.42,2.59,82.38,14.9ZM86.44,96.43l-1.04-1.76-18.2,4.14v2.39l19.24-4.77ZM66.34,97.21l16.12-3.65-9.22-1.74-.16,2.14-5.32,1.04-11.37-2.23v-1.11l-8.11,1.43,18.06,4.12ZM71.5,92.52l-.03-9.19-2.52-.58v10.34l2.55-.57ZM67.2,93.09v-10.81l-9.07-1.59v10.65l9.07,1.75ZM65.45,101.2v-2.39l-20.59-4.77v2.08s20.59,5.08,20.59,5.08Z"/>
          <polygon class="cls-7" points="126.67 8.49 128.68 12.79 88.98 83.39 86.84 80.37 86.87 80.1 126.67 8.49"/>
          <path class="cls-6" d="M125.24,6.9l-40.23,72.6L2.64,64.62,38.61,2.17l86.63,4.73ZM82.78,75.52L118.65,10.4,40.05,5.68,7.85,61.49l-.05.75,74.98,13.28Z"/>
          <path class="cls-2" d="M118.65,10.4l-35.87,65.12L7.8,62.24l.05-.75L40.05,5.68l78.6,4.72ZM108.76,25.16l7.41-13.33-19.92-1.25-7.27,13.02,19.78,1.56ZM99.29,42.34l8.46-15.24-19.85-1.56-7.98,14.6,19.37,2.2ZM89.47,59.77l8.73-15.42-19.29-2.45-8.53,15.09,19.09,2.78ZM86.97,23.26l7.1-12.7-17.93-1.08-7.03,12.37,17.86,1.41ZM81.82,73.68l6.68-12-19.2-2.91-6.55,11.58,19.07,3.33ZM77.75,39.79l8.21-14.6-18.09-1.4-7.99,14.12,17.87,1.88ZM68.31,56.6l8.43-15.03-17.97-1.83-8.27,14.39,17.81,2.47ZM67.01,21.66l7.03-12.37-15.89-.95-6.85,12.24,15.71,1.08ZM60.85,69.96l6.51-11.53-17.87-2.67-6.62,11.09,17.98,3.11ZM57.81,37.52l7.96-13.92-15.75-1.2-7.63,13.44,15.42,1.68ZM48.44,53.74l8.26-14.4-15.42-1.84-8.11,14.08,15.27,2.16ZM49.12,20.23l6.95-12.05-14.92-.77-6.71,11.74,14.68,1.08ZM40.33,35.45l7.63-13.28-14.47-1.2-7.47,12.73,14.31,1.75ZM41.01,66.35l6.31-10.95-15.16-2.21-6.15,10.64,15,2.52ZM31.24,51.25l7.97-13.97-14.29-1.73-7.65,13.65,13.97,2.05ZM24,63.33l6.15-10.47-13.98-2.21-5.9,10.24,13.73,2.44Z"/>
          <polygon class="cls-3" points="116.17 11.83 108.76 25.16 88.98 23.6 96.25 10.58 116.17 11.83"/>
          <polygon class="cls-3" points="107.75 27.1 99.29 42.34 79.92 40.14 87.9 25.54 107.75 27.1"/>
          <polygon class="cls-3" points="98.2 44.35 89.47 59.77 70.38 56.99 78.91 41.9 98.2 44.35"/>
          <polygon class="cls-3" points="94.07 10.56 86.97 23.26 69.11 21.85 76.14 9.48 94.07 10.56"/>
          <polygon class="cls-3" points="88.5 61.68 81.82 73.68 62.75 70.35 69.3 58.77 88.5 61.68"/>
          <polygon class="cls-7" points="84.86 81.39 86.92 84.02 4.54 69.12 3.12 66.53 84.86 81.39"/>
          <polygon class="cls-5" points="85.4 94.67 86.44 96.43 67.2 101.2 67.2 98.81 85.4 94.67"/>
          <polygon class="cls-3" points="85.96 25.19 77.75 39.79 59.88 37.91 67.87 23.79 85.96 25.19"/>
          <polygon class="cls-5" points="82.46 93.56 66.34 97.21 48.28 93.09 56.39 91.66 56.39 92.77 67.76 95 73.08 93.96 73.24 91.82 82.46 93.56"/>
          <polygon class="cls-3" points="76.74 41.57 68.31 56.6 50.5 54.13 58.77 39.74 76.74 41.57"/>
          <polygon class="cls-3" points="74.04 9.29 67.01 21.66 51.3 20.58 58.15 8.34 74.04 9.29"/>
          <polygon class="cls-4" points="71.47 83.33 71.5 92.52 68.95 93.09 68.95 82.75 71.47 83.33"/>
          <polygon class="cls-3" points="67.36 58.43 60.85 69.96 42.87 66.85 49.49 55.76 67.36 58.43"/>
          <polygon class="cls-4" points="67.2 82.28 67.2 93.09 58.13 91.34 58.13 80.69 67.2 82.28"/>
          <polygon class="cls-3" points="65.77 23.6 57.81 37.52 42.39 35.84 50.02 22.4 65.77 23.6"/>
          <polygon class="cls-5" points="65.45 98.81 65.45 101.2 44.85 96.12 44.86 94.04 65.45 98.81"/>
          <polygon class="cls-3" points="56.7 39.34 48.44 53.74 33.17 51.58 41.28 37.5 56.7 39.34"/>
          <polygon class="cls-3" points="56.07 8.18 49.12 20.23 34.44 19.15 41.15 7.41 56.07 8.18"/>
          <polygon class="cls-3" points="47.96 22.17 40.33 35.45 26.02 33.7 33.49 20.97 47.96 22.17"/>
          <polygon class="cls-3" points="47.32 55.4 41.01 66.35 26.01 63.83 32.16 53.19 47.32 55.4"/>
          <polygon class="cls-3" points="39.21 37.28 31.24 51.25 17.27 49.2 24.92 35.55 39.21 37.28"/>
          <polygon class="cls-3" points="30.15 52.86 24 63.33 10.27 60.89 16.17 50.65 30.15 52.86"/>
        </g>
        <g>
          <polygon class="cls-1" points="73.24 83.39 73.24 90.07 85.96 92.38 88.43 96.26 88.49 97.68 65.89 103.23 43.12 97.56 43.04 92.14 56.32 89.76 56.23 80.44 3.71 70.95 .29 65.05 37.65 .26 126.72 5.03 127.34 5.52 130.78 12.67 89.69 85.76 88.94 86.38 73.24 83.39"/>
          <polygon class="cls-1" points="125.24 6.9 38.61 2.17 2.64 64.62 85.01 79.5 125.24 6.9"/>
          <polygon class="cls-1" points="88.98 83.39 128.68 12.79 126.67 8.49 86.87 80.1 86.84 80.37 88.98 83.39"/>
          <polygon class="cls-1" points="86.92 84.02 84.86 81.39 3.12 66.53 4.54 69.12 86.92 84.02"/>
          <polygon class="cls-1" points="67.2 82.28 58.13 80.69 58.13 91.34 67.2 93.09 67.2 82.28"/>
          <polygon class="cls-1" points="68.95 82.75 68.95 93.09 71.5 92.52 71.47 83.33 68.95 82.75"/>
          <polygon class="cls-1" points="56.39 91.66 48.28 93.09 66.34 97.21 82.46 93.56 73.24 91.82 73.08 93.96 67.76 95 56.39 92.77 56.39 91.66"/>
          <polygon class="cls-1" points="65.45 98.81 44.86 94.04 44.85 96.12 65.45 101.2 65.45 98.81"/>
          <polygon class="cls-1" points="67.2 98.81 67.2 101.2 86.44 96.43 85.4 94.67 67.2 98.81"/>
          <polygon class="cls-1" points="40.05 5.68 118.65 10.4 82.78 75.52 7.8 62.24 7.85 61.49 40.05 5.68"/>
          <polygon class="cls-1" points="56.07 8.18 41.15 7.41 34.44 19.15 49.12 20.23 56.07 8.18"/>
          <polygon class="cls-1" points="74.04 9.29 58.15 8.34 51.3 20.58 67.01 21.66 74.04 9.29"/>
          <polygon class="cls-1" points="94.07 10.56 76.14 9.48 69.11 21.85 86.97 23.26 94.07 10.56"/>
          <polygon class="cls-1" points="116.17 11.83 96.25 10.58 88.98 23.6 108.76 25.16 116.17 11.83"/>
          <polygon class="cls-1" points="47.96 22.17 33.49 20.97 26.02 33.7 40.33 35.45 47.96 22.17"/>
          <polygon class="cls-1" points="65.77 23.6 50.02 22.4 42.39 35.84 57.81 37.52 65.77 23.6"/>
          <polygon class="cls-1" points="85.96 25.19 67.87 23.79 59.88 37.91 77.75 39.79 85.96 25.19"/>
          <polygon class="cls-1" points="107.75 27.1 87.9 25.54 79.92 40.14 99.29 42.34 107.75 27.1"/>
          <polygon class="cls-1" points="39.21 37.28 24.92 35.55 17.27 49.2 31.24 51.25 39.21 37.28"/>
          <polygon class="cls-1" points="56.7 39.34 41.28 37.5 33.17 51.58 48.44 53.74 56.7 39.34"/>
          <polygon class="cls-1" points="76.74 41.57 58.77 39.74 50.5 54.13 68.31 56.6 76.74 41.57"/>
          <polygon class="cls-1" points="70.38 56.99 89.47 59.77 98.2 44.35 78.91 41.9 70.38 56.99"/>
          <polygon class="cls-1" points="30.15 52.86 16.17 50.65 10.27 60.89 24 63.33 30.15 52.86"/>
          <polygon class="cls-1" points="47.32 55.4 32.16 53.19 26.01 63.83 41.01 66.35 47.32 55.4"/>
          <polygon class="cls-1" points="67.36 58.43 49.49 55.76 42.87 66.85 60.85 69.96 67.36 58.43"/>
          <polygon class="cls-1" points="81.82 73.68 88.5 61.68 69.3 58.77 62.75 70.35 81.82 73.68"/>
        </g>
      </g>
    </g>
  </g>
</svg>