<?xml version="1.0" encoding="UTF-8"?>
<svg id="Layer_2" data-name="Layer 2" xmlns="http://www.w3.org/2000/svg" xmlns:xlink="http://www.w3.org/1999/xlink" viewBox="0 0 277.47 230.1">
  <defs>
    <style>
      .cls-1 {
        stroke-miterlimit: 10;
      }

      .cls-1, .cls-2, .cls-3 {
        fill: none;
      }

      .cls-1, .cls-3 {
        stroke-width: .5px;
      }

      .cls-1, .cls-3, .cls-4 {
        stroke: #000;
      }

      .cls-5 {
        fill: url(#linear-gradient-2);
      }

      .cls-6 {
        fill: #d5d9de;
      }

      .cls-7 {
        fill: #f4f7f8;
      }

      .cls-8 {
        fill: #b1b9c2;
      }

      .cls-9 {
        fill: #9aa0a8;
      }

      .cls-3, .cls-4 {
        stroke-linejoin: bevel;
      }

      .cls-4 {
        fill: url(#Generated_Pattern_2);
        stroke-width: .49px;
      }

      .cls-10 {
        fill: #878e98;
      }

      .cls-11 {
        fill: url(#linear-gradient);
      }

      .cls-12 {
        clip-path: url(#clippath);
      }

      .cls-13 {
        opacity: .5;
      }

      .cls-14 {
        fill: #c3c1c9;
      }
    </style>
    <clipPath id="clippath">
      <polyline class="cls-2" points="34.69 157.8 95.06 178.39 169.37 144.91 214.89 171.98 245.52 165.45 247.87 158.45 239.09 153.16 244.27 136.59 255.72 134.72 258.2 127.29 258.21 127.09 160.98 72.91 152.02 73.9 137.53 71.85 48.57 83.95 48.57 91.76 59.09 94.04 59.25 117.34 47.72 119.57 47.72 120.68 34.68 123.96 34.68 131.08 45.09 133.9 45.09 146.77 34.64 150.74 34.64 157.8"/>
    </clipPath>
    <linearGradient id="linear-gradient" x1="-84280.76" y1="-110173.24" x2="-84777.74" y2="-110177.35" gradientTransform="translate(21252 -27415.82) scale(.25 -.25)" gradientUnits="userSpaceOnUse">
      <stop offset=".12" stop-color="#848c97"/>
      <stop offset=".68" stop-color="#dee3e9"/>
      <stop offset="1" stop-color="#8c939d"/>
    </linearGradient>
    <linearGradient id="linear-gradient-2" x1="-83988.64" y1="-110174.17" x2="-84265.63" y2="-110176.52" gradientTransform="translate(21252 -27415.82) scale(.25 -.25)" gradientUnits="userSpaceOnUse">
      <stop offset="0" stop-color="#b2bbc4"/>
      <stop offset=".43" stop-color="#dde3e8"/>
      <stop offset="1" stop-color="#8c939d"/>
    </linearGradient>
    <pattern id="Generated_Pattern_2" data-name="Generated Pattern 2" x="0" y="0" width="256" height="256" patternTransform="translate(-6977.43 -2369.18) rotate(72.37) scale(.62 1.54)" patternUnits="userSpaceOnUse" viewBox="0 0 256 256">
      <g>
        <rect class="cls-2" width="256" height="256"/>
        <path class="cls-11" d="M100.75,0c-.07,21.32-1.35,42.87.38,64.25L101.25,0h2c-.14,3.67-.22,7.33-.25,11-.12,16.31-.35,32.57,0,48.88l.75-.25c-.02-7.29.49-14.57.5-21.88h.75c0,3.19-.11,6.43,0,9.62.02.46-.25,1.23.5,1.12.03,6.63-.09,13.25.25,19.88C107.26,45.73,106.1,22.75,106,0h61.5c.44,2.26-.63,18.42.12,19,.07.06.74.05.88-.12V0h15v256h-7.5l-.12-20.25c-.35,0,.03,5.97-.12,6.38-.1.28-.84-.04-1,.25-.56.98.43,11.63,0,13.62h-6.25c-.5-2.71.77-11.15-.25-13.12-.38-.74-.01.3-.75.12,0-6.54-.41-13.08-.25-19.62-.37,5.11-.25,10.25-.5,15.38-.05,1.07-.93,2.63-1,3.88-.23,4.28.67,9.04.25,13.38h-4.75l-.12-34.25c-.91,4.02.21,8.58-.38,12.62-.65,4.43-1.16-.99-1.25-2.25-.39,2.73.52,6.97,0,9.5-.03.14-.97.36-1,.5-.75,3.67.56,9.92,0,13.88h-.5c-.65-2.99.77-24.36-.12-25.25-.29-.29-.4,1.08-1.12.12v25.12h-.5l-.38-38-.12,38h-7.5c-1.39-15.53.39-31.75-.75-47.38l-.75.25.25,33.25-.75-.25-.75-42-.75,27.25-.62.38c-.59-.44-.31-11.51-.38-13.12,0-.23-.74-.02-.75-.25-.39-10.11.54-20.47-.12-30.62l-.38,44.62c-.37-.54-.93-.04-1,.25-.92,3.91.22,15.25.25,20,0,.93,0,1.99,0,2.75.02,1.58-.52,3.2,0,4.88H56.25V0h44.5ZM95.38,10l.5,56c.55-11.7.75-23.41.62-35.12-.06-5.79.28-13.49-.25-19-.04-.37-.23-1.91-.88-1.88ZM98.63,16c-.84.65-.8,3.17-.88,4.38-.79,12.69.37,26.37.38,39.12.82.1.52-.15.62-.62.32-1.44.2-6.13.25-8,.34-11.61-.18-23.27-.38-34.88ZM73,44.25l-.5,52.12c.63.38.43-.14.5-.5,1.22-6.74.25-23.8.25-31.62l1.25,17.12c-.13-11.16.18-22.34,0-33.5,0-.19-.5-.06-.5-.25-.15-9,.27-18.02-.25-27-.51-.27-.58-.27-.75.25-.12.36-.24,6.5-.25,7.5-.07,5.21.24,10.61.25,15.88ZM118.88,23.75c-.3,20.07-.75,40.2,0,60.25.66-20.08.45-40.2,0-60.25ZM111.38,24.75c-.59,16.65-.84,33.35-.25,50l.25-50ZM82.63,25.5c-.04,17.99-.54,36.03.25,54,.04-17.99.54-36.03-.25-54ZM116.13,26.25l-.12,25.62.38,25.88c.04-17.15.54-34.36-.25-51.5ZM75.38,27c-.24,8.7-.11,17.42-.12,26.12-.01,7.63-.8,15.33.38,22.88.3-16.34.12-32.71-.25-49ZM79.63,27.75l-.12,26.88.12,26.62c.79-17.81.28-35.73,0-53.5ZM87.63,33.75l.25,40.75.38-40.12c.2-.52-.35-.85-.62-.62ZM71.63,35.25c-.21,20.07-.21,40.19,0,60.25.41-20.12.27-40.13,0-60.25ZM128.63,39.5c.25,15.54-.73,31.19.25,46.75l.12-23.62-.38-23.12ZM67.88,41c-.97,8.41-.37,16.92-.38,25.38s-.31,16.12.12,24.12c.79-16.47.29-33.01.25-49.5ZM126.13,45.25c-.04,14.07-.54,28.2.25,42.25.04-14.07.54-28.2-.25-42.25ZM85.13,47.5c-.05,7.97-.54,16.05.25,24l.38-11.88-.62-12.12ZM62.63,51.75l-.12,34.38,1.12.12.38-34.38-1.38-.12ZM140.88,55.75c-.07,10.65-.5,21.37.25,32,.08-10.65.48-21.37-.25-32ZM133.63,57.5c.55,5.65-1.55,15.14-.38,20.38.07.3.05,1.1.62.62.81-.67-.75-18.5-.25-21ZM146.88,72l.75,45.75c-.15-11.61.57-23.28.38-34.88-.02-1.4.04-10.3-.25-10.75-.11-.16-.79-.19-.88-.12ZM153.13,87.5c-.21,9.41-.21,18.84,0,28.25.21-9.41.21-18.84,0-28.25ZM155.88,89.25c-.21,12.24-.21,24.51,0,36.75.29-12.2.16-24.52,0-36.75ZM150.38,95.5l-.12,9.88.62,9.12c-.42-6.29.37-12.72-.5-19ZM140.38,97c-.21,4.9-.21,9.85,0,14.75.11-4.9.36-9.89,0-14.75ZM156.88,101.75c.05,1.47-.47,11.39-.12,11.88.13.18,1.05.18,1.12.12.47-.36-.1-10.43.12-11.88-.97.46-.6,2.42-1.12-.12ZM105.5,161v14.25c.04,7.05-.03,14.09.25,21.12l.5-.25c.13-21.97.57-44.03-.5-66-.28,10.29-.22,20.58-.25,30.88ZM101.13,133.75c-.65,6.82-.76,13.73-.88,20.62-.18,10.95-.15,21.97.62,32.88.71-5.62.81-11.41.88-17.12.13-12.06-.46-24.28-.62-36.38ZM95.63,138c-.71,18.64-1.14,37.39.25,56,.55-11.61.71-23.24.62-34.88-.03-4.38.51-17.18-.25-20.5-.1-.44-.02-.75-.62-.62ZM103.13,139.75l.5,48.5c.32-9.69.77-19.41.62-29.12-.08-5.2.1-13.08-.5-18-.05-.37-.05-1.43-.62-1.38ZM98.63,143c-.84,1.28-.79,3.89-.88,5.62-.63,12.64.23,25.95.38,38.62.82.1.52-.15.62-.62.32-1.4.19-5.93.25-7.75.37-11.92-.19-23.94-.38-35.88ZM73,172.5l-.5,51.62c.63.38.43-.14.5-.5,1.19-6.55.25-23.26.25-30.88l1.25,16.62-.25-60.75c-.15-.2-1.1-.2-1.25,0-.69.97,0,21,0,23.88ZM82.63,151.5l-.12,28.12.38,27.62.12-28.12-.38-27.62ZM118.88,154.25c-.36,18.89-.71,37.87,0,56.75.6-18.9.54-37.86,0-56.75ZM87.63,159.5l.25,43,.38-41.38-.62-1.62ZM79.63,159.75c-.21,16.41-.21,32.84,0,49.25.78-16.37.34-32.87,0-49.25ZM116.13,160c-.04,15.49-.54,31.03.25,46.5.04-15.49.54-31.03-.25-46.5ZM128.88,166.75c-.49,15.4-.49,30.84-.25,46.25.79-15.39.29-30.85.25-46.25ZM67.88,169c-.87,8.27-.37,16.58-.38,24.88s-.17,16.44.12,24.62c.79-16.47.29-33.01.25-49.5ZM126.13,173.75c-.04,14.23-.54,28.53.25,42.75.04-14.23.54-28.53-.25-42.75ZM85.13,176c-.05,7.47-.54,15.06.25,22.5l.38-11.12-.62-11.38ZM133.63,187l-.25,32.25c1.27-10.68.13-21.5.25-32.25ZM150.38,223.5c-.09,5.89-.47,11.9.25,17.75.19-5.86.45-11.9-.25-17.75ZM140.38,224.25c-.21,5.32-.21,10.68,0,16,.09-5.31.37-10.7,0-16Z"/>
        <path class="cls-5" d="M228.5,0c.46,17.01-.82,34.1-.25,51.12.03.87.39,9.65.88,9.62L229.25,0h26.75v256h-71.75V84.5l.5,13.12c.51-2.98-.68-8.6,0-11.25.05-.18.83-.05,1-.5l.38-38.12c.37,4.61-.06,9.26.12,13.88,0,.23.74.02.75.25.56,14.62-.42,29.36,0,44,.55-2.11.12-4.35.25-6.5.27-4.49.45-10.57.5-15.88,1.58.45,1.01-3.41,1-4.38-.02-1.63-.1-3.62-.25-5.25-.06-.68.24-.99-.75-.88.1-22.37,1.46-48.73-.5-70.38-.08-.89-.17-1.89.5-2.62h40.75ZM223.38,7l.5,59.25c.45-11.03.7-22.09.62-33.12-.05-7.65.04-15.93-.25-23.5,0-.22-.23-3.16-.88-2.62ZM226.13,17c-.35,8.4-.7,16.97-.62,25.38.03,3.86-.23,13.24.5,16.5.11.47-.19.73.62.62l-.5-42.5ZM232,48c1.39-.67.76,1.77,1.5,1.12.53-.47-.66-12.42,0-14.25-.91-.18-.32-1.11-.5-1.75l-1-.12c-.09-5.21-.12-10.42-.25-15.62l-.75.25c-.17,11.39-.58,22.86-.25,34.25.06,1.98-.08,5.19.25,7,.07.36-.13.88.5.5.17-3.8.36-7.59.5-11.38ZM203.5,39l-.5,38.38.38-2.38.38,2.62c0-1.37-.01-2.75,0-4.12l1.25-19.88c.19,10.16-.36,20.41.25,30.5V21.88c-1.04,1.01-.31,3.53-.5,5-.03.24-.72.01-.75.25-.36,3.31.55,7.62.25,10.75-.01.11-.3,1.36-.75,1.12ZM246.88,23c-.2,20.15-.78,40.34,0,60.5.64-20.16.43-40.35,0-60.5ZM210.63,25.75l-.12,27.62.38,27.12.12-27.62-.38-27.12ZM244.13,25.75l-.12,26.12.38,25.62.12-26.12-.38-25.62ZM207.63,27.25v55.25c.66-15.96.16-31.88.12-47.88,0-.19,0-.3,0-.5,0-2.3.19-4.59-.12-6.88ZM199.63,33c-.2,20.24-.21,40.54,0,60.75.5-20.28.16-40.44,0-60.75ZM195.88,38c-.97,9.01-.37,18.08-.38,27.12s-.23,17.94.12,26.88c.79-17.97.29-36.01.25-54ZM254.13,40.25c-.04,16.82-.54,33.69.25,50.5.04-16.82.54-33.69-.25-50.5ZM215.63,42.25c-1.28,1.06.54,29.11.25,33.25l.38-32.62c.2-.52-.35-.85-.62-.62ZM190.63,45c.67,4.71-1.28,38.25-.12,39.88.18.26.81.07,1.12.12,0-13.38.61-26.83,0-40h-1ZM200.88,46.5l-.12,22.62.12,21.88c.32-14.84.46-29.67,0-44.5ZM213.13,49.75c-.05,6.8-.54,13.73.25,20.5l.38-10.12-.62-10.38ZM228.63,137.5l.25,50.75c.84-13.51.94-27.29.62-40.88-.05-2.18.09-7.55-.25-9.25-.09-.45.16-.77-.62-.62ZM232,179c.77.03.88.17,1-.62.75-4.84-.58-11.47,0-16.5l-1-.38c-.08-5.58.42-11.89-.25-17.38-.01-.11-.25-1.99-.75-1.5-.11,14.95-.84,29.97.38,44.88.21-2.82.49-5.68.62-8.5ZM226.13,144c-.35,8.65-.69,17.48-.62,26.12.03,4.02-.26,13.6.5,17,.11.47-.19.73.62.62l-.5-43.75ZM205.13,148.5c-.85,1.72.43,5.27-1.12,5.88-.22,4.05.34,8.23.25,12.25,0,.25-.75.42-.75.5-.06,4.45.38,8.92.38,13.38l1.12-1.62.12-30.38ZM201,173c-.63.41.22,1.41-.75,1.12,1.16,14.28.23,29.75,0,44.5l.75.75c-.19-8.71.24-17.42.25-26.12l.75,29.38c.33.6.51.87,1.25.5v-41c-1.33-.27-.64-3.32-.75-4.75-.01-.19-.48-.06-.5-.25-.75-8.81.58-18.15-.25-27h-.75c-.22,7.66-.04,15.21,0,22.88ZM199.38,150.5c.29,23.97-.06,48.02.25,72l.12-36.12-.38-35.88ZM210.88,152l-.38,28.12.12,27.88c.79-18.64.29-37.35.25-56ZM246.88,153.5c-.18,19.16-.81,38.34,0,57.5.68-19.16.4-38.35,0-57.5ZM207.38,155.25l.25,57c.27-2.45.07-4.92.12-7.38,0-.14,0-.66,0-.75.03-1.13.49-1.2.5-1.5,0-.18-.5-.07-.5-.25.15-8.78.36-17.5,0-26.25l.75-.25c-.6.1-.69-1.77-.75-2.75-.01-.17.53.13.5-.75,0-.17-.47-1.76-.5-3,0-.07,0-.64,0-.75-.04-2.67.63-10.7.25-12.5-.09-.41.06-.85-.62-.88ZM244.13,156l-.12,24.62.38,24.12.12-24.62-.38-24.12ZM190.38,162.25c-.21,25.41-.21,50.84,0,76.25l.12-37.38-.12-38.88ZM215.63,164c-.06,13.07-.52,26.2.25,39.25l.38-19.88-.62-19.38ZM195.88,167.75c-1.02,8.73-.39,17.6-.38,26.38s-.19,17.28.12,25.88c.79-17.39.29-34.85.25-52.25ZM213.13,168c-.05,9.9-.54,19.87.25,29.75.46-9.84.92-19.94-.25-29.75ZM254.13,172.5c-.04,15.24-.54,30.53.25,45.75.04-15.24.54-30.53-.25-45.75ZM198.38,174.75l-1,43.75c.88-.25.39-1.37,1.12-.62l-.12-43.12ZM187.88,199c-.54.45-.43,13.82.25,14,.74.2.62-1.51.62-1.88.03-2.07.09-9.98-.25-11.5-.07-.3-.05-1.1-.62-.62ZM204.88,218.75c-.19,0-.19,2.25,0,2.25.21-.3.18-2.25,0-2.25Z"/>
        <path class="cls-10" d="M34.75,0c-.63,2.15.99,1.98,1,2.12.01.28-.78-.12-1,.38-.76,1.69.75,1.99.75,2.12,0,.23-.66,0-.75.25-.61,1.73,1.59,2.19,1.38-.12C38.62,7.68,36.96,1.43,37.5,0h.5c.13.66-.18,1.96,0,2.5.31.92,1.05.34,1,.62-.04.27-.85-.03-1,.25-.06.12-.07,2.63,0,2.75.16.29.79-.04,1,.25.12.16.03,3.8,0,4-.02.14-1.64.98-1,2.25l1-1,.5,2.62c.04,1.37-.03,2.75,0,4.12.21.4.95-.35,1-.5C41.6,14.37,39.67,4.21,40.5,0h.25c.35,1.06-.36,6.35.12,6.75C42.63,8.19,41.78.55,42,0h.25l.12,10.5c.28-.04.64.12.88-.12C43.81,9.81,42.79,1.47,43.5,0h.25c.12.81-.61,8.16,1.25,6.12.21-.23-.48-5.27,0-6.12h1.75v13.12c1.75.15-.02-2.72,1.25-3.38.05.64.61,4.99.75,5.38.68,1.93,1.48-3.9,0-3.5l.75-.5c-1.84-.56-.02-.91,0-1,.59-2.8-.64-6.4.25-9.25.41,1.9-.53,11.81,0,12.75.2.34.83.07,1-.25V0h2.75l-.12.5L54,0h1.5v256h-7.5c-.15-8.16.34-16.35,0-24.5-.03-.76-.49-.42-.5-.62-.03-.59.89-1.06.5-2l-1.25.38c-.05-1.54.03-3.09,0-4.62-.56-.39-.73,1.81-.75,2-.97,9.18.73,20.02,0,29.38h-.75l.25-13.88-1.12-1.12-.62,15h-.25c-.73-3.42.5-26.23-.25-27.38-.14-.21-.84-.2-1,0-.38.47.59,10.78-.25,12.12-.01-1.49.29-9.71,0-10.12-.15-.2-1.1-.2-1.25,0,.07,8.13,0,16.25,0,24.38v1h-.25v-53.12c-.14-.2-.86-.2-1,0-.55.83-.21,17.7-.25,19.88,0,.05-.24.39-.25,1l-1.25.62c1,4.58-.75,12.28.25,16.5.2.86.04.64,1,.62v14.5h-1l-.62-23.75c-.25.04-.71-.12-.88.12-.68,1.03.52,20.73,0,23.62h-.5l-.12-36.75c-.95.5.32,1.85-1.12,1.88v34.88h-.5l.12-54.5-.88.12c-.2,18.07-.32,36.22-.25,54.38h-.25v-30.88c-2.09-1.25-.67,4.19-1.5,5.25-.24-1.51.23-12.67-.38-13.12s-.56.33-.62.62c-.59,2.63-.36,20.95,0,24.25,0,.09.9.09,1,.75.55,3.77-.46,9.18-.25,13.12h-1.5l-.5-37.62c1.98-.61-.37-.97,0-2.25.13-.45,1.41.41-.12-.88l-.38,40.75h-.5l-.38-37-.12,37h-4c.04-3.11,0-6.25,0-9.38.03-9.97,1.35-27.39,0-37-.07-.47-.46-2.94-1.25-1.75-.39.59-.23,12.38-.25,14.12-.07,6.08.05,12.17,0,18.25l-.25-22.88c-1.22-2.3.2-5.94,0-8.5-.01-.15-.96-.57-1-1-.22-2.71.09-5.53-.25-8.25l-1,.25c-.12-.3.21-7.96-1-5.25.08,4.11-.02,8.25,0,12.38L18.25,0h16.5ZM24.88,3.5c-.39.21-.06,1.06.5.75.39-.21.06-1.06-.5-.75ZM28.88,4.5c-.38.24-.11,1.38.5,1,.38-.24.11-1.38-.5-1ZM43.88,6.5c-.17.14-.6,3.01.75,2.5.78-.29.24-3.34-.75-2.5ZM53.38,6.75c-.54.39.43.76.62.38.18-.36-.44-.51-.62-.38ZM34.88,9.25c-.68.58,1.14,4.15,2.62,2.38-.73.59-2.2-2.73-2.62-2.38ZM43.88,9.25c-.55.4.44.75.88.38.13-.51-.78-.44-.88-.38ZM43.88,15c-.2.43.99.29,1.12.12,0-.22-.88-.1-1.12-.12ZM43.88,15.75c-1.07.8,1.24,4.32,1.12.12-.17-.17-1.05-.18-1.12-.12ZM42.38,17.75c-.26.19-.45,2.24.75,1.75.71-.29.42-2.63-.75-1.75ZM49.88,20.25c-.2.16-.43,3.01.5,2.5.66-.36.62-3.37-.5-2.5ZM19,85c.1,15.29-.39,30.89.38,46l.88-.62c-.23-13.04-.09-26.08-.25-39.12l.5-5.62v40.5l1.5-1c.62-13.76-.74-27.73-.25-41.38h.5c-.19,3.14.03,6.57,0,9.75-.09,11.22.09,22.42.25,33.62l1-13.62c.13,2.97-.51,6.03.12,9,.25-3.03.1-6.09.12-9.12.06-6.18,1.25-26.95-.25-33.12-.33-1.36-.79-.55-.88-.75s-.52-3.97-.38-4.12c.28-.31,1.03.06,1.25-.25.05-.08-.04-1.85-.12-1.88-2.62-.86-.84,4.33-1.38,5.38l-1-.38c-.1-2.62-.09-5.25-.25-7.88l-.88.62c-.12-.1-.05-3.76-1.12-2.12-.44.67.24,14.1.25,16.12ZM39.63,74.5l.25,71.75.62-71.62c-.13-.17-.8-.18-.88-.12ZM30.38,77.75c-.2.43.99.29,1.12.12,0-.22-.88-.1-1.12-.12ZM33.63,78.5c-.58.16-.08,1.75.5,1.25.28-.24.34-1.49-.5-1.25ZM30.63,79.5c-.57.4.24,1.14.88.62-.2-.22-.43-.94-.88-.62ZM24.13,80.75l.88.62.12,5.88c-.01-1.49,1.19-6.66-1-6.5ZM34.88,81c-.39.21-.06,1.06.5.75.39-.21.06-1.06-.5-.75ZM31.88,84.75c-.14.11-.64,3.28.75,2.75.84-.32.35-3.65-.75-2.75ZM31.5,128c.03,2.57-1.35,9.91,1.5,9.88.18-.25-.26-3.34-.25-3.88.13-12.34-.1-24.73.25-37.12-1.9-.92-1.19,2.29-1.25,3.62h-.25c-.02-4.56-.22-9.11,0-13.62-1.31-1.06-1.23,2.7-1.25,3.5-.2,7.69-1.01,30.71.25,37,.18.89.09.62,1,.62ZM28.88,87.25c.62,4.36-1.19,35.37-.12,36.88.18.26.81.07,1.12.12l-.62-31.88c1.24-.09,1.22-5.62-.38-5.12ZM36,130.25l.5-13.62,1-.25c.24.41-.28,5.3-.25,6.25,0,.25.18,2.47.75,2.38.02,1.25-.25,8.74,0,9.12.13.2.87.2,1,0-.34-11.85.45-23.79,0-35.62-.02-.61.13-3.55-.12-3.75-1.34-1.04-.69,4.2-1.62,2.62-.27-.46.3-4.27-.12-4.62-1.31-1.08.05,5.66-1.12,5.5-.02-2.87.02-5.75,0-8.62-.89-.38-.37,1.18-.5,1.5-.1.25-.7,0-.75.25-.25,1.19-.33,4.51,1,4.75l-1,.25v37.75l1.25,1c.02-1.62-.02-3.25,0-4.88ZM45.38,90.5c-.69.44.54,1.17.88.62s-.52-.85-.88-.62ZM27.88,91.25l-.12,17.38.12,16.88c.49-11.36.07-22.86,0-34.25ZM41.13,91.25c-.17.13-.19.94-.12,1.12.65,1.87,1.68-2.33.12-1.12ZM42.63,91.25c-.19.07-.59.56-.25.75.99.56,1.71-1.3.25-.75ZM47.88,92.5c-.09-.03-.63.6-.25.75.46.18.51-.67.25-.75ZM48.88,94.25c-.22.11-.3.77.25.75.47-.02.53-1.15-.25-.75ZM49.75,120.5c.04-6.54.08-13.12,0-19.62,1.23-1.02.4-1.69.5-3l-.75.5c-.02,6.39-.03,12.77,0,19.12-.91,0-.82-.26-1,.62-.96,4.76.89,12.86,0,17.75-.07.36.13.88-.5.5-.53-11.1.71-22.86,0-33.88-.03-.53.02-1.09,0-1.62l-1.25.38c-.1-1.86.07-3.76,0-5.62-.58-.31-.73,2.02-.75,2.25-1.48,15.65,1.2,33.61,0,49.5,1.05.2.45,2.72,1.88,1.88.47-.28-.15-.84-.12-.88.15-.25,1.51-.86.38-1.12l-1.38.12c-.02-1.5.03-3,0-4.5,0-.1,0-.93,0-1,.06-1.43-.42-3.04.75-4l.12,2.38.5-2.5,1.38,1.12v-9.25c.81,1.56-.24,10,.25,10.75.13.2.87.2,1,0,.53-.8-.84-16.8,0-19.25l-1-.62ZM31.88,95.75c-.65.4.69.76,1.12.38.13-.55-1.05-.42-1.12-.38ZM43.88,96.75c-.34.25-.3,3.06.75,2.25.24-.19.58-3.25-.75-2.25ZM42.63,100c-1.81.56.75,33.57-.38,37.88l.88.12c.46-12.51.02-25.12.12-37.62.09-.43-.33-.47-.62-.38ZM40.88,102.75c-1.25.94.74,27.44-.12,31.38l1.12.12.12-31.38c-.13-.18-1.05-.18-1.12-.12ZM43.88,109.5c-1.07.87.56,24.39-.12,27.62.12.18.68.18.88.12,1.32-.35-.52-24.32.38-27.38-.11-.34-.95-.52-1.12-.38ZM53.38,120.5c-.15.06-.19,2.02.5,1.5.26-.19.35-1.86-.5-1.5ZM28.88,124.5c-.26.16.49,1.57-.12,2.12,1.97,1.05,1.6-3.03.12-2.12ZM27.13,131.25c-.54.39.43.76.62.38.18-.36-.44-.51-.62-.38ZM53.63,132.25s-.39.35-.38.38c.29.66,1.31-.51.38-.38ZM28.88,132.75c-.54.39.43.76.62.38.18-.36-.44-.51-.62-.38ZM53.38,134.25c-.26.13.22.5.25.5.72-.07.42-.65-.25-.5ZM53.38,135c-.54.39.43.76.62.38.18-.36-.44-.51-.62-.38ZM34.88,137.75c-.65.4.69.76,1.12.38.13-.55-1.05-.42-1.12-.38ZM36.63,139.75c-.08.03-.49.37-.25.5l1.12-.12c.11-.49-.65-.45-.88-.38ZM48.88,140.75c-.36.25-.16,1.7.5,1.25.36-.25.16-1.7-.5-1.25ZM43.88,142.75c-.58.44.06,2.2,1,1.5.58-.44-.06-2.2-1-1.5ZM40.88,143c-.65.4.69.76,1.12.38.13-.55-1.05-.42-1.12-.38ZM42.38,146c-.65.4.69.76,1.12.38.13-.55-1.05-.42-1.12-.38ZM49.88,147.75c-.44.34-.22,2.48,1,1.75l-.12-1.62c-.13-.17-.8-.18-.88-.12ZM21.38,195.5c-.14.37-.47,5.55.5,4.75.33-.27.24-4.22-.5-4.75ZM22.88,201.75c-.72.02-.83,2.86.25,2.5.65-.22.51-2.52-.25-2.5ZM34.88,209.5c-.54.39.43.76.62.38.18-.36-.44-.51-.62-.38ZM36.13,211.5c-.36.25-.16,1.7.5,1.25.36-.25.16-1.7-.5-1.25ZM31.88,213.25c-.93.59,1.12,1.16,1.12.38,0-.55-1.01-.45-1.12-.38ZM30.63,215c-.29.22-.31,1.19.5,1s.24-1.54-.5-1ZM45.38,218.25c-.38.29-.24,2.76.75,2,.38-.29.24-2.76-.75-2ZM42.63,220.5c-.88.3.3.97.88.12-.17-.17-.69-.19-.88-.12ZM41.13,220.75c-.41.11-.38.68,0,.75.99.19,1.31-1.09,0-.75ZM48.88,222c-.33.23-.22,1.99.5,1.5.33-.23.22-1.99-.5-1.5ZM52.88,233l.25,2.75c.63-.34.3-3.09-.25-2.75ZM52.63,236.25c-.7.14-.11.88.62.38.07-.44-.3-.44-.62-.38ZM43.88,237.75c-.3.25-.28,2.89.5,2.25.3-.25.28-2.89-.5-2.25Z"/>
        <path class="cls-8" d="M18.25,0l.5,207c.01,2.08.24,4.2.25,6.25.08,14.24-.05,28.52,0,42.75h-1.75v-38.12c-1.68-1.25.16,9.57-1.5,6.75v-20c-.8,2.58.22,5.69-.25,8.25-.07.36.13.88-.5.5l-.12-29.12-1.12,71.75H0V0h18.25ZM.63,37c.28,16.13-.75,32.35.25,48.5l.12-24.38-.38-24.12ZM8.13,50.25c-.04,12.5-.62,25-.25,37.5.79-12.47.29-25.02.25-37.5ZM12.63,53.5l-.12,29.88-.5-2.25.38,26.62c.48-6.53.34-13.08.38-19.62,0-.12,0-.62,0-.75.06-11.29.06-22.59-.12-33.88ZM5.38,70.5c-.11.39-.51,6.58.5,5.75.22-.18,0-5.19-.5-5.75ZM7.88,88.5c.06,1.32.08,2.68.25,4,.2,0,.38-3.75-.25-4ZM.88,165c-.36,15.8-.56,31.66-.25,47.5.79-15.81.29-31.68.25-47.5ZM12.88,183.75c-.05,6.55-.54,13.23.25,19.75.05-6.55.54-13.23-.25-19.75ZM5.63,189.75c.24,4.11-1.23,11.05-.38,14.88.07.3.05,1.1.62.62s-.61-13.63-.25-15.5ZM12.38,225.5c-.21,4.82-.21,9.68,0,14.5,0-4.8.53-9.73,0-14.5Z"/>
        <path class="cls-10" d="M187.75,0c-.67.73-.58,1.73-.5,2.62,1.96,21.64.6,48.01.5,70.38-.02,3.5.03,7,0,10.5-.05,5.3-.23,11.38-.5,15.88-.13,2.15.3,4.39-.25,6.5-.42-14.64.56-29.38,0-44,0-.23-.74-.02-.75-.25-.19-4.61.24-9.26-.12-13.88l-.38,38.12c-.17.45-.95.32-1,.5-.68,2.65.51,8.27,0,11.25l-.5-13.12V0h3.5Z"/>
        <path class="cls-8" d="M148.25,256h-6.5c-.52-1.67.02-3.29,0-4.88,0-.76,0-1.82,0-2.75-.03-4.75-1.17-16.09-.25-20,.07-.29.63-.79,1-.25l.38-44.62c.66,10.16-.26,20.51.12,30.62,0,.23.74.02.75.25.06,1.61-.21,12.69.38,13.12l.62-.38.75-27.25.75,42,.75.25-.25-33.25.75-.25c1.14,15.62-.64,31.84.75,47.38Z"/>
        <rect class="cls-8" x="55.5" y="0" width=".75" height="256"/>
        <polygon class="cls-8" points="184.25 0 184.25 84.5 184.25 256 183.5 256 183.5 0 184.25 0"/>
        <path class="cls-9" d="M22.25,240.25c1.6-.4.5-2.93.5-3.88,0-.19.5-.06.5-.25s-.5-.06-.5-.25c-.09-4.31.32-8.7.25-13-.01-.72.18-.98-.75-.88.02-1.75-.14-13.53.25-14.12.79-1.19,1.18,1.28,1.25,1.75,1.35,9.61.03,27.03,0,37,0,3.12.04,6.27,0,9.38h-1.75v-4.12l-1.5.38c-.14-13.12.1-26.25,0-39.38l-.5,4.62c-.02-1.01.61-4.67-1-4.25-.01-2.05-.24-4.17-.25-6.25-.02-4.13.08-8.27,0-12.38,1.21-2.71.88,4.95,1,5.25l1-.25c.34,2.72.03,5.54.25,8.25.04.43.99.85,1,1,.2,2.56-1.22,6.2,0,8.5l.25,22.88Z"/>
        <path class="cls-8" d="M17.25,256h-3.5l1.12-71.75.12,29.12c.63.38.43-.14.5-.5.47-2.56-.55-5.67.25-8.25v20c1.66,2.82-.18-8,1.5-6.75v38.12Z"/>
        <path class="cls-6" d="M105.5,0c.22,11.05.02,22.17,0,33.25-.91.89-.5,3.3-.5,4.5h-.75c.01-7.71.14-17.31-.5-24.88-.02-.25-.21-2.03-.75-1.88.03-3.67.11-7.33.25-11h2.25Z"/>
        <path class="cls-9" d="M33,256h-1.75c-.21-3.95.8-9.35.25-13.12-.1-.66-.99-.66-1-.75-.36-3.3-.59-21.62,0-24.25.07-.3.03-1.07.62-.62s.13,11.62.38,13.12c.83-1.06-.59-6.5,1.5-5.25v30.88Z"/>
        <path class="cls-7" d="M101.25,0l-.12,64.25C99.4,42.87,100.68,21.32,100.75,0h.5Z"/>
        <path class="cls-7" d="M229.25,0l-.12,60.75c-.49.02-.85-8.76-.88-9.62C227.68,34.1,228.96,17.01,228.5,0h.75Z"/>
        <path class="cls-9" d="M40.5,256h-1l-.25-33.25c.04-2.18-.3-19.05.25-19.88.14-.2.86-.2,1,0v53.12Z"/>
        <path class="cls-9" d="M161.25,256h-2.75c.56-3.95-.75-10.2,0-13.88.03-.14.97-.36,1-.5.52-2.53-.39-6.77,0-9.5.09,1.26.6,6.68,1.25,2.25.59-4.04-.54-8.6.38-12.62l.12,34.25Z"/>
        <path class="cls-9" d="M46.75,229.25c0,.32-.07,5.92.75,3.62.15-.41-.39-1.47.5-1.38.34,8.15-.15,16.34,0,24.5h-2c.73-9.35-.97-20.2,0-29.38.02-.19.19-2.39.75-2,.03,1.54-.05,3.09,0,4.62Z"/>
        <path class="cls-10" d="M34.25,256h-1c-.07-18.15.05-36.31.25-54.38l.88-.12-.12,54.5Z"/>
        <path class="cls-7" d="M106,0c.1,22.75,1.26,45.73-.25,68.38-.34-6.62-.22-13.25-.25-19.88-.02-5.08,0-10.17,0-15.25.02-11.08.22-22.2,0-33.25h.5Z"/>
        <path class="cls-9" d="M29.75,256h-1l.38-40.75c1.54,1.29.26.42.12.88-.37,1.28,1.98,1.64,0,2.25l.5,37.62Z"/>
        <path class="cls-9" d="M20,217.5c.28,12.83-.15,25.69.25,38.5h-1.25c-.05-14.23.08-28.51,0-42.75,1.61-.42.98,3.24,1,4.25Z"/>
        <path class="cls-9" d="M36,256h-1.25v-34.88c1.44-.02.17-1.38,1.12-1.88l.12,36.75Z"/>
        <path class="cls-10" d="M43.5,256h-2.75v-1l1.25-.38c-.05-4.61.05-9.27,0-13.88.84-1.34-.13-11.65.25-12.12.16-.2.86-.21,1,0,.75,1.14-.48,23.95.25,27.38Z"/>
        <path class="cls-10" d="M50.75,0v13.38c-.17.32-.8.59-1,.25-.53-.94.41-10.85,0-12.75-.89,2.85.34,6.45-.25,9.25-.02.09-1.84.44,0,1l-.75.5c1.48-.4.68,5.43,0,3.5-.14-.39-.7-4.73-.75-5.38C47.77,6.55,48.17,3.21,48,0h2.75Z"/>
        <path class="cls-9" d="M158,256h-1.25v-25.12c.72.96.83-.42,1.12-.12.9.89-.52,22.26.12,25.25Z"/>
        <path class="cls-9" d="M38,256h-1.5c.52-2.89-.68-22.59,0-23.62.16-.25.63-.08.88-.12l.62,23.75Z"/>
        <polygon class="cls-9" points="45.25 256 43.75 256 44.38 241 45.5 242.13 45.25 256"/>
        <path class="cls-9" d="M176,256h-1.25c.43-1.99-.56-12.65,0-13.62.16-.29.9.03,1-.25.15-.41-.22-6.37.12-6.38l.12,20.25Z"/>
        <path class="cls-9" d="M168.5,0v18.88c-.13.17-.8.18-.88.12-.75-.58.31-16.74-.12-19h1Z"/>
        <path class="cls-9" d="M40.5,0c-.83,4.21,1.1,14.37,0,17.88-.05.15-.79.9-1,.5-.03-1.37.04-2.76,0-4.12C39.37,9.51,39.59,4.74,39.5,0h1Z"/>
        <path class="cls-10" d="M20.5,252.25c.01,1.25-.15,2.53.25,3.75h-.5c-.4-12.81.03-25.67-.25-38.5l.5-4.62c.1,13.12-.14,26.26,0,39.38Z"/>
        <path class="cls-9" d="M168.5,256h-1v-13c.74.17.37-.87.75-.12,1.02,1.98-.25,10.42.25,13.12Z"/>
        <path class="cls-9" d="M167,256h-1c.42-4.33-.48-9.1-.25-13.38.07-1.25.95-2.81,1-3.88l.25,17.25Z"/>
        <path class="cls-9" d="M48,0c.17,3.21-.23,6.55,0,9.75-1.27.65.5,3.53-1.25,3.38V0h1.25Z"/>
        <path class="cls-10" d="M39.5,0c.09,4.74-.13,9.51,0,14.25l-.5-2.62-1,1c-.64-1.27.98-2.11,1-2.25.03-.2.12-3.84,0-4-.21-.29-.84.04-1-.25-.07-.12-.06-2.63,0-2.75.15-.28.96.02,1-.25.05-.29-.69.29-1-.62C39.62,2.85,38.84,1.12,39,0h.5Z"/>
        <path class="cls-10" d="M39.5,256h-.5v-14.5c0-5.91-.09-11.86,0-17.75,0-.61.25-.95.25-1l.25,33.25Z"/>
        <polygon class="cls-8" points="28.25 256 27.75 256 27.88 219 28.25 256"/>
        <path class="cls-10" d="M37.5,0c-.54,1.43,1.12,7.68-1.38,4.75.22,2.31-1.99,1.86-1.38.12.09-.25.75-.02.75-.25,0-.13-1.51-.43-.75-2.12,1.67-.32.58.99,1.25,1.62V0h1.5Z"/>
        <polygon class="cls-8" points="156.25 256 155.75 256 155.88 218 156.25 256"/>
        <path class="cls-10" d="M43.5,0c-.71,1.47.31,9.81-.25,10.38-.24.24-.59.09-.88.12L42.25,0h1.25Z"/>
        <path class="cls-10" d="M167.5,243v13h-.5l-.25-17.25c.25-5.12.13-10.26.5-15.38-.16,6.55.25,13.09.25,19.62Z"/>
        <path class="cls-10" d="M42,0c-.22.55.63,8.19-1.12,6.75-.49-.4.22-5.69-.12-6.75h1.25Z"/>
        <path class="cls-9" d="M45,0c-.48.85.21,5.9,0,6.12C43.14,8.16,43.87.81,43.75,0h1.25Z"/>
        <path class="cls-10" d="M22,256h-1.25c-.4-1.22-.24-2.5-.25-3.75l1.5-.38v4.12Z"/>
        <path class="cls-9" d="M36,0v4.12c-.67-.63.42-1.95-1.25-1.62.22-.49,1.01-.1,1-.38,0-.15-1.63.03-1-2.12h1.25Z"/>
        <path class="cls-9" d="M39,0c-.16,1.12.62,2.85-1,2.5-.18-.54.13-1.84,0-2.5h1Z"/>
        <polygon class="cls-10" points="54 0 53.38 .5 53.5 0 54 0"/>
        <path class="cls-9" d="M73.25,64.25c0-6.63-.23-13.34-.25-20-.01-5.27-.32-10.67-.25-15.88.01-1,.13-7.14.25-7.5.17-.52.24-.52.75-.25.52,8.98.1,18,.25,27,0,.19.5.06.5.25.18,11.16-.13,22.34,0,33.5l-1.25-17.12Z"/>
        <path class="cls-7" d="M95.38,10c.64-.04.84,1.5.88,1.88.53,5.51.19,13.21.25,19,.13,11.72-.07,23.43-.62,35.12l-.5-56Z"/>
        <path class="cls-7" d="M95.63,138c.6-.12.52.18.62.62.76,3.32.22,16.12.25,20.5.09,11.63-.08,23.26-.62,34.88-1.39-18.61-.96-37.36-.25-56Z"/>
        <path class="cls-9" d="M73.25,192.75c0-6.73-.24-13.51-.25-20.25,0-2.88-.69-22.9,0-23.88.15-.2,1.1-.2,1.25,0l.25,60.75-1.25-16.62Z"/>
        <path class="cls-7" d="M101.13,133.75c.17,12.1.76,24.31.62,36.38-.06,5.71-.16,11.5-.88,17.12-.77-10.91-.8-21.93-.62-32.88.11-6.9.23-13.8.88-20.62Z"/>
        <path class="cls-7" d="M104.25,37.75c-.01,7.31-.52,14.58-.5,21.88l-.75.25c-.35-16.3-.12-32.57,0-48.88.54-.16.73,1.62.75,1.88.64,7.56.51,17.17.5,24.88Z"/>
        <path class="cls-7" d="M103.13,139.75c.57-.05.58,1,.62,1.38.6,4.92.42,12.8.5,18,.14,9.71-.3,19.43-.62,29.12l-.5-48.5Z"/>
        <path class="cls-7" d="M105.5,175.25c-.02-4.74-.01-9.5,0-14.25.03-10.29-.03-20.59.25-30.88,1.07,21.97.63,44.03.5,66l-.5.25c-.28-7.04-.21-14.07-.25-21.12Z"/>
        <path class="cls-7" d="M98.63,143c.18,11.93.75,23.95.38,35.88-.06,1.82.07,6.35-.25,7.75-.11.47.2.73-.62.62-.14-12.67-1-25.99-.38-38.62.09-1.73.04-4.35.88-5.62Z"/>
        <path class="cls-7" d="M98.63,16c.19,11.6.71,23.26.38,34.88-.05,1.87.07,6.56-.25,8-.11.47.2.73-.62.62,0-12.75-1.16-26.44-.38-39.12.08-1.21.04-3.72.88-4.38Z"/>
        <path class="cls-8" d="M146.88,72c.08-.06.77-.04.88.12.29.45.23,9.35.25,10.75.19,11.6-.52,23.27-.38,34.88l-.75-45.75Z"/>
        <polygon class="cls-9" points="62.63 51.75 64 51.88 63.63 86.25 62.5 86.13 62.63 51.75"/>
        <path class="cls-6" d="M118.88,23.75c.45,20.05.66,40.17,0,60.25-.75-20.05-.3-40.18,0-60.25Z"/>
        <path class="cls-6" d="M118.88,154.25c.54,18.89.6,37.85,0,56.75-.71-18.88-.36-37.86,0-56.75Z"/>
        <polygon class="cls-6" points="82.63 151.5 83 179.13 82.88 207.25 82.5 179.63 82.63 151.5"/>
        <polygon class="cls-7" points="87.63 159.5 88.25 161.13 87.88 202.5 87.63 159.5"/>
        <path class="cls-6" d="M82.63,25.5c.79,17.97.29,36.01.25,54-.79-17.97-.29-36.01-.25-54Z"/>
        <path class="cls-10" d="M67.88,41c.04,16.49.54,33.03-.25,49.5-.43-8.01-.13-16.08-.12-24.12,0-8.45-.6-16.97.38-25.38Z"/>
        <path class="cls-6" d="M111.38,24.75l-.25,50c-.59-16.65-.34-33.35.25-50Z"/>
        <path class="cls-7" d="M87.63,33.75c.27-.22.83.11.62.62l-.38,40.12-.25-40.75Z"/>
        <path class="cls-10" d="M67.88,169c.04,16.49.54,33.03-.25,49.5-.3-8.19-.13-16.42-.12-24.62s-.5-16.61.38-24.88Z"/>
        <path class="cls-6" d="M116.13,26.25c.79,17.14.29,34.35.25,51.5l-.38-25.88.12-25.62Z"/>
        <path class="cls-10" d="M75.38,27c.37,16.29.55,32.66.25,49-1.17-7.54-.39-15.25-.38-22.88.01-8.71-.11-17.42.12-26.12Z"/>
        <path class="cls-6" d="M116.13,160c.79,15.47.29,31.01.25,46.5-.79-15.47-.29-31.01-.25-46.5Z"/>
        <path class="cls-10" d="M73.25,64.25c0,7.83.97,24.88-.25,31.62-.07.36.13.88-.5.5l.5-52.12c.02,6.66.25,13.37.25,20Z"/>
        <path class="cls-9" d="M79.63,27.75c.28,17.77.79,35.69,0,53.5l-.12-26.62.12-26.88Z"/>
        <path class="cls-6" d="M126.13,173.75c.79,14.22.29,28.52.25,42.75-.79-14.22-.29-28.52-.25-42.75Z"/>
        <path class="cls-10" d="M73.25,192.75c0,7.61.94,24.33-.25,30.88-.07.36.13.88-.5.5l.5-51.62c.01,6.74.25,13.52.25,20.25Z"/>
        <path class="cls-6" d="M126.13,45.25c.79,14.05.29,28.18.25,42.25-.79-14.05-.29-28.18-.25-42.25Z"/>
        <path class="cls-6" d="M128.63,39.5l.38,23.12-.12,23.62c-.98-15.56,0-31.21-.25-46.75Z"/>
        <path class="cls-9" d="M79.63,159.75c.34,16.38.78,32.88,0,49.25-.21-16.41-.21-32.84,0-49.25Z"/>
        <path class="cls-6" d="M128.88,166.75c.04,15.4.54,30.86-.25,46.25-.24-15.41-.24-30.85.25-46.25Z"/>
        <path class="cls-10" d="M71.63,35.25c.27,20.12.41,40.13,0,60.25-.21-20.06-.21-40.18,0-60.25Z"/>
        <path class="cls-6" d="M133.63,187c-.12,10.75,1.02,21.57-.25,32.25l.25-32.25Z"/>
        <path class="cls-6" d="M85.13,47.5l.62,12.12-.38,11.88c-.79-7.95-.3-16.03-.25-24Z"/>
        <path class="cls-8" d="M140.88,55.75c.73,10.63.33,21.35.25,32-.75-10.63-.32-21.35-.25-32Z"/>
        <path class="cls-6" d="M85.13,176l.62,11.38-.38,11.12c-.79-7.44-.3-15.03-.25-22.5Z"/>
        <path class="cls-9" d="M156.88,101.75c.53,2.55.15.58,1.12.12-.23,1.45.35,11.52-.12,11.88-.07.05-1,.05-1.12-.12-.34-.48.17-10.4.12-11.88Z"/>
        <path class="cls-8" d="M150.38,95.5c.87,6.28.08,12.71.5,19l-.62-9.12.12-9.88Z"/>
        <path class="cls-8" d="M155.88,89.25c.16,12.23.29,24.55,0,36.75-.21-12.24-.21-24.51,0-36.75Z"/>
        <path class="cls-6" d="M133.63,57.5c-.5,2.5,1.06,20.33.25,21-.57.47-.56-.33-.62-.62-1.17-5.23.93-14.73.38-20.38Z"/>
        <path class="cls-8" d="M150.38,223.5c.7,5.85.44,11.89.25,17.75-.72-5.85-.34-11.86-.25-17.75Z"/>
        <path class="cls-14" d="M105.5,33.25c0,5.08-.02,10.17,0,15.25-.75.11-.48-.67-.5-1.12-.11-3.19,0-6.43,0-9.62,0-1.2-.41-3.61.5-4.5Z"/>
        <path class="cls-14" d="M105.5,161c-.01,4.75-.02,9.51,0,14.25v-14.25Z"/>
        <path class="cls-10" d="M153.13,87.5c.21,9.41.21,18.84,0,28.25-.21-9.41-.21-18.84,0-28.25Z"/>
        <path class="cls-9" d="M140.38,224.25c.37,5.3.09,10.69,0,16-.21-5.32-.21-10.68,0-16Z"/>
        <path class="cls-9" d="M140.38,97c.36,4.86.11,9.85,0,14.75-.21-4.9-.21-9.85,0-14.75Z"/>
        <path class="cls-9" d="M201.25,193.25c0-6.73-.22-13.51-.25-20.25-.04-7.67-.22-15.21,0-22.88h.75c.83,8.85-.5,18.19.25,27,.02.19.49.06.5.25.11,1.43-.58,4.48.75,4.75v41c-.74.37-.92.1-1.25-.5l-.75-29.38Z"/>
        <path class="cls-7" d="M223.38,7c.65-.54.87,2.4.88,2.62.29,7.57.2,15.85.25,23.5.08,11.03-.17,22.1-.62,33.12l-.5-59.25Z"/>
        <path class="cls-8" d="M203.75,73.5c.11-11.49.08-23.02-.25-34.5.45.23.74-1.02.75-1.12.3-3.13-.61-7.44-.25-10.75.03-.24.72-.01.75-.25.19-1.47-.54-3.99.5-5v62.25c-.61-10.09-.06-20.34-.25-30.5l-1.25,19.88Z"/>
        <path class="cls-7" d="M228.63,137.5c.78-.15.53.17.62.62.34,1.7.2,7.07.25,9.25.32,13.59.21,27.37-.62,40.88l-.25-50.75Z"/>
        <path class="cls-9" d="M190.63,45h1c.61,13.17,0,26.62,0,40-.31-.05-.94.13-1.12-.12-1.15-1.63.8-35.17.12-39.88Z"/>
        <path class="cls-7" d="M232,161.5c.08,5.82.28,11.66,0,17.5-.13,2.82-.41,5.68-.62,8.5-1.21-14.9-.48-29.93-.38-44.88.5-.49.74,1.39.75,1.5.67,5.48.17,11.8.25,17.38Z"/>
        <path class="cls-7" d="M232,33c.08,5.04.19,9.94,0,15-.14,3.79-.33,7.58-.5,11.38-.63.38-.43-.14-.5-.5-.33-1.81-.19-5.02-.25-7-.33-11.39.08-22.86.25-34.25l.75-.25c.13,5.21.16,10.42.25,15.62Z"/>
        <path class="cls-7" d="M226.13,144l.5,43.75c-.82.1-.52-.15-.62-.62-.76-3.4-.47-12.98-.5-17-.07-8.64.27-17.47.62-26.12Z"/>
        <path class="cls-7" d="M226.13,17l.5,42.5c-.82.1-.52-.15-.62-.62-.73-3.26-.47-12.64-.5-16.5-.07-8.41.27-16.97.62-25.38Z"/>
        <path class="cls-8" d="M205.13,148.5l-.12,30.38-1.12,1.62c0-4.45-.43-8.93-.38-13.38,0-.08.74-.25.75-.5.09-4.02-.47-8.2-.25-12.25,1.56-.6.28-4.16,1.12-5.88Z"/>
        <path class="cls-6" d="M246.88,23c.43,20.15.64,40.34,0,60.5-.78-20.16-.2-40.35,0-60.5Z"/>
        <path class="cls-6" d="M246.88,153.5c.4,19.15.68,38.34,0,57.5-.81-19.16-.18-38.34,0-57.5Z"/>
        <path class="cls-10" d="M195.88,38c.04,17.99.54,36.03-.25,54-.35-8.94-.13-17.92-.12-26.88s-.6-18.11.38-27.12Z"/>
        <path class="cls-10" d="M195.88,167.75c.04,17.4.54,34.86-.25,52.25-.31-8.59-.11-17.25-.12-25.88s-.64-17.65.38-26.38Z"/>
        <path class="cls-6" d="M210.88,152c.04,18.65.54,37.36-.25,56l-.12-27.88.38-28.12Z"/>
        <polygon class="cls-6" points="210.63 25.75 211 52.88 210.88 80.5 210.5 53.38 210.63 25.75"/>
        <path class="cls-7" d="M215.63,164l.62,19.38-.38,19.88c-.77-13.05-.31-26.18-.25-39.25Z"/>
        <path class="cls-10" d="M190.38,162.25l.12,38.88-.12,37.38c-.21-25.41-.21-50.84,0-76.25Z"/>
        <polygon class="cls-6" points="244.13 25.75 244.5 51.38 244.38 77.5 244 51.88 244.13 25.75"/>
        <path class="cls-10" d="M199.38,150.5l.38,35.88-.12,36.12c-.31-23.98.04-48.03-.25-72Z"/>
        <path class="cls-6" d="M254.13,40.25c.79,16.81.29,33.68.25,50.5-.79-16.81-.29-33.68-.25-50.5Z"/>
        <polygon class="cls-6" points="244.13 156 244.5 180.13 244.38 204.75 244 180.63 244.13 156"/>
        <path class="cls-6" d="M254.13,172.5c.79,15.22.29,30.51.25,45.75-.79-15.22-.29-30.51-.25-45.75Z"/>
        <path class="cls-10" d="M203.5,39c.33,11.48.36,23.01.25,34.5-.01,1.37,0,2.75,0,4.12l-.38-2.62-.38,2.38.5-38.38Z"/>
        <path class="cls-10" d="M201.25,193.25c0,8.7-.44,17.41-.25,26.12l-.75-.75c.23-14.75,1.16-30.22,0-44.5.97.28.12-.72.75-1.12.03,6.74.25,13.52.25,20.25Z"/>
        <path class="cls-6" d="M213.13,168c1.17,9.81.71,19.91.25,29.75-.79-9.88-.3-19.85-.25-29.75Z"/>
        <path class="cls-9" d="M207.38,155.25c.68.02.54.46.62.88.38,1.8-.29,9.83-.25,12.5,0,.11,0,.68,0,.75.03,1.24.49,2.83.5,3,.03.88-.51.58-.5.75.06.98.15,2.85.75,2.75l-.75.25c.36,8.75.15,17.47,0,26.25,0,.18.5.07.5.25,0,.3-.47.37-.5,1.5,0,.09,0,.61,0,.75-.06,2.46.15,4.93-.12,7.38l-.25-57Z"/>
        <path class="cls-7" d="M215.63,42.25c.27-.22.83.11.62.62l-.38,32.62c.29-4.14-1.53-32.19-.25-33.25Z"/>
        <path class="cls-10" d="M200.88,46.5c.46,14.83.32,29.66,0,44.5l-.12-21.88.12-22.62Z"/>
        <path class="cls-9" d="M207.63,27.25c.31,2.28.12,4.58.12,6.88,0,.2,0,.31,0,.5.03,15.99.54,31.92-.12,47.88V27.25Z"/>
        <path class="cls-6" d="M232,48c.19-5.06.08-9.96,0-15l1,.12c.18.64-.41,1.57.5,1.75-.66,1.83.53,13.78,0,14.25-.74.65-.11-1.79-1.5-1.12Z"/>
        <path class="cls-10" d="M199.63,33c.16,20.31.5,40.47,0,60.75-.21-20.21-.2-40.51,0-60.75Z"/>
        <path class="cls-10" d="M198.38,174.75l.12,43.12c-.73-.74-.25.37-1.12.62l1-43.75Z"/>
        <path class="cls-6" d="M232,179c.28-5.84.08-11.68,0-17.5l1,.38c-.58,5.03.75,11.66,0,16.5-.12.79-.23.66-1,.62Z"/>
        <path class="cls-6" d="M213.13,49.75l.62,10.38-.38,10.12c-.79-6.77-.3-13.7-.25-20.5Z"/>
        <path class="cls-8" d="M187.88,199c.57-.47.56.33.62.62.34,1.52.28,9.43.25,11.5,0,.36.11,2.07-.62,1.88-.68-.18-.79-13.55-.25-14Z"/>
        <path class="cls-9" d="M187.75,83.5c.03-3.5-.02-7,0-10.5.99-.11.69.19.75.88.15,1.63.23,3.62.25,5.25.01.97.58,4.83-1,4.38Z"/>
        <path class="cls-10" d="M204.88,218.75c.18,0,.21,1.95,0,2.25-.19,0-.19-2.25,0-2.25Z"/>
        <path class="cls-9" d="M46.75,101.25c.04.78-.03,1.59,0,2.38l1.25-1.12c.71,11.02-.53,22.78,0,33.88.63.38.43-.14.5-.5.89-4.89-.96-12.99,0-17.75.18-.89.09-.62,1-.62.01,3.54-.01,7.08,0,10.62.47-2.49.24-5.11.25-7.62l1,.62c-.84,2.45.53,18.45,0,19.25-.13.2-.87.2-1,0-.49-.75.56-9.19-.25-10.75v9.25l-1.38-1.12-.5,2.5-.12-2.38c-1.17.96-.69,2.57-.75,4,0,.07,0,.9,0,1,.03,1.5-.02,3,0,4.5l1.38-.12c1.13.27-.23.88-.38,1.12-.02.04.6.6.12.88-1.43.85-.83-1.68-1.88-1.88,1.2-15.89-1.48-33.85,0-49.5.02-.23.17-2.56.75-2.25.07,1.87-.1,3.76,0,5.62Z"/>
        <path class="cls-9" d="M21,78.25c.02.53-.1,2.69,0,2.88.12.22.7-.43,1,0,.07.11-.24,2.23-.25,2.62-.49,13.65.87,27.62.25,41.38l-1.5,1v-40.5l-.5,5.62c-.02-1.4.26-4.5,0-5.62-.2-.86-.04-.64-1-.62-.01-2.03-.69-15.45-.25-16.12,1.07-1.63,1,2.03,1.12,2.12l.88-.62c.16,2.62.15,5.26.25,7.88Z"/>
        <path class="cls-9" d="M39.63,74.5c.07-.06.74-.05.88.12l-.62,71.62-.25-71.75Z"/>
        <path class="cls-10" d="M39,98.5c-.97-.24-1.14.41-1.25,1.12-.85,5.48.17,19.14.25,25.38-.57.09-.74-2.13-.75-2.38-.03-.95.49-5.84.25-6.25l-1,.25-.5,13.62c.16-10.64.08-21.35,0-32,1.17.16-.18-6.58,1.12-5.5.43.35-.15,4.17.12,4.62.94,1.57.29-3.66,1.62-2.62.26.2.1,3.14.12,3.75Z"/>
        <path class="cls-9" d="M36,98.25c.08,10.65.16,21.36,0,32-.02,1.62.02,3.25,0,4.88l-1.25-1v-37.75l1-.25c-1.33-.24-1.25-3.56-1-4.75.05-.25.65,0,.75-.25.13-.32-.39-1.88.5-1.5.02,2.87-.02,5.75,0,8.62Z"/>
        <path class="cls-9" d="M20,91.25c.16,13.04.02,26.08.25,39.12l-.88.62c-.76-15.11-.28-30.71-.38-46,.96-.01.8-.24,1,.62.26,1.12-.02,4.22,0,5.62Z"/>
        <path class="cls-9" d="M28.88,87.25c1.59-.49,1.62,5.03.38,5.12l.62,31.88c-.31-.05-.94.13-1.12-.12-1.06-1.51.74-32.52.12-36.88Z"/>
        <path class="cls-9" d="M23.5,80.25c1.5,6.18.31,26.95.25,33.12-.03,3.04.12,6.09-.12,9.12-.63-2.97,0-6.03-.12-9-.23-4.96-1.48-10.97-.5-16.38l-.75-3.62c.03-3.18-.19-6.61,0-9.75.05-.82-.1-3.99,1.25-3.5Z"/>
        <path class="cls-10" d="M32.75,134l-1-.62c.35-10.92-.46-21.96,0-32.88.06-1.34-.65-4.55,1.25-3.62-.35,12.4-.12,24.78-.25,37.12Z"/>
        <path class="cls-9" d="M31.5,100.5c.04,9.21-.11,18.35,0,27.5-.91,0-.82.26-1-.62-1.26-6.29-.45-29.31-.25-37,.02-.8-.06-4.56,1.25-3.5-.22,4.52-.02,9.07,0,13.62Z"/>
        <path class="cls-10" d="M40.88,102.75c.07-.05,1-.05,1.12.12l-.12,31.38-1.12-.12c.87-3.94-1.13-30.43.12-31.38Z"/>
        <path class="cls-10" d="M42.63,100c.29-.09.71-.05.62.38-.11,12.51.33,25.11-.12,37.62l-.88-.12c1.13-4.3-1.43-37.31.38-37.88Z"/>
        <path class="cls-9" d="M39,98.5c.45,11.84-.34,23.78,0,35.62-.13.2-.87.2-1,0-.25-.38.02-7.87,0-9.12-.08-6.24-1.1-19.89-.25-25.38.11-.72.28-1.36,1.25-1.12Z"/>
        <path class="cls-9" d="M43.88,109.5c.18-.15,1.01.04,1.12.38-.9,3.05.95,27.03-.38,27.38-.2.05-.76.05-.88-.12.69-3.23-.94-26.75.12-27.62Z"/>
        <path class="cls-9" d="M42,240.75c.05,4.61-.05,9.27,0,13.88l-1.25.38c0-8.13.07-16.24,0-24.38.15-.2,1.1-.2,1.25,0,.29.41-.01,8.63,0,10.12Z"/>
        <path class="cls-8" d="M23.5,113.5l-1,13.62c-.16-11.2-.34-22.4-.25-33.62l.75,3.62c-.98,5.41.27,11.41.5,16.38Z"/>
        <path class="cls-10" d="M39,223.75c-.09,5.89,0,11.84,0,17.75-.96.01-.8.24-1-.62-1-4.22.75-11.92-.25-16.5l1.25-.62Z"/>
        <path class="cls-10" d="M32.75,134c0,.54.43,3.63.25,3.88-2.85.04-1.47-7.31-1.5-9.88-.11-9.15.04-18.29,0-27.5h.25c-.46,10.92.35,21.95,0,32.88l1,.62Z"/>
        <path class="cls-8" d="M22.25,240.25c.05-6.08-.07-12.17,0-18.25.93-.11.74.16.75.88.07,4.3-.34,8.69-.25,13,0,.19.5.06.5.25s-.5.06-.5.25c0,.95,1.1,3.47-.5,3.88Z"/>
        <path class="cls-10" d="M23.5,80.25c-1.35-.49-1.2,2.68-1.25,3.5h-.5c.01-.39.32-2.52.25-2.62-.3-.43-.88.22-1,0-.1-.19.02-2.34,0-2.88l1,.38c.54-1.04-1.25-6.23,1.38-5.38.09.03.18,1.8.12,1.88-.22.31-.97-.06-1.25.25-.14.15.29,3.93.38,4.12.09.2.54-.61.88.75Z"/>
        <path class="cls-8" d="M27.88,91.25c.07,11.39.49,22.89,0,34.25l-.12-16.88.12-17.38Z"/>
        <path class="cls-10" d="M49.75,120.5c-.01,2.52.22,5.14-.25,7.62-.01-3.54.01-7.09,0-10.62-.03-6.36-.02-12.74,0-19.12l.75-.5c-.1,1.31.73,1.98-.5,3,.08,6.5.04,13.09,0,19.62Z"/>
        <path class="cls-10" d="M48,231.5c-.89-.09-.35.97-.5,1.38-.82,2.29-.74-3.3-.75-3.62l1.25-.38c.39.94-.53,1.41-.5,2,.01.2.47-.14.5.62Z"/>
        <path class="cls-10" d="M31.88,84.75c1.1-.9,1.59,2.43.75,2.75-1.39.53-.89-2.64-.75-2.75Z"/>
        <path class="cls-10" d="M21.38,195.5c.74.53.83,4.48.5,4.75-.97.8-.64-4.38-.5-4.75Z"/>
        <path class="cls-10" d="M34.88,9.25c.42-.36,1.9,2.96,2.62,2.38-1.49,1.77-3.31-1.8-2.62-2.38Z"/>
        <path class="cls-10" d="M43.88,6.5c.99-.84,1.53,2.21.75,2.5-1.35.51-.92-2.36-.75-2.5Z"/>
        <path class="cls-10" d="M24.13,80.75c2.19-.16.99,5.01,1,6.5l-.12-5.88-.88-.62Z"/>
        <path class="cls-10" d="M48,102.5l-1.25,1.12c-.03-.79.04-1.59,0-2.38l1.25-.38c.02.54-.03,1.09,0,1.62Z"/>
        <path class="cls-10" d="M28.88,124.5c1.47-.9,1.84,3.18-.12,2.12.61-.55-.14-1.97.12-2.12Z"/>
        <path class="cls-10" d="M22.88,201.75c.76-.02.9,2.28.25,2.5-1.08.36-.97-2.48-.25-2.5Z"/>
        <path class="cls-10" d="M49.88,20.25c1.12-.87,1.16,2.14.5,2.5-.93.51-.7-2.34-.5-2.5Z"/>
        <path class="cls-10" d="M43.88,15.75c.08-.06.95-.05,1.12.12.11,4.2-2.19.68-1.12-.12Z"/>
        <path class="cls-10" d="M43.88,96.75c1.33-1,.99,2.06.75,2.25-1.05.81-1.09-2-.75-2.25Z"/>
        <path class="cls-10" d="M42.38,17.75c1.17-.88,1.46,1.46.75,1.75-1.2.49-1.01-1.56-.75-1.75Z"/>
        <path class="cls-10" d="M45.38,218.25c.99-.76,1.13,1.71.75,2-.99.76-1.13-1.71-.75-2Z"/>
        <path class="cls-10" d="M43.88,142.75c.94-.7,1.58,1.06,1,1.5-.94.7-1.58-1.06-1-1.5Z"/>
        <path class="cls-10" d="M49.88,147.75c.07-.06.74-.05.88.12l.12,1.62c-1.22.73-1.44-1.41-1-1.75Z"/>
        <path class="cls-10" d="M52.88,233c.55-.34.88,2.41.25,2.75l-.25-2.75Z"/>
        <path class="cls-10" d="M43.88,237.75c.78-.64.8,2,.5,2.25-.78.64-.8-2-.5-2.25Z"/>
        <path class="cls-10" d="M41.13,91.25c1.55-1.21.52,3-.12,1.12-.06-.19-.05-.99.12-1.12Z"/>
        <path class="cls-10" d="M48.88,222c.72-.49.83,1.27.5,1.5-.72.49-.83-1.27-.5-1.5Z"/>
        <path class="cls-10" d="M53.38,120.5c.85-.36.76,1.31.5,1.5-.69.52-.65-1.44-.5-1.5Z"/>
        <path class="cls-10" d="M33.63,78.5c.84-.24.78,1.01.5,1.25-.58.5-1.08-1.09-.5-1.25Z"/>
        <path class="cls-10" d="M36.13,211.5c.66-.45.86,1,.5,1.25-.66.45-.86-1-.5-1.25Z"/>
        <path class="cls-10" d="M30.63,215c.74-.54,1.3.81.5,1s-.79-.78-.5-1Z"/>
        <path class="cls-10" d="M48.88,140.75c.66-.45.86,1,.5,1.25-.66.45-.86-1-.5-1.25Z"/>
        <path class="cls-10" d="M31.88,213.25c.12-.08,1.13-.18,1.12.38,0,.79-2.06.22-1.12-.38Z"/>
        <path class="cls-10" d="M42.63,91.25c1.46-.55.74,1.31-.25.75-.34-.19.06-.68.25-.75Z"/>
        <path class="cls-10" d="M28.88,4.5c.61-.38.88.76.5,1-.61.38-.88-.76-.5-1Z"/>
        <path class="cls-10" d="M41.13,220.75c1.31-.34.99.94,0,.75-.38-.07-.41-.64,0-.75Z"/>
        <path class="cls-10" d="M45.38,90.5c.35-.23,1.19.1.88.62s-1.57-.18-.88-.62Z"/>
        <path class="cls-10" d="M42.38,146c.08-.05,1.25-.17,1.12.38-.44.38-1.77.03-1.12-.38Z"/>
        <path class="cls-10" d="M31.88,95.75c.08-.05,1.25-.17,1.12.38-.44.38-1.77.03-1.12-.38Z"/>
        <path class="cls-10" d="M30.63,79.5c.45-.31.68.4.88.62-.64.52-1.45-.23-.88-.62Z"/>
        <path class="cls-10" d="M34.88,137.75c.08-.05,1.25-.17,1.12.38-.44.38-1.77.03-1.12-.38Z"/>
        <path class="cls-10" d="M40.88,143c.08-.05,1.25-.17,1.12.38-.44.38-1.77.03-1.12-.38Z"/>
        <path class="cls-10" d="M34.88,81c.56-.31.89.54.5.75-.56.31-.89-.54-.5-.75Z"/>
        <path class="cls-10" d="M24.88,3.5c.56-.31.89.54.5.75-.56.31-.89-.54-.5-.75Z"/>
        <path class="cls-10" d="M36.63,139.75c.23-.08.98-.12.88.38l-1.12.12c-.24-.13.17-.47.25-.5Z"/>
        <path class="cls-10" d="M48.88,94.25c.78-.4.72.73.25.75-.55.02-.47-.64-.25-.75Z"/>
        <path class="cls-10" d="M42.63,220.5c.18-.06.71-.05.88.12-.58.84-1.76.17-.88-.12Z"/>
        <path class="cls-10" d="M43.88,9.25c.1-.07,1-.13.88.38-.43.37-1.43.02-.88-.38Z"/>
        <path class="cls-10" d="M52.63,236.25c.33-.07.7-.07.62.38-.74.51-1.33-.23-.62-.38Z"/>
        <path class="cls-10" d="M28.88,132.75c.18-.13.81.02.62.38-.2.39-1.16.01-.62-.38Z"/>
        <path class="cls-10" d="M53.38,135c.18-.13.81.02.62.38-.2.39-1.16.01-.62-.38Z"/>
        <path class="cls-10" d="M27.13,131.25c.18-.13.81.02.62.38-.2.39-1.16.01-.62-.38Z"/>
        <path class="cls-10" d="M34.88,209.5c.18-.13.81.02.62.38-.2.39-1.16.01-.62-.38Z"/>
        <path class="cls-10" d="M53.38,6.75c.18-.13.81.02.62.38-.2.39-1.16.01-.62-.38Z"/>
        <path class="cls-10" d="M43.88,15c.25.03,1.12-.09,1.12.12-.14.17-1.32.31-1.12-.12Z"/>
        <path class="cls-10" d="M53.38,134.25c.67-.15.97.43.25.5-.03,0-.51-.37-.25-.5Z"/>
        <path class="cls-10" d="M30.38,77.75c.25.03,1.12-.09,1.12.12-.14.17-1.32.31-1.12-.12Z"/>
        <path class="cls-10" d="M53.63,132.25c.94-.13-.08,1.04-.38.38-.01-.02.35-.37.38-.38Z"/>
        <path class="cls-10" d="M47.88,92.5c.26.08.21.93-.25.75-.38-.15.16-.78.25-.75Z"/>
        <path class="cls-6" d="M.63,37l.38,24.12-.12,24.38c-1-16.15.03-32.37-.25-48.5Z"/>
        <path class="cls-6" d="M.88,165c.04,15.82.54,31.69-.25,47.5-.31-15.84-.11-31.7.25-47.5Z"/>
        <path class="cls-9" d="M12.63,53.5c.19,11.29.18,22.59.12,33.88,0,.13,0,.63,0,.75-.04,6.55.11,13.09-.38,19.62l-.38-26.62.5,2.25.12-29.88Z"/>
        <path class="cls-6" d="M8.13,50.25c.04,12.48.54,25.03-.25,37.5-.37-12.5.21-25,.25-37.5Z"/>
        <path class="cls-8" d="M12.88,183.75c.79,6.52.3,13.2.25,19.75-.79-6.52-.3-13.2-.25-19.75Z"/>
        <path class="cls-6" d="M5.63,189.75c-.36,1.87.85,15.01.25,15.5s-.56-.33-.62-.62c-.86-3.82.61-10.76.38-14.88Z"/>
        <path class="cls-9" d="M12.38,225.5c.53,4.77,0,9.7,0,14.5-.21-4.82-.21-9.68,0-14.5Z"/>
        <path class="cls-6" d="M5.38,70.5c.5.56.72,5.57.5,5.75-1.01.83-.61-5.36-.5-5.75Z"/>
        <path class="cls-6" d="M7.88,88.5c.63.25.45,4,.25,4-.17-1.32-.19-2.68-.25-4Z"/>
      </g>
    </pattern>
  </defs>
  <g id="MATERIAL_ICONS" data-name="MATERIAL ICONS">
    <g id="STEEL">
      <g class="cls-13">
        <g class="cls-12">
          <polygon class="cls-4" points="50.29 229.86 .23 72.36 227.18 .23 277.24 157.74 50.29 229.86"/>
        </g>
      </g>
      <g>
        <g>
          <path class="cls-3" d="M152.64,73.87l-14.94-2.06-89.13,11.99-.14,7.88,10.7,2.3.26,27.56-11.64-2.11v5.76l30.97,6.4M214.68,171.95l30.82-6.55,2.42-6.97-11.33,2.82,7.74-24.64,11.37-1.81,2.61-7.63-97.46-54.35M225.77,131.26l-97.44-54.4-1.54,7.68,96.54,54.81,2.27-8.16,32.53-3.95M48.63,83.87l29.78,4.65,48.97-7.13M135.38,89.39l-4.04,15.04,95.92,58.46,7.22-25.26-11.04,1.6M117.96,114.23l2.02-7.77,11.27-2.01M132.34,87.77l-53.93,9.05-5.22-.83-5.13-.91.52,28.33,50.22-12.55M217.46,164.61l-97.72-58.13M68.51,123.4l10.19,2.05,40.16-10.88M78.7,125.5l-.1,6.1,27.05-7.61,19.51-5.55M134.47,123.88l-40.11,12.52M142.04,128.48l-48.09,16.32-8.27-1.89-2.81-.59-.28,23.58M74.61,163.25l.14-22.39-20.94-4.7h0l-.13,20.62,20.94,6.47ZM163.26,141.01l-68.01,29.07-.22,8.26,74.61-33.38"/>
          <polyline class="cls-3" points="93.94 144.8 94.47 136.42 34.75 123.81 34.59 130.93 45.18 133.89 45.18 153.93 34.74 150.62 34.66 157.75 95.07 178.38"/>
        </g>
        <line class="cls-1" x1="47.88" y1="119.45" x2="59.42" y2="117.28"/>
        <line class="cls-3" x1="34.84" y1="123.79" x2="47.71" y2="120.63"/>
        <line class="cls-3" x1="214.68" y1="171.87" x2="117.86" y2="113.99"/>
        <line class="cls-3" x1="78.41" y1="88.52" x2="78.41" y2="96.83"/>
        <polyline class="cls-3" points="227.27 162.83 217.34 164.73 214.7 172.15"/>
        <line class="cls-3" x1="247.76" y1="158.32" x2="239.21" y2="153.21"/>
        <line class="cls-3" x1="128.33" y1="76.87" x2="161.03" y2="72.86"/>
        <polyline class="cls-3" points="64.46 138.49 64.46 130.12 67.43 129.26"/>
        <polyline class="cls-3" points="63.28 167.57 63.28 159.8 74.61 155.01"/>
        <polyline class="cls-3" points="95.26 170.08 82.58 165.89 154 135.87"/>
        <line class="cls-3" x1="34.75" y1="150.62" x2="45.05" y2="146.79"/>
        <line class="cls-3" x1="53.67" y1="156.77" x2="74.72" y2="148.13"/>
      </g>
    </g>
  </g>
</svg>