<?xml version="1.0" encoding="UTF-8"?>
<svg id="Layer_2" data-name="Layer 2" xmlns="http://www.w3.org/2000/svg" viewBox="0 0 224.09 107.06">
  <defs>
    <style>
      .cls-1 {
        stroke-miterlimit: 10;
      }

      .cls-1, .cls-2 {
        fill: none;
        stroke: #000;
        stroke-width: .5px;
      }

      .cls-2 {
        stroke-linejoin: bevel;
      }
    </style>
  </defs>
  <g id="MATERIAL_ICONS" data-name="MATERIAL ICONS">
    <g id="STEEL">
      <g>
        <g>
          <path class="cls-2" d="M118.3,2.3L103.35.25,14.22,12.24l-.14,7.88,10.7,2.3.26,27.56-11.64-2.11v5.76l30.97,6.4M180.34,100.38l30.82-6.55,2.42-6.97-11.33,2.82,7.74-24.64,11.37-1.81,2.61-7.63L126.5,1.25M191.43,59.69L93.99,5.29l-1.54,7.68,96.54,54.81,2.27-8.16,32.53-3.95M14.29,12.3l29.78,4.65,48.97-7.13M101.04,17.82l-4.04,15.04,95.92,58.46,7.22-25.26-11.04,1.6M83.61,42.66l2.02-7.77,11.27-2.01M98,16.2l-53.93,9.05-5.22-.83-5.13-.91.52,28.33,50.22-12.55M183.11,93.04l-97.72-58.13M34.17,51.83l10.19,2.05,40.16-10.88M44.35,53.93l-.1,6.1,27.05-7.61,19.51-5.55M100.13,52.31l-40.11,12.52M107.69,56.91l-48.09,16.32-8.27-1.89-2.81-.59-.28,23.58M40.27,91.67l.14-22.39-20.94-4.7h0l-.13,20.62,20.94,6.47ZM128.92,69.44l-68.01,29.07-.22,8.26,74.61-33.38"/>
          <polyline class="cls-2" points="59.61 73.23 60.14 64.85 .41 52.24 .25 59.36 10.84 62.32 10.84 82.36 .41 79.06 .33 86.18 60.73 106.81"/>
        </g>
        <line class="cls-1" x1="13.54" y1="47.88" x2="25.08" y2="45.71"/>
        <line class="cls-2" x1=".5" y1="52.22" x2="13.37" y2="49.06"/>
        <line class="cls-2" x1="180.34" y1="100.3" x2="83.52" y2="42.42"/>
        <line class="cls-2" x1="44.07" y1="16.95" x2="44.07" y2="25.25"/>
        <polyline class="cls-2" points="192.93 91.26 183 93.16 180.35 100.58"/>
        <line class="cls-2" x1="213.41" y1="86.75" x2="204.87" y2="81.64"/>
        <line class="cls-2" x1="93.99" y1="5.29" x2="126.69" y2="1.28"/>
        <polyline class="cls-2" points="30.12 66.92 30.12 58.55 33.09 57.69"/>
        <polyline class="cls-2" points="28.93 96 28.93 88.23 40.27 83.44"/>
        <polyline class="cls-2" points="60.91 98.51 48.24 94.32 119.66 64.3"/>
        <line class="cls-2" x1=".4" y1="79.05" x2="10.71" y2="75.22"/>
        <line class="cls-2" x1="19.33" y1="85.2" x2="40.38" y2="76.55"/>
      </g>
    </g>
  </g>
</svg>