<svg xmlns="http://www.w3.org/2000/svg" fill="none" viewBox="0 0 32 32" width="32" height="32">
  <rect width="32" height="32" fill="#000"/>
  <path fill="#fff" d="M9.2 13.05H5.93V26H9.2V13.05ZM7.57 11.65c1.06 0 1.72-.73 1.72-1.64-.02-.93-.66-1.65-1.7-1.65s-1.72.72-1.72 1.65c0 .91.66 1.64 1.68 1.64h.02ZM12.18 26h3.28v-6.98c0-.37.03-.74.14-1.01.3-.74.97-1.51 2.1-1.51 1.48 0 2.07 1.14 2.07 2.8V26h3.28v-7.49c0-4.02-2.15-5.89-5.02-5.89-2.31 0-3.33 1.29-3.9 2.19h.03v-1.89h-3.28c.04 1.24 0 13.09 0 13.09z"/>
</svg>
