<!-- Generator: Adobe InDesign 21.1 SVG Export Plug-in, SVG Library version: 9.3 build 115 -->
<!DOCTYPE svg PUBLIC "-//W3C//DTD SVG 1.1//EN" "http://www.w3.org/Graphics/SVG/1.1/DTD/svg11.dtd">
<svg version="1.1" xmlns="http://www.w3.org/2000/svg" xmlns:xlink="http://www.w3.org/1999/xlink" x="0%" y="0%" width="100%"
	 height="100%" viewBox="0 0 185.717 151.043" preserveAspectRatio="xMidYMid slice" overflow="visible" xml:space="preserve">
<clipPath id="clp_unq_id_1" fill="none">
	<path shape-rendering="crispEdges" stroke="#000000" d="M0,0h185.717v151.043H0V0"/>
</clipPath>
<g clip-path="url(#clp_unq_id_1)" fill="none">
	<path fill="#000000" d="M128.592,33.812c-0.654,0-1.156-0.072-1.505-0.216v-0.374c0.386,0.164,0.878,0.245,1.476,0.245
		c0.439,0,0.788-0.101,1.046-0.302c0.258-0.201,0.386-0.466,0.386-0.793c0-0.203-0.043-0.37-0.128-0.504
		c-0.085-0.133-0.225-0.254-0.417-0.364c-0.193-0.11-0.476-0.228-0.85-0.355c-0.547-0.188-0.925-0.391-1.133-0.61
		c-0.209-0.218-0.313-0.51-0.313-0.873c0-0.4,0.157-0.727,0.471-0.98c0.314-0.253,0.717-0.379,1.21-0.379
		c0.503,0,0.975,0.095,1.417,0.286l-0.135,0.322c-0.444-0.186-0.869-0.278-1.274-0.278c-0.396,0-0.71,0.092-0.945,0.275
		c-0.234,0.183-0.352,0.432-0.352,0.747c0,0.198,0.036,0.36,0.108,0.487c0.072,0.127,0.19,0.241,0.353,0.342
		c0.164,0.101,0.444,0.223,0.842,0.364c0.418,0.144,0.731,0.284,0.941,0.419c0.21,0.135,0.363,0.289,0.46,0.461
		c0.096,0.172,0.145,0.38,0.145,0.624c0,0.447-0.164,0.801-0.493,1.062C129.572,33.681,129.136,33.812,128.592,33.812
		 M99.683,33.812c-0.62,0-1.104-0.174-1.452-0.522c-0.348-0.348-0.522-0.833-0.522-1.456v-3.45h0.377v3.464
		c0,0.515,0.143,0.916,0.428,1.203c0.286,0.287,0.69,0.43,1.212,0.43c0.51,0,0.906-0.141,1.187-0.423
		c0.281-0.282,0.421-0.673,0.421-1.174v-3.501h0.374v3.464c0,0.615-0.178,1.096-0.535,1.443
		C100.817,33.638,100.32,33.812,99.683,33.812 M72.342,33.812c-0.654,0-1.156-0.072-1.505-0.216v-0.374
		c0.386,0.164,0.878,0.245,1.476,0.245c0.439,0,0.788-0.101,1.046-0.302c0.258-0.201,0.386-0.466,0.386-0.793
		c0-0.203-0.043-0.37-0.128-0.504c-0.086-0.133-0.225-0.254-0.417-0.364c-0.193-0.11-0.476-0.228-0.85-0.355
		c-0.547-0.188-0.925-0.391-1.133-0.61c-0.209-0.218-0.313-0.51-0.313-0.873c0-0.4,0.157-0.727,0.471-0.98
		c0.314-0.253,0.717-0.379,1.21-0.379c0.503,0,0.975,0.095,1.417,0.286l-0.136,0.322c-0.444-0.186-0.869-0.278-1.274-0.278
		c-0.396,0-0.71,0.092-0.945,0.275c-0.234,0.183-0.352,0.432-0.352,0.747c0,0.198,0.036,0.36,0.108,0.487
		c0.072,0.127,0.19,0.241,0.353,0.342c0.164,0.101,0.444,0.223,0.842,0.364c0.417,0.144,0.731,0.284,0.941,0.419
		c0.21,0.135,0.363,0.289,0.46,0.461c0.096,0.172,0.145,0.38,0.145,0.624c0,0.447-0.164,0.801-0.493,1.062
		C73.323,33.681,72.887,33.812,72.342,33.812 M54.485,33.812c-0.745,0-1.329-0.247-1.754-0.742
		c-0.425-0.494-0.637-1.169-0.637-2.023c0-0.852,0.214-1.523,0.643-2.012c0.428-0.489,1.014-0.734,1.756-0.734
		c0.747,0,1.332,0.246,1.754,0.738c0.422,0.492,0.634,1.164,0.634,2.016c0,0.85-0.212,1.522-0.637,2.016
		C55.818,33.565,55.232,33.812,54.485,33.812 M54.492,28.663c-0.637,0-1.129,0.207-1.474,0.623C52.672,29.7,52.5,30.29,52.5,31.054
		c0,0.767,0.171,1.359,0.513,1.778c0.342,0.419,0.832,0.628,1.472,0.628c0.645,0,1.137-0.207,1.478-0.623
		c0.341-0.415,0.511-1.009,0.511-1.783c0-0.771-0.17-1.363-0.511-1.774C55.622,28.869,55.132,28.663,54.492,28.663 M18.745,33.812
		c-0.62,0-1.104-0.174-1.452-0.522c-0.348-0.348-0.522-0.833-0.522-1.456v-3.45h0.377v3.464c0,0.515,0.143,0.916,0.428,1.203
		c0.286,0.287,0.69,0.43,1.212,0.43c0.51,0,0.906-0.141,1.186-0.423c0.281-0.282,0.421-0.673,0.421-1.174v-3.501h0.374v3.464
		c0,0.615-0.178,1.096-0.535,1.443C19.879,33.638,19.382,33.812,18.745,33.812 M12.533,33.812c-0.745,0-1.329-0.247-1.754-0.742
		c-0.425-0.494-0.637-1.169-0.637-2.023c0-0.852,0.214-1.523,0.643-2.012c0.428-0.489,1.014-0.734,1.756-0.734
		c0.747,0,1.332,0.246,1.754,0.738c0.422,0.492,0.634,1.164,0.634,2.016c0,0.85-0.212,1.522-0.637,2.016
		C13.866,33.565,13.28,33.812,12.533,33.812 M12.54,28.663c-0.637,0-1.129,0.207-1.474,0.623c-0.345,0.415-0.518,1.005-0.518,1.769
		c0,0.767,0.171,1.359,0.513,1.778c0.342,0.419,0.832,0.628,1.472,0.628c0.645,0,1.137-0.207,1.478-0.623
		c0.341-0.415,0.511-1.009,0.511-1.783c0-0.771-0.17-1.363-0.511-1.774C13.67,28.869,13.18,28.663,12.54,28.663 M6.819,33.812
		c-0.654,0-1.156-0.072-1.505-0.216v-0.374c0.386,0.164,0.878,0.245,1.476,0.245c0.439,0,0.788-0.101,1.046-0.302
		s0.386-0.466,0.386-0.793c0-0.203-0.043-0.37-0.128-0.504c-0.085-0.133-0.225-0.254-0.418-0.364
		c-0.193-0.11-0.476-0.228-0.85-0.355c-0.547-0.188-0.925-0.391-1.133-0.61c-0.209-0.218-0.313-0.51-0.313-0.873
		c0-0.4,0.157-0.727,0.471-0.98c0.314-0.253,0.717-0.379,1.21-0.379c0.503,0,0.975,0.095,1.417,0.286l-0.135,0.322
		c-0.444-0.186-0.869-0.278-1.274-0.278c-0.395,0-0.71,0.092-0.945,0.275c-0.234,0.183-0.352,0.432-0.352,0.747
		c0,0.198,0.036,0.36,0.108,0.487c0.072,0.127,0.19,0.241,0.353,0.342c0.164,0.101,0.444,0.223,0.842,0.364
		c0.418,0.144,0.731,0.284,0.941,0.419c0.21,0.135,0.363,0.289,0.46,0.461c0.096,0.172,0.145,0.38,0.145,0.624
		c0,0.447-0.164,0.801-0.493,1.062C7.8,33.681,7.364,33.812,6.819,33.812 M140.786,33.739h-0.385v-2.04l-1.791-3.314h0.428
		l1.56,2.93l1.567-2.93h0.403l-1.783,3.285V33.739 M136.16,33.739h-0.377v-5.002h-1.74v-0.352h3.856v0.352h-1.739V33.739
		 M132.573,33.739H132.2v-5.354h0.374V33.739 M125.836,33.739h-0.447l-1.381-2.333h-1.329v2.333h-0.374v-5.354h1.274
		c0.664,0,1.155,0.123,1.472,0.368c0.317,0.245,0.476,0.615,0.476,1.108c0,0.359-0.095,0.662-0.284,0.908
		c-0.189,0.247-0.477,0.424-0.862,0.531L125.836,33.739 M122.68,28.721v2.362h1.022c0.452,0,0.802-0.101,1.051-0.302
		c0.249-0.201,0.374-0.499,0.374-0.892c0-0.408-0.122-0.704-0.366-0.89c-0.244-0.186-0.642-0.278-1.194-0.278H122.68
		 M120.419,33.739h-2.926v-5.354h2.926v0.344h-2.552v2.025h2.41v0.344h-2.41v2.296h2.552V33.739 M114.057,33.739h-0.33l-1.996-5.354
		h0.399l1.348,3.644c0.205,0.549,0.343,0.962,0.414,1.238c0.049-0.183,0.145-0.467,0.289-0.853l1.472-4.028h0.407L114.057,33.739
		 M110.298,33.739h-0.374v-5.354h0.374V33.739 M107.734,33.739h-0.377l-3.171-4.753h-0.029c0.029,0.566,0.044,0.994,0.044,1.282
		v3.472h-0.359v-5.354h0.374l3.168,4.746h0.022c-0.022-0.439-0.033-0.857-0.033-1.252v-3.494h0.363V33.739 M93.261,33.739h-2.926
		v-5.354h2.926v0.344h-2.553v2.025h2.41v0.344h-2.41v2.296h2.553V33.739 M87.126,33.739h-0.377v-5.002h-1.74v-0.352h3.856v0.352
		h-1.74V33.739 M84.298,33.739h-0.421l-0.743-1.89h-2.175l-0.747,1.89h-0.414l2.153-5.376h0.238L84.298,33.739 M82.06,28.952
		c-0.066,0.234-0.138,0.447-0.216,0.637l-0.751,1.923h1.915l-0.729-1.93C82.219,29.431,82.145,29.221,82.06,28.952 M77.346,33.739
		h-0.377v-5.002h-1.74v-0.352h3.856v0.352h-1.74V33.739 M67.132,33.739h-0.421l-0.743-1.89h-2.175l-0.747,1.89h-0.414l2.153-5.376
		h0.238L67.132,33.739 M64.895,28.952c-0.066,0.234-0.138,0.447-0.216,0.637l-0.751,1.923h1.915l-0.729-1.93
		C65.053,29.431,64.98,29.221,64.895,28.952 M60.18,33.739h-0.377v-5.002h-1.74v-0.352h3.856v0.352h-1.74V33.739 M50.946,33.739
		h-0.458l-2.054-2.827l-0.714,0.63v2.197h-0.374v-5.354h0.374v2.783l0.593-0.593l2.098-2.19h0.476l-2.194,2.263L50.946,33.739
		 M45.913,33.739h-0.421l-0.743-1.89h-2.175l-0.747,1.89h-0.414l2.153-5.376h0.238L45.913,33.739 M43.675,28.952
		c-0.066,0.234-0.138,0.447-0.216,0.637l-0.751,1.923h1.915l-0.729-1.93C43.834,29.431,43.761,29.221,43.675,28.952 M37.482,33.739
		H36.2v-5.354h1.447c0.854,0,1.504,0.223,1.95,0.67c0.446,0.447,0.668,1.099,0.668,1.956c0,0.898-0.236,1.578-0.707,2.038
		C39.087,33.508,38.395,33.739,37.482,33.739 M36.573,28.714v4.695h0.886c1.599,0,2.399-0.795,2.399-2.384
		c0-0.767-0.195-1.343-0.584-1.73c-0.389-0.387-0.961-0.58-1.716-0.58H36.573 M31.386,33.739h-0.377v-2.633h-3.127v2.633h-0.374
		v-5.354h0.374v2.377h3.127v-2.377h0.377V33.739 M24.298,33.739h-0.377v-5.002h-1.739v-0.352h3.856v0.352h-1.739V33.739"/>
	<path fill="#000000" d="M129.023,44.812c-0.579,0-1.03-0.178-1.353-0.535c-0.324-0.356-0.485-0.856-0.485-1.498
		c0-0.635,0.156-1.143,0.469-1.525c0.312-0.382,0.734-0.573,1.263-0.573c0.469,0,0.839,0.164,1.11,0.491
		c0.271,0.327,0.406,0.771,0.406,1.333v0.293h-2.867c0.005,0.547,0.132,0.964,0.383,1.252c0.25,0.288,0.608,0.432,1.075,0.432
		c0.227,0,0.427-0.016,0.599-0.048c0.172-0.032,0.39-0.1,0.654-0.205v0.33c-0.225,0.098-0.432,0.164-0.623,0.2
		C129.463,44.794,129.253,44.812,129.023,44.812 M128.917,41.003c-0.383,0-0.691,0.126-0.923,0.379
		c-0.232,0.253-0.367,0.617-0.406,1.093h2.461c0-0.461-0.1-0.822-0.3-1.082C129.548,41.133,129.271,41.003,128.917,41.003
		 M120.038,44.812c-0.906,0-1.359-0.485-1.359-1.454v-2.6h0.359v2.578c0,0.4,0.084,0.692,0.253,0.873
		c0.168,0.182,0.43,0.273,0.784,0.273c0.474,0,0.822-0.12,1.046-0.359c0.223-0.239,0.335-0.629,0.335-1.168v-2.197h0.359v3.981
		h-0.308l-0.066-0.549h-0.022C121.16,44.604,120.699,44.812,120.038,44.812 M116.58,44.812c-0.352,0-0.611-0.094-0.778-0.282
		c-0.167-0.188-0.251-0.483-0.251-0.886v-2.571h-0.59V40.86l0.59-0.165l0.183-0.901h0.187v0.963h1.168v0.315h-1.168v2.52
		c0,0.305,0.054,0.531,0.161,0.677c0.107,0.146,0.276,0.22,0.505,0.22c0.229,0,0.43-0.02,0.601-0.059v0.293
		C117.012,44.782,116.809,44.812,116.58,44.812 M112.887,44.812c-0.569,0-1.014-0.179-1.337-0.538
		c-0.322-0.359-0.483-0.859-0.483-1.501c0-0.659,0.167-1.172,0.502-1.54c0.334-0.367,0.792-0.551,1.373-0.551
		c0.344,0,0.674,0.06,0.989,0.179l-0.099,0.322c-0.344-0.115-0.643-0.172-0.897-0.172c-0.488,0-0.858,0.151-1.11,0.452
		c-0.251,0.302-0.377,0.736-0.377,1.302c0,0.537,0.126,0.958,0.377,1.262c0.251,0.304,0.603,0.456,1.055,0.456
		c0.361,0,0.697-0.065,1.007-0.194v0.337C113.633,44.749,113.3,44.812,112.887,44.812 M108.114,44.812
		c-0.579,0-1.03-0.178-1.353-0.535c-0.323-0.356-0.485-0.856-0.485-1.498c0-0.635,0.156-1.143,0.469-1.525
		c0.312-0.382,0.734-0.573,1.263-0.573c0.469,0,0.839,0.164,1.11,0.491c0.271,0.327,0.406,0.771,0.406,1.333v0.293h-2.867
		c0.005,0.547,0.132,0.964,0.383,1.252c0.25,0.288,0.608,0.432,1.075,0.432c0.227,0,0.427-0.016,0.599-0.048
		c0.172-0.032,0.39-0.1,0.654-0.205v0.33c-0.225,0.098-0.432,0.164-0.623,0.2C108.554,44.794,108.344,44.812,108.114,44.812
		 M108.008,41.003c-0.383,0-0.691,0.126-0.923,0.379s-0.367,0.617-0.406,1.093h2.461c0-0.461-0.1-0.822-0.3-1.082
		C108.639,41.133,108.362,41.003,108.008,41.003 M104.363,44.812c-0.352,0-0.611-0.094-0.778-0.282
		c-0.167-0.188-0.251-0.483-0.251-0.886v-2.571h-0.59V40.86l0.59-0.165l0.183-0.901h0.187v0.963h1.168v0.315h-1.168v2.52
		c0,0.305,0.054,0.531,0.161,0.677c0.107,0.146,0.276,0.22,0.505,0.22c0.229,0,0.43-0.02,0.601-0.059v0.293
		C104.795,44.782,104.593,44.812,104.363,44.812 M93.201,44.812c-0.569,0-1.014-0.179-1.337-0.538
		c-0.322-0.359-0.483-0.859-0.483-1.501c0-0.659,0.167-1.172,0.502-1.54c0.334-0.367,0.792-0.551,1.373-0.551
		c0.344,0,0.674,0.06,0.989,0.179l-0.099,0.322c-0.344-0.115-0.643-0.172-0.897-0.172c-0.488,0-0.858,0.151-1.11,0.452
		c-0.251,0.302-0.377,0.736-0.377,1.302c0,0.537,0.126,0.958,0.377,1.262c0.251,0.304,0.603,0.456,1.055,0.456
		c0.361,0,0.697-0.065,1.007-0.194v0.337C93.947,44.749,93.614,44.812,93.201,44.812 M66.866,44.812
		c-0.532,0-0.955-0.082-1.267-0.245v-0.392c0.4,0.2,0.823,0.3,1.267,0.3c0.393,0,0.692-0.065,0.895-0.196
		c0.204-0.131,0.306-0.305,0.306-0.522c0-0.2-0.081-0.369-0.244-0.505c-0.162-0.137-0.429-0.271-0.8-0.403
		c-0.398-0.144-0.677-0.268-0.839-0.372c-0.161-0.104-0.283-0.221-0.364-0.352c-0.082-0.131-0.123-0.29-0.123-0.478
		c0-0.298,0.125-0.533,0.375-0.707c0.25-0.173,0.6-0.26,1.049-0.26c0.43,0,0.837,0.081,1.223,0.242l-0.135,0.33
		c-0.391-0.161-0.753-0.242-1.088-0.242c-0.325,0-0.582,0.054-0.773,0.161c-0.19,0.107-0.286,0.256-0.286,0.447
		c0,0.208,0.074,0.374,0.222,0.498c0.148,0.125,0.436,0.264,0.866,0.418c0.359,0.129,0.62,0.246,0.784,0.35
		c0.164,0.104,0.286,0.222,0.368,0.353c0.082,0.132,0.123,0.287,0.123,0.465c0,0.356-0.135,0.63-0.406,0.822
		C67.749,44.716,67.364,44.812,66.866,44.812 M63.814,44.812c-0.352,0-0.611-0.094-0.778-0.282
		c-0.167-0.188-0.251-0.483-0.251-0.886v-2.571h-0.59V40.86l0.59-0.165l0.183-0.901h0.187v0.963h1.168v0.315h-1.168v2.52
		c0,0.305,0.054,0.531,0.161,0.677c0.107,0.146,0.276,0.22,0.505,0.22c0.229,0,0.43-0.02,0.601-0.059v0.293
		C64.246,44.782,64.044,44.812,63.814,44.812 M44.901,44.812c-0.349,0-0.657-0.084-0.923-0.253c-0.266-0.168-0.47-0.41-0.612-0.725
		c-0.142-0.315-0.212-0.679-0.212-1.091c0-0.649,0.157-1.155,0.472-1.518c0.315-0.363,0.747-0.544,1.296-0.544
		c0.547,0,0.976,0.184,1.287,0.551c0.311,0.367,0.467,0.871,0.467,1.511c0,0.649-0.158,1.157-0.472,1.522
		C45.89,44.629,45.455,44.812,44.901,44.812 M44.908,41.01c-0.439,0-0.778,0.151-1.016,0.452c-0.238,0.302-0.357,0.728-0.357,1.28
		c0,0.547,0.12,0.974,0.361,1.28c0.24,0.306,0.58,0.46,1.02,0.46s0.779-0.153,1.02-0.46c0.24-0.306,0.361-0.733,0.361-1.28
		c0-0.549-0.121-0.975-0.364-1.278C45.689,41.162,45.348,41.01,44.908,41.01 M33.614,44.812c-0.349,0-0.657-0.084-0.923-0.253
		c-0.266-0.168-0.47-0.41-0.612-0.725c-0.142-0.315-0.212-0.679-0.212-1.091c0-0.649,0.157-1.155,0.472-1.518
		c0.315-0.363,0.747-0.544,1.296-0.544c0.547,0,0.976,0.184,1.287,0.551c0.311,0.367,0.467,0.871,0.467,1.511
		c0,0.649-0.157,1.157-0.472,1.522C34.603,44.629,34.169,44.812,33.614,44.812 M33.622,41.01c-0.439,0-0.778,0.151-1.016,0.452
		c-0.238,0.302-0.357,0.728-0.357,1.28c0,0.547,0.12,0.974,0.361,1.28c0.24,0.306,0.58,0.46,1.02,0.46
		c0.439,0,0.779-0.153,1.02-0.46c0.24-0.306,0.361-0.733,0.361-1.28c0-0.549-0.121-0.975-0.364-1.278
		C34.402,41.162,34.061,41.01,33.622,41.01 M26.544,44.812c-0.579,0-1.03-0.178-1.353-0.535c-0.324-0.356-0.485-0.856-0.485-1.498
		c0-0.635,0.156-1.143,0.469-1.525c0.313-0.382,0.734-0.573,1.263-0.573c0.469,0,0.839,0.164,1.11,0.491
		c0.271,0.327,0.406,0.771,0.406,1.333v0.293h-2.867c0.005,0.547,0.132,0.964,0.383,1.252c0.25,0.288,0.608,0.432,1.075,0.432
		c0.227,0,0.427-0.016,0.599-0.048c0.172-0.032,0.39-0.1,0.654-0.205v0.33c-0.225,0.098-0.432,0.164-0.623,0.2
		C26.984,44.794,26.774,44.812,26.544,44.812 M26.438,41.003c-0.383,0-0.691,0.126-0.923,0.379
		c-0.232,0.253-0.367,0.617-0.406,1.093h2.461c0-0.461-0.1-0.822-0.3-1.082C27.069,41.133,26.792,41.003,26.438,41.003
		 M17.189,44.812c-0.569,0-1.014-0.179-1.337-0.538c-0.322-0.359-0.483-0.859-0.483-1.501c0-0.659,0.167-1.172,0.502-1.54
		c0.334-0.367,0.792-0.551,1.373-0.551c0.344,0,0.674,0.06,0.989,0.179l-0.099,0.322c-0.344-0.115-0.643-0.172-0.897-0.172
		c-0.488,0-0.858,0.151-1.11,0.452c-0.251,0.302-0.377,0.736-0.377,1.302c0,0.537,0.126,0.958,0.377,1.262
		c0.251,0.304,0.603,0.456,1.055,0.456c0.361,0,0.697-0.065,1.007-0.194v0.337C17.935,44.749,17.601,44.812,17.189,44.812
		 M11.881,44.812c-0.391,0-0.695-0.1-0.912-0.3c-0.217-0.2-0.326-0.477-0.326-0.831c0-0.388,0.162-0.69,0.485-0.905
		c0.323-0.215,0.792-0.328,1.404-0.341l0.758-0.022v-0.264c0-0.378-0.077-0.664-0.231-0.857c-0.154-0.193-0.402-0.289-0.743-0.289
		c-0.369,0-0.751,0.103-1.146,0.308l-0.136-0.315c0.437-0.205,0.869-0.308,1.296-0.308c0.437,0,0.764,0.113,0.98,0.341
		c0.216,0.227,0.324,0.581,0.324,1.062v2.648h-0.267l-0.092-0.63h-0.029c-0.2,0.256-0.406,0.438-0.617,0.544
		C12.419,44.759,12.169,44.812,11.881,44.812 M13.277,42.713l-0.696,0.029c-0.559,0.027-0.958,0.114-1.196,0.262
		c-0.238,0.148-0.357,0.378-0.357,0.69c0,0.249,0.076,0.443,0.229,0.58c0.153,0.138,0.368,0.207,0.646,0.207
		c0.425,0,0.76-0.121,1.005-0.364c0.245-0.243,0.368-0.58,0.368-1.013V42.713 M124.185,44.739h-0.363v-3.981h0.308l0.037,0.718
		h0.026c0.164-0.293,0.338-0.499,0.524-0.617c0.186-0.118,0.41-0.178,0.674-0.178c0.168,0,0.349,0.017,0.542,0.051l-0.07,0.348
		c-0.166-0.042-0.338-0.062-0.516-0.062c-0.339,0-0.618,0.144-0.835,0.432c-0.217,0.288-0.326,0.652-0.326,1.091V44.739
		 M101.311,44.739h-0.363v-3.981h0.363V44.739 M98.985,44.739h-0.359v-2.582c0-0.4-0.084-0.692-0.253-0.873
		c-0.168-0.182-0.43-0.273-0.784-0.273c-0.476,0-0.825,0.12-1.046,0.361c-0.221,0.241-0.331,0.63-0.331,1.17v2.197H95.85V39.04
		h0.363v1.813l-0.018,0.509h0.026c0.149-0.239,0.337-0.413,0.564-0.52c0.227-0.107,0.509-0.161,0.846-0.161
		c0.903,0,1.355,0.485,1.355,1.454V44.739 M88.381,44.739h-0.363v-3.981h0.308l0.037,0.718h0.026
		c0.164-0.293,0.338-0.499,0.524-0.617c0.186-0.118,0.41-0.178,0.674-0.178c0.168,0,0.349,0.017,0.542,0.051l-0.07,0.348
		c-0.166-0.042-0.338-0.062-0.516-0.062c-0.339,0-0.618,0.144-0.835,0.432c-0.217,0.288-0.326,0.652-0.326,1.091V44.739
		 M86.677,44.739h-0.421l-0.743-1.89h-2.175l-0.747,1.89h-0.414l2.153-5.376h0.238L86.677,44.739 M84.439,39.952
		c-0.066,0.234-0.138,0.447-0.216,0.637l-0.751,1.923h1.915l-0.729-1.93C84.598,40.431,84.524,40.221,84.439,39.952 M78.255,44.739
		h-0.359v-2.582c0-0.4-0.084-0.692-0.253-0.873c-0.168-0.182-0.43-0.273-0.784-0.273c-0.476,0-0.825,0.12-1.046,0.361
		c-0.221,0.241-0.331,0.63-0.331,1.17v2.197H75.12v-3.981h0.308l0.07,0.546h0.022c0.259-0.415,0.719-0.623,1.381-0.623
		c0.903,0,1.355,0.485,1.355,1.454V44.739 M73.112,44.739H72.75v-3.981h0.363V44.739 M59.539,44.739h-0.363v-3.981h0.308
		l0.037,0.718h0.026c0.164-0.293,0.338-0.499,0.524-0.617c0.186-0.118,0.41-0.178,0.674-0.178c0.168,0,0.349,0.017,0.542,0.051
		l-0.07,0.348c-0.166-0.042-0.338-0.062-0.516-0.062c-0.339,0-0.618,0.144-0.835,0.432c-0.217,0.288-0.326,0.652-0.326,1.091V44.739
		 M57.835,44.739h-0.421l-0.743-1.89h-2.175l-0.747,1.89h-0.414l2.153-5.376h0.238L57.835,44.739 M55.598,39.952
		c-0.066,0.234-0.138,0.447-0.216,0.637l-0.751,1.923h1.915l-0.729-1.93C55.756,40.431,55.683,40.221,55.598,39.952 M48.996,44.739
		h-0.363v-3.666h-0.74V40.86l0.74-0.136v-0.308c0-0.488,0.09-0.847,0.269-1.075C49.082,39.114,49.376,39,49.784,39
		c0.22,0,0.439,0.033,0.659,0.099l-0.084,0.315c-0.195-0.061-0.389-0.092-0.582-0.092c-0.283,0-0.484,0.084-0.602,0.251
		c-0.118,0.167-0.178,0.439-0.178,0.815v0.37h0.938v0.315h-0.938V44.739 M37.53,44.739h-0.363v-3.981h0.308l0.037,0.718h0.026
		c0.164-0.293,0.338-0.499,0.524-0.617c0.186-0.118,0.41-0.178,0.674-0.178c0.168,0,0.349,0.017,0.542,0.051l-0.07,0.348
		c-0.166-0.042-0.338-0.062-0.516-0.062c-0.339,0-0.618,0.144-0.835,0.432c-0.217,0.288-0.326,0.652-0.326,1.091V44.739
		 M30.09,44.739h-0.363V39.04h0.363V44.739 M22.973,44.739h-0.359v-2.582c0-0.4-0.084-0.692-0.253-0.873
		c-0.168-0.182-0.43-0.273-0.784-0.273c-0.476,0-0.825,0.12-1.046,0.361c-0.221,0.241-0.331,0.63-0.331,1.17v2.197h-0.363V39.04
		H20.2v1.813l-0.018,0.509h0.026c0.149-0.239,0.337-0.413,0.564-0.52c0.227-0.107,0.509-0.161,0.846-0.161
		c0.903,0,1.355,0.485,1.355,1.454V44.739 M7.306,44.739H5.666v-5.354h1.469c0.662,0,1.147,0.112,1.458,0.337
		c0.31,0.225,0.465,0.564,0.465,1.018c0,0.31-0.095,0.568-0.284,0.775c-0.189,0.206-0.466,0.339-0.829,0.397v0.022
		c0.427,0.064,0.742,0.198,0.943,0.405c0.201,0.206,0.302,0.494,0.302,0.862c0,0.493-0.164,0.873-0.491,1.139
		C8.371,44.606,7.907,44.739,7.306,44.739 M6.039,42.098v2.311h1.26c0.991,0,1.487-0.403,1.487-1.209
		c0-0.735-0.522-1.102-1.567-1.102H6.039 M6.039,39.714v2.054h1.179c0.503,0,0.868-0.084,1.097-0.251
		c0.228-0.167,0.342-0.429,0.342-0.786s-0.129-0.615-0.386-0.776c-0.258-0.161-0.642-0.242-1.152-0.242H6.039 M101.128,40.007
		c-0.154,0-0.231-0.118-0.231-0.355c0-0.234,0.077-0.352,0.231-0.352l0.178,0.092c0.043,0.061,0.064,0.148,0.064,0.26
		c0,0.11-0.021,0.197-0.064,0.26L101.128,40.007 M72.929,40.007c-0.154,0-0.231-0.118-0.231-0.355c0-0.234,0.077-0.352,0.231-0.352
		l0.178,0.092c0.043,0.061,0.064,0.148,0.064,0.26c0,0.11-0.021,0.197-0.064,0.26L72.929,40.007"/>
	<path fill="#000000" d="M40.465,55.812c-0.544,0-1.019-0.101-1.425-0.304v-0.363c0.205,0.107,0.435,0.192,0.69,0.253
		c0.255,0.061,0.495,0.092,0.72,0.092c0.54,0,0.945-0.109,1.216-0.328c0.271-0.218,0.406-0.527,0.406-0.925
		c0-0.354-0.139-0.626-0.416-0.817c-0.277-0.19-0.684-0.286-1.221-0.286h-0.579v-0.352h0.586c0.444,0,0.797-0.106,1.057-0.317
		c0.26-0.211,0.39-0.497,0.39-0.859c0-0.298-0.106-0.537-0.317-0.716c-0.211-0.179-0.488-0.269-0.829-0.269
		c-0.266,0-0.509,0.037-0.729,0.112s-0.466,0.202-0.74,0.383l-0.179-0.245c0.207-0.173,0.458-0.311,0.751-0.412
		c0.293-0.101,0.59-0.152,0.89-0.152c0.493,0,0.874,0.117,1.143,0.35c0.268,0.233,0.403,0.562,0.403,0.987
		c0,0.332-0.104,0.612-0.313,0.839c-0.209,0.227-0.489,0.372-0.84,0.436v0.022c0.43,0.054,0.757,0.19,0.981,0.41
		c0.225,0.22,0.337,0.515,0.337,0.886c0,0.501-0.17,0.888-0.511,1.163C41.595,55.674,41.105,55.812,40.465,55.812 M35.974,55.812
		c-0.542,0-0.97-0.207-1.284-0.621c-0.314-0.414-0.471-0.992-0.471-1.734c0-0.696,0.095-1.281,0.284-1.756
		c0.189-0.475,0.458-0.827,0.806-1.056c0.348-0.229,0.767-0.344,1.258-0.344c0.229,0,0.439,0.028,0.63,0.084v0.322
		c-0.178-0.066-0.393-0.099-0.645-0.099c-0.603,0-1.072,0.217-1.408,0.652c-0.336,0.435-0.524,1.067-0.566,1.897h0.048
		c0.186-0.239,0.398-0.42,0.637-0.542c0.239-0.122,0.492-0.183,0.758-0.183c0.5,0,0.892,0.143,1.174,0.428
		c0.282,0.286,0.423,0.68,0.423,1.183c0,0.547-0.148,0.978-0.445,1.295C36.877,55.654,36.477,55.812,35.974,55.812 M36.014,52.732
		c-0.249,0-0.48,0.055-0.694,0.165c-0.214,0.11-0.384,0.256-0.511,0.438c-0.127,0.182-0.19,0.368-0.19,0.558
		c0,0.271,0.06,0.532,0.181,0.782c0.121,0.25,0.284,0.449,0.491,0.595c0.206,0.146,0.434,0.22,0.683,0.22
		c0.4,0,0.712-0.126,0.934-0.377c0.222-0.251,0.333-0.61,0.333-1.077c0-0.41-0.11-0.73-0.33-0.959
		C36.692,52.847,36.393,52.732,36.014,52.732 M32.168,55.812c-0.195,0-0.293-0.12-0.293-0.359c0-0.239,0.098-0.359,0.293-0.359
		c0.2,0,0.3,0.12,0.3,0.359C32.468,55.692,32.368,55.812,32.168,55.812 M28.094,55.812c-0.544,0-1.019-0.101-1.425-0.304v-0.363
		c0.205,0.107,0.435,0.192,0.69,0.253c0.255,0.061,0.495,0.092,0.72,0.092c0.539,0,0.945-0.109,1.216-0.328
		c0.271-0.218,0.406-0.527,0.406-0.925c0-0.354-0.139-0.626-0.416-0.817c-0.277-0.19-0.684-0.286-1.221-0.286h-0.579v-0.352h0.586
		c0.444,0,0.797-0.106,1.057-0.317c0.26-0.211,0.39-0.497,0.39-0.859c0-0.298-0.106-0.537-0.317-0.716
		c-0.211-0.179-0.488-0.269-0.829-0.269c-0.266,0-0.509,0.037-0.729,0.112s-0.466,0.202-0.74,0.383l-0.179-0.245
		c0.207-0.173,0.458-0.311,0.751-0.412c0.293-0.101,0.59-0.152,0.89-0.152c0.493,0,0.874,0.117,1.143,0.35
		c0.269,0.233,0.403,0.562,0.403,0.987c0,0.332-0.104,0.612-0.313,0.839c-0.209,0.227-0.489,0.372-0.84,0.436v0.022
		c0.43,0.054,0.757,0.19,0.981,0.41c0.225,0.22,0.337,0.515,0.337,0.886c0,0.501-0.17,0.888-0.511,1.163
		C29.224,55.674,28.734,55.812,28.094,55.812 M22.13,55.812c-0.195,0-0.293-0.12-0.293-0.359c0-0.239,0.098-0.359,0.293-0.359
		c0.2,0,0.3,0.12,0.3,0.359C22.431,55.692,22.33,55.812,22.13,55.812 M7.998,55.812c-0.845,0-1.492-0.239-1.943-0.716
		c-0.45-0.477-0.676-1.153-0.676-2.027c0-0.544,0.112-1.027,0.335-1.448c0.223-0.421,0.543-0.746,0.959-0.976
		C7.091,50.415,7.569,50.3,8.108,50.3c0.583,0,1.107,0.107,1.571,0.322l-0.15,0.337c-0.464-0.215-0.945-0.322-1.443-0.322
		c-0.706,0-1.265,0.218-1.679,0.654c-0.414,0.436-0.621,1.024-0.621,1.763c0,0.806,0.196,1.412,0.59,1.818
		c0.393,0.407,0.97,0.61,1.732,0.61c0.493,0,0.912-0.07,1.256-0.209v-1.882H7.771V53.04h1.974v2.443
		C9.228,55.702,8.645,55.812,7.998,55.812 M20.569,55.739h-0.421l-0.743-1.89h-2.175l-0.747,1.89h-0.414l2.153-5.376h0.238
		L20.569,55.739 M18.331,50.952c-0.066,0.234-0.138,0.447-0.216,0.637l-0.751,1.923h1.915l-0.729-1.93
		C18.49,51.431,18.417,51.221,18.331,50.952 M12.138,55.739h-0.374v-5.354h1.311c1.274,0,1.912,0.513,1.912,1.538
		c0,0.518-0.176,0.914-0.527,1.19c-0.352,0.276-0.85,0.414-1.494,0.414h-0.828V55.739 M12.138,50.721v2.483h0.736
		c0.603,0,1.039-0.099,1.307-0.298c0.269-0.199,0.403-0.522,0.403-0.969c0-0.413-0.127-0.718-0.381-0.917
		c-0.254-0.199-0.647-0.298-1.179-0.298H12.138 M22.13,52.545l-0.209-0.084c-0.056-0.056-0.084-0.149-0.084-0.278
		c0-0.239,0.098-0.359,0.293-0.359c0.2,0,0.3,0.12,0.3,0.359c0,0.129-0.029,0.222-0.086,0.278L22.13,52.545"/>
	<path fill="#000000" d="M64.608,68.54c-0.139,0-0.294-0.026-0.465-0.077v-0.315c0.142,0.039,0.294,0.059,0.458,0.059
		c0.125,0,0.234-0.029,0.33-0.088c0.095-0.059,0.181-0.15,0.258-0.273c0.077-0.123,0.166-0.319,0.267-0.586
		c0.101-0.267,0.167-0.441,0.196-0.522l-1.523-3.981h0.374l0.842,2.234c0.256,0.686,0.419,1.149,0.487,1.388h0.022
		c0.103-0.315,0.27-0.785,0.502-1.41l0.842-2.212h0.374l-1.783,4.625c-0.144,0.376-0.265,0.63-0.363,0.762
		c-0.098,0.132-0.212,0.231-0.342,0.297C64.951,68.507,64.793,68.54,64.608,68.54 M61.076,66.812c-0.391,0-0.695-0.1-0.912-0.3
		c-0.217-0.2-0.326-0.477-0.326-0.831c0-0.388,0.162-0.69,0.485-0.905c0.323-0.215,0.792-0.328,1.404-0.341l0.758-0.022v-0.264
		c0-0.378-0.077-0.664-0.231-0.857c-0.154-0.193-0.402-0.289-0.743-0.289c-0.369,0-0.751,0.103-1.146,0.308l-0.135-0.315
		c0.437-0.205,0.869-0.308,1.296-0.308c0.437,0,0.764,0.113,0.98,0.341c0.216,0.227,0.324,0.581,0.324,1.062v2.648h-0.267
		l-0.092-0.63h-0.029c-0.2,0.256-0.406,0.438-0.617,0.544C61.614,66.759,61.364,66.812,61.076,66.812 M62.472,64.713l-0.696,0.029
		c-0.559,0.027-0.958,0.114-1.196,0.262c-0.238,0.148-0.357,0.378-0.357,0.69c0,0.249,0.076,0.443,0.229,0.58
		c0.153,0.138,0.368,0.207,0.646,0.207c0.425,0,0.76-0.121,1.005-0.364c0.245-0.243,0.368-0.58,0.368-1.013V64.713 M48.138,66.812
		c-0.195,0-0.293-0.12-0.293-0.359c0-0.239,0.098-0.359,0.293-0.359c0.2,0,0.3,0.12,0.3,0.359
		C48.439,66.692,48.338,66.812,48.138,66.812 M44.244,66.812c-0.549,0-0.969-0.171-1.26-0.513c-0.291-0.342-0.436-0.84-0.436-1.494
		c0-0.689,0.144-1.215,0.432-1.578c0.288-0.364,0.707-0.546,1.256-0.546c0.288,0,0.537,0.053,0.747,0.157
		c0.21,0.105,0.398,0.284,0.564,0.538h0.022c-0.015-0.308-0.022-0.609-0.022-0.905V61.04h0.359v5.698h-0.238l-0.092-0.608h-0.029
		C45.245,66.585,44.811,66.812,44.244,66.812 M44.237,63.01c-0.435,0-0.761,0.153-0.98,0.458c-0.219,0.305-0.328,0.748-0.328,1.329
		c0,1.128,0.438,1.692,1.315,1.692c0.449,0,0.779-0.131,0.989-0.392c0.21-0.261,0.315-0.692,0.315-1.293v-0.062
		c0-0.615-0.103-1.058-0.309-1.328C45.032,63.145,44.698,63.01,44.237,63.01 M39.596,66.812c-0.579,0-1.03-0.178-1.353-0.535
		c-0.324-0.356-0.485-0.856-0.485-1.498c0-0.635,0.156-1.143,0.469-1.525c0.312-0.382,0.734-0.573,1.263-0.573
		c0.469,0,0.839,0.164,1.11,0.491c0.271,0.327,0.406,0.771,0.406,1.333v0.293h-2.867c0.005,0.547,0.132,0.964,0.383,1.252
		c0.25,0.288,0.608,0.432,1.075,0.432c0.227,0,0.427-0.016,0.599-0.048c0.172-0.032,0.39-0.1,0.654-0.205v0.33
		c-0.225,0.098-0.432,0.164-0.623,0.2C40.035,66.794,39.825,66.812,39.596,66.812 M39.49,63.003c-0.383,0-0.691,0.126-0.923,0.379
		c-0.232,0.253-0.367,0.617-0.406,1.093h2.461c0-0.461-0.1-0.822-0.3-1.082C40.121,63.133,39.844,63.003,39.49,63.003
		 M35.845,66.812c-0.352,0-0.611-0.094-0.778-0.282c-0.167-0.188-0.251-0.483-0.251-0.886v-2.571h-0.59V62.86l0.59-0.165
		l0.183-0.901h0.187v0.963h1.168v0.315h-1.168v2.52c0,0.305,0.054,0.531,0.161,0.677c0.107,0.146,0.276,0.22,0.505,0.22
		c0.229,0,0.43-0.02,0.601-0.059v0.293C36.277,66.782,36.074,66.812,35.845,66.812 M31.083,66.812c-0.391,0-0.695-0.1-0.912-0.3
		c-0.217-0.2-0.326-0.477-0.326-0.831c0-0.388,0.162-0.69,0.485-0.905c0.323-0.215,0.792-0.328,1.404-0.341l0.758-0.022v-0.264
		c0-0.378-0.077-0.664-0.231-0.857c-0.154-0.193-0.402-0.289-0.743-0.289c-0.369,0-0.751,0.103-1.146,0.308l-0.135-0.315
		c0.437-0.205,0.869-0.308,1.296-0.308c0.437,0,0.764,0.113,0.98,0.341c0.216,0.227,0.324,0.581,0.324,1.062v2.648H32.57
		l-0.092-0.63h-0.029c-0.2,0.256-0.406,0.438-0.617,0.544C31.62,66.759,31.371,66.812,31.083,66.812 M32.478,64.713l-0.696,0.029
		c-0.559,0.027-0.958,0.114-1.196,0.262c-0.238,0.148-0.357,0.378-0.357,0.69c0,0.249,0.076,0.443,0.229,0.58
		c0.153,0.138,0.368,0.207,0.646,0.207c0.425,0,0.76-0.121,1.005-0.364c0.245-0.243,0.368-0.58,0.368-1.013V64.713 M26.368,66.812
		c-0.906,0-1.359-0.485-1.359-1.454v-2.6h0.359v2.578c0,0.4,0.084,0.692,0.253,0.873c0.168,0.182,0.43,0.273,0.784,0.273
		c0.474,0,0.822-0.12,1.046-0.359c0.223-0.239,0.335-0.629,0.335-1.168v-2.197h0.359v3.981h-0.308l-0.066-0.549h-0.022
		C27.49,66.604,27.03,66.812,26.368,66.812 M21.379,66.812c-0.549,0-0.969-0.171-1.26-0.513c-0.291-0.342-0.436-0.84-0.436-1.494
		c0-0.689,0.144-1.215,0.432-1.578c0.288-0.364,0.707-0.546,1.256-0.546c0.288,0,0.537,0.053,0.747,0.157
		c0.21,0.105,0.398,0.284,0.564,0.538h0.022c-0.015-0.308-0.022-0.609-0.022-0.905V61.04h0.359v5.698h-0.238l-0.092-0.608h-0.029
		C22.38,66.585,21.946,66.812,21.379,66.812 M21.372,63.01c-0.435,0-0.761,0.153-0.98,0.458c-0.219,0.305-0.328,0.748-0.328,1.329
		c0,1.128,0.438,1.692,1.315,1.692c0.449,0,0.779-0.131,0.989-0.392c0.21-0.261,0.315-0.692,0.315-1.293v-0.062
		c0-0.615-0.103-1.058-0.309-1.328C22.167,63.145,21.834,63.01,21.372,63.01 M16.196,66.812c-0.391,0-0.695-0.1-0.912-0.3
		c-0.217-0.2-0.326-0.477-0.326-0.831c0-0.388,0.162-0.69,0.485-0.905c0.323-0.215,0.792-0.328,1.404-0.341l0.758-0.022v-0.264
		c0-0.378-0.077-0.664-0.231-0.857c-0.154-0.193-0.402-0.289-0.743-0.289c-0.369,0-0.751,0.103-1.146,0.308l-0.136-0.315
		c0.437-0.205,0.869-0.308,1.296-0.308c0.437,0,0.764,0.113,0.98,0.341c0.216,0.227,0.324,0.581,0.324,1.062v2.648h-0.267
		l-0.092-0.63h-0.029c-0.2,0.256-0.406,0.438-0.617,0.544C16.734,66.759,16.484,66.812,16.196,66.812 M17.592,64.713l-0.696,0.029
		c-0.559,0.027-0.958,0.114-1.196,0.262c-0.238,0.148-0.357,0.378-0.357,0.69c0,0.249,0.076,0.443,0.229,0.58
		c0.153,0.138,0.368,0.207,0.646,0.207c0.425,0,0.76-0.121,1.005-0.364c0.245-0.243,0.368-0.58,0.368-1.013V64.713 M7.998,66.812
		c-0.845,0-1.492-0.239-1.943-0.716c-0.45-0.477-0.676-1.153-0.676-2.027c0-0.544,0.112-1.027,0.335-1.448
		c0.223-0.421,0.543-0.746,0.959-0.976C7.091,61.415,7.569,61.3,8.108,61.3c0.583,0,1.107,0.107,1.571,0.322l-0.15,0.337
		c-0.464-0.215-0.945-0.322-1.443-0.322c-0.706,0-1.265,0.218-1.679,0.654c-0.414,0.436-0.621,1.024-0.621,1.763
		c0,0.806,0.196,1.412,0.59,1.818c0.393,0.407,0.97,0.61,1.732,0.61c0.493,0,0.912-0.07,1.256-0.209v-1.882H7.771V64.04h1.974v2.443
		C9.228,66.702,8.645,66.812,7.998,66.812 M79.08,66.739h-0.344v-1.366h-2.754v-0.245l2.655-3.772h0.443v3.702h0.923v0.315H79.08
		V66.739 M78.758,61.67c-0.049,0.09-0.199,0.32-0.45,0.689l-1.89,2.699h2.318v-1.531c0-0.737,0.017-1.356,0.051-1.857H78.758
		 M74.633,66.739h-3.351v-0.322l1.425-1.487c0.4-0.415,0.681-0.732,0.842-0.952c0.161-0.22,0.28-0.43,0.355-0.63
		c0.076-0.2,0.114-0.41,0.114-0.63c0-0.32-0.105-0.58-0.315-0.78c-0.21-0.2-0.482-0.3-0.817-0.3c-0.447,0-0.874,0.162-1.282,0.487
		l-0.198-0.253c0.447-0.376,0.942-0.564,1.487-0.564c0.466,0,0.833,0.125,1.1,0.374c0.267,0.249,0.401,0.592,0.401,1.029
		c0,0.354-0.09,0.696-0.269,1.027c-0.179,0.331-0.507,0.739-0.983,1.225l-1.373,1.41v0.015h2.864V66.739 M58.05,66.739h-0.377
		v-4.058c0-0.283,0.015-0.576,0.044-0.879h-0.029l-2.003,4.937h-0.238l-1.996-4.944h-0.029c0.02,0.303,0.029,0.613,0.029,0.93v4.014
		h-0.359v-5.354h0.579l1.897,4.709h0.022l1.897-4.709h0.564V66.739 M12.035,66.739h-0.363v-3.981h0.308l0.037,0.718h0.026
		c0.164-0.293,0.338-0.499,0.524-0.617c0.186-0.118,0.41-0.178,0.674-0.178c0.168,0,0.349,0.017,0.542,0.051l-0.07,0.348
		c-0.166-0.041-0.338-0.062-0.516-0.062c-0.339,0-0.618,0.144-0.835,0.432c-0.217,0.288-0.326,0.652-0.326,1.091V66.739
		 M48.138,63.545l-0.209-0.084c-0.056-0.056-0.084-0.149-0.084-0.278c0-0.239,0.098-0.359,0.293-0.359c0.2,0,0.3,0.12,0.3,0.359
		c0,0.129-0.029,0.222-0.086,0.278L48.138,63.545 M81.125,63.219h-0.238c0.071-0.234,0.145-0.529,0.223-0.884
		c0.078-0.355,0.138-0.672,0.179-0.95h0.428l0.044,0.073C81.579,62.105,81.367,62.692,81.125,63.219"/>
	<path fill="#000000" d="M92.53,88.812c-0.579,0-1.03-0.178-1.353-0.535c-0.323-0.356-0.485-0.856-0.485-1.498
		c0-0.635,0.156-1.143,0.469-1.525c0.312-0.382,0.734-0.573,1.263-0.573c0.469,0,0.839,0.164,1.11,0.491
		c0.271,0.327,0.407,0.771,0.407,1.333v0.293h-2.867c0.005,0.547,0.132,0.964,0.383,1.252c0.25,0.288,0.608,0.432,1.075,0.432
		c0.227,0,0.427-0.016,0.599-0.048c0.172-0.032,0.39-0.1,0.654-0.205v0.33c-0.225,0.098-0.432,0.164-0.623,0.2
		C92.969,88.794,92.759,88.812,92.53,88.812 M92.424,85.003c-0.383,0-0.691,0.126-0.923,0.379c-0.232,0.253-0.367,0.617-0.406,1.093
		h2.461c0-0.461-0.1-0.822-0.3-1.082C93.055,85.133,92.777,85.003,92.424,85.003 M83.544,88.812c-0.906,0-1.359-0.485-1.359-1.454
		v-2.6h0.359v2.578c0,0.4,0.084,0.692,0.253,0.873c0.168,0.182,0.43,0.273,0.784,0.273c0.474,0,0.822-0.12,1.046-0.359
		c0.223-0.239,0.335-0.629,0.335-1.168v-2.197h0.359v3.981h-0.308l-0.066-0.549h-0.022C84.666,88.604,84.206,88.812,83.544,88.812
		 M80.086,88.812c-0.352,0-0.611-0.094-0.778-0.282c-0.167-0.188-0.251-0.483-0.251-0.886v-2.571h-0.59V84.86l0.59-0.165
		l0.183-0.901h0.187v0.963h1.168v0.315h-1.168v2.52c0,0.305,0.054,0.531,0.161,0.677c0.107,0.146,0.276,0.22,0.505,0.22
		c0.229,0,0.43-0.02,0.601-0.059v0.293C80.518,88.782,80.315,88.812,80.086,88.812 M76.393,88.812c-0.569,0-1.014-0.179-1.337-0.538
		c-0.322-0.359-0.483-0.859-0.483-1.501c0-0.659,0.167-1.172,0.502-1.54c0.334-0.367,0.792-0.551,1.373-0.551
		c0.344,0,0.674,0.06,0.989,0.179l-0.099,0.322c-0.344-0.115-0.643-0.172-0.897-0.172c-0.488,0-0.858,0.151-1.11,0.452
		c-0.251,0.302-0.377,0.736-0.377,1.302c0,0.537,0.126,0.958,0.377,1.262c0.251,0.304,0.603,0.456,1.055,0.456
		c0.361,0,0.697-0.065,1.007-0.194v0.337C77.139,88.749,76.806,88.812,76.393,88.812 M71.621,88.812
		c-0.579,0-1.03-0.178-1.353-0.535c-0.324-0.356-0.485-0.856-0.485-1.498c0-0.635,0.156-1.143,0.469-1.525
		c0.312-0.382,0.734-0.573,1.263-0.573c0.469,0,0.839,0.164,1.11,0.491c0.271,0.327,0.406,0.771,0.406,1.333v0.293h-2.867
		c0.005,0.547,0.132,0.964,0.383,1.252c0.25,0.288,0.608,0.432,1.075,0.432c0.227,0,0.427-0.016,0.599-0.048
		c0.172-0.032,0.39-0.1,0.654-0.205v0.33c-0.225,0.098-0.432,0.164-0.623,0.2C72.06,88.794,71.85,88.812,71.621,88.812
		 M71.514,85.003c-0.383,0-0.691,0.126-0.923,0.379c-0.232,0.253-0.367,0.617-0.407,1.093h2.461c0-0.461-0.1-0.822-0.3-1.082
		C72.145,85.133,71.868,85.003,71.514,85.003 M67.869,88.812c-0.352,0-0.611-0.094-0.778-0.282
		c-0.167-0.188-0.251-0.483-0.251-0.886v-2.571h-0.59V84.86l0.59-0.165l0.183-0.901h0.187v0.963h1.168v0.315H67.21v2.52
		c0,0.305,0.054,0.531,0.161,0.677c0.107,0.146,0.276,0.22,0.505,0.22c0.229,0,0.43-0.02,0.601-0.059v0.293
		C68.301,88.782,68.099,88.812,67.869,88.812 M56.707,88.812c-0.569,0-1.014-0.179-1.337-0.538
		c-0.322-0.359-0.483-0.859-0.483-1.501c0-0.659,0.167-1.172,0.502-1.54c0.334-0.367,0.792-0.551,1.373-0.551
		c0.344,0,0.674,0.06,0.989,0.179l-0.099,0.322c-0.344-0.115-0.643-0.172-0.897-0.172c-0.488,0-0.858,0.151-1.11,0.452
		c-0.251,0.302-0.377,0.736-0.377,1.302c0,0.537,0.126,0.958,0.377,1.262c0.251,0.304,0.603,0.456,1.055,0.456
		c0.361,0,0.697-0.065,1.007-0.194v0.337C57.453,88.749,57.12,88.812,56.707,88.812 M37.248,88.812
		c-0.349,0-0.657-0.084-0.923-0.253c-0.266-0.168-0.47-0.41-0.612-0.725c-0.142-0.315-0.212-0.679-0.212-1.091
		c0-0.649,0.157-1.155,0.472-1.518c0.315-0.363,0.747-0.544,1.296-0.544c0.547,0,0.976,0.184,1.287,0.551
		c0.311,0.367,0.467,0.871,0.467,1.511c0,0.649-0.157,1.157-0.472,1.522C38.237,88.629,37.803,88.812,37.248,88.812 M37.256,85.01
		c-0.439,0-0.778,0.151-1.016,0.452c-0.238,0.302-0.357,0.728-0.357,1.28c0,0.547,0.12,0.974,0.361,1.28
		c0.24,0.306,0.58,0.46,1.02,0.46c0.439,0,0.779-0.153,1.02-0.46c0.24-0.306,0.361-0.733,0.361-1.28
		c0-0.549-0.121-0.975-0.364-1.278C38.036,85.162,37.695,85.01,37.256,85.01 M26.332,88.812c-0.579,0-1.03-0.178-1.353-0.535
		c-0.323-0.356-0.485-0.856-0.485-1.498c0-0.635,0.156-1.143,0.469-1.525c0.312-0.382,0.734-0.573,1.263-0.573
		c0.469,0,0.839,0.164,1.11,0.491c0.271,0.327,0.406,0.771,0.406,1.333v0.293h-2.867c0.005,0.547,0.132,0.964,0.383,1.252
		c0.25,0.288,0.608,0.432,1.075,0.432c0.227,0,0.427-0.016,0.599-0.048c0.172-0.032,0.39-0.1,0.654-0.205v0.33
		c-0.225,0.098-0.432,0.164-0.623,0.2C26.771,88.794,26.561,88.812,26.332,88.812 M26.226,85.003c-0.383,0-0.691,0.126-0.923,0.379
		c-0.232,0.253-0.367,0.617-0.406,1.093h2.461c0-0.461-0.1-0.822-0.3-1.082C26.857,85.133,26.58,85.003,26.226,85.003
		 M22.581,88.812c-0.352,0-0.611-0.094-0.778-0.282c-0.167-0.188-0.251-0.483-0.251-0.886v-2.571h-0.59V84.86l0.59-0.165
		l0.183-0.901h0.187v0.963h1.168v0.315h-1.168v2.52c0,0.305,0.054,0.531,0.161,0.677c0.107,0.146,0.276,0.22,0.505,0.22
		c0.229,0,0.43-0.02,0.601-0.059v0.293C23.013,88.782,22.81,88.812,22.581,88.812 M18.277,88.812c-0.532,0-0.955-0.082-1.267-0.245
		v-0.392c0.4,0.2,0.823,0.3,1.267,0.3c0.393,0,0.692-0.065,0.895-0.196c0.204-0.131,0.306-0.305,0.306-0.522
		c0-0.2-0.081-0.369-0.244-0.505c-0.162-0.137-0.429-0.271-0.8-0.403c-0.398-0.144-0.677-0.268-0.839-0.372
		c-0.161-0.104-0.283-0.221-0.364-0.352c-0.082-0.131-0.123-0.29-0.123-0.478c0-0.298,0.125-0.533,0.375-0.707
		c0.25-0.173,0.6-0.26,1.049-0.26c0.43,0,0.837,0.081,1.223,0.242l-0.135,0.33c-0.391-0.161-0.753-0.242-1.088-0.242
		c-0.325,0-0.582,0.054-0.773,0.161c-0.19,0.107-0.286,0.256-0.286,0.447c0,0.208,0.074,0.374,0.222,0.498
		c0.148,0.125,0.436,0.264,0.866,0.418c0.359,0.129,0.62,0.246,0.784,0.35c0.164,0.104,0.286,0.222,0.368,0.353
		c0.082,0.132,0.123,0.287,0.123,0.465c0,0.356-0.135,0.63-0.406,0.822C19.159,88.716,18.775,88.812,18.277,88.812 M13.65,88.812
		c-0.391,0-0.695-0.1-0.912-0.3c-0.217-0.2-0.326-0.477-0.326-0.831c0-0.388,0.162-0.69,0.485-0.905
		c0.323-0.215,0.792-0.328,1.404-0.341l0.758-0.022v-0.264c0-0.378-0.077-0.664-0.231-0.857c-0.154-0.193-0.402-0.289-0.743-0.289
		c-0.369,0-0.751,0.103-1.146,0.308l-0.136-0.315c0.437-0.205,0.869-0.308,1.296-0.308c0.437,0,0.764,0.114,0.98,0.341
		c0.216,0.227,0.324,0.581,0.324,1.062v2.648h-0.267l-0.092-0.63h-0.029c-0.2,0.256-0.406,0.438-0.617,0.544
		C14.188,88.759,13.938,88.812,13.65,88.812 M15.045,86.713l-0.696,0.029c-0.559,0.027-0.958,0.114-1.196,0.262
		s-0.357,0.378-0.357,0.69c0,0.249,0.076,0.443,0.229,0.58c0.153,0.138,0.368,0.207,0.646,0.207c0.425,0,0.76-0.121,1.005-0.364
		c0.245-0.243,0.368-0.58,0.368-1.013V86.713 M87.691,88.739h-0.363v-3.981h0.308l0.037,0.718h0.026
		c0.164-0.293,0.338-0.499,0.524-0.617c0.186-0.118,0.41-0.178,0.674-0.178c0.168,0,0.349,0.017,0.542,0.051l-0.07,0.348
		c-0.166-0.041-0.338-0.062-0.516-0.062c-0.339,0-0.618,0.144-0.835,0.432c-0.217,0.288-0.326,0.652-0.326,1.091V88.739
		 M64.818,88.739h-0.363v-3.981h0.363V88.739 M62.491,88.739h-0.359v-2.582c0-0.4-0.084-0.692-0.253-0.873
		c-0.168-0.182-0.43-0.273-0.784-0.273c-0.476,0-0.825,0.12-1.046,0.361c-0.221,0.241-0.331,0.631-0.331,1.17v2.197h-0.363V83.04
		h0.363v1.813l-0.018,0.509h0.026c0.149-0.239,0.337-0.413,0.564-0.52c0.227-0.107,0.509-0.161,0.846-0.161
		c0.903,0,1.355,0.485,1.355,1.454V88.739 M51.887,88.739h-0.363v-3.981h0.308l0.037,0.718h0.026
		c0.164-0.293,0.338-0.499,0.524-0.617c0.186-0.118,0.41-0.178,0.674-0.178c0.168,0,0.349,0.017,0.542,0.051l-0.07,0.348
		c-0.166-0.041-0.338-0.062-0.516-0.062c-0.339,0-0.618,0.144-0.835,0.432c-0.217,0.288-0.326,0.652-0.326,1.091V88.739
		 M50.183,88.739h-0.421l-0.743-1.89h-2.175l-0.747,1.89h-0.414l2.153-5.376h0.238L50.183,88.739 M47.945,83.952
		c-0.066,0.234-0.138,0.447-0.216,0.637l-0.751,1.923h1.915l-0.729-1.93C48.104,84.431,48.031,84.221,47.945,83.952 M41.344,88.739
		h-0.363v-3.666h-0.74V84.86l0.74-0.136v-0.308c0-0.488,0.09-0.847,0.269-1.075C41.43,83.114,41.723,83,42.131,83
		c0.22,0,0.439,0.033,0.659,0.099l-0.084,0.315c-0.195-0.061-0.389-0.092-0.582-0.092c-0.283,0-0.484,0.084-0.602,0.251
		c-0.118,0.167-0.178,0.439-0.178,0.815v0.37h0.938v0.315h-0.938V88.739 M29.878,88.739h-0.363v-3.981h0.308l0.037,0.718h0.026
		c0.164-0.293,0.338-0.499,0.524-0.617c0.186-0.118,0.41-0.178,0.674-0.178c0.168,0,0.349,0.017,0.542,0.051l-0.07,0.348
		c-0.166-0.041-0.338-0.062-0.516-0.062c-0.339,0-0.618,0.144-0.835,0.432c-0.217,0.288-0.326,0.652-0.326,1.091V88.739
		 M10.624,88.739h-0.377v-4.058c0-0.283,0.015-0.576,0.044-0.879h-0.029l-2.003,4.937H8.02l-1.996-4.944H5.995
		c0.02,0.303,0.029,0.613,0.029,0.93v4.014H5.666v-5.354h0.579l1.897,4.709h0.022l1.897-4.709h0.564V88.739 M64.635,84.007
		c-0.154,0-0.231-0.118-0.231-0.355c0-0.234,0.077-0.352,0.231-0.352l0.178,0.092c0.043,0.061,0.064,0.148,0.064,0.26
		c0,0.11-0.021,0.197-0.064,0.26L64.635,84.007"/>
	<path fill="#000000" d="M32.168,99.812c-0.195,0-0.293-0.12-0.293-0.359c0-0.239,0.098-0.359,0.293-0.359c0.2,0,0.3,0.12,0.3,0.359
		C32.468,99.692,32.368,99.812,32.168,99.812 M28.094,99.812c-0.544,0-1.019-0.101-1.425-0.304v-0.363
		c0.205,0.107,0.435,0.192,0.69,0.253c0.255,0.061,0.495,0.092,0.72,0.092c0.539,0,0.945-0.109,1.216-0.328
		c0.271-0.218,0.406-0.527,0.406-0.925c0-0.354-0.139-0.626-0.416-0.817c-0.277-0.19-0.684-0.286-1.221-0.286h-0.579v-0.352h0.586
		c0.444,0,0.797-0.106,1.057-0.317c0.26-0.211,0.39-0.497,0.39-0.859c0-0.298-0.106-0.537-0.317-0.716
		c-0.211-0.179-0.488-0.269-0.829-0.269c-0.266,0-0.509,0.037-0.729,0.112c-0.22,0.074-0.466,0.202-0.74,0.383l-0.179-0.245
		c0.207-0.173,0.458-0.311,0.751-0.412c0.293-0.101,0.59-0.152,0.89-0.152c0.493,0,0.874,0.117,1.143,0.35
		c0.269,0.233,0.403,0.562,0.403,0.987c0,0.332-0.104,0.612-0.313,0.839c-0.209,0.227-0.489,0.372-0.84,0.436v0.022
		c0.43,0.054,0.757,0.19,0.981,0.41c0.225,0.22,0.337,0.515,0.337,0.886c0,0.501-0.17,0.888-0.511,1.163
		C29.224,99.674,28.734,99.812,28.094,99.812 M22.13,99.812c-0.195,0-0.293-0.12-0.293-0.359c0-0.239,0.098-0.359,0.293-0.359
		c0.2,0,0.3,0.12,0.3,0.359C22.431,99.692,22.33,99.812,22.13,99.812 M7.998,99.812c-0.845,0-1.492-0.239-1.943-0.716
		c-0.45-0.477-0.676-1.153-0.676-2.027c0-0.544,0.112-1.027,0.335-1.448c0.223-0.421,0.543-0.746,0.959-0.976
		C7.091,94.415,7.569,94.3,8.108,94.3c0.583,0,1.107,0.107,1.571,0.322l-0.15,0.337c-0.464-0.215-0.945-0.322-1.443-0.322
		c-0.706,0-1.265,0.218-1.679,0.654c-0.414,0.436-0.621,1.024-0.621,1.763c0,0.806,0.196,1.412,0.59,1.818
		c0.393,0.406,0.97,0.61,1.732,0.61c0.493,0,0.912-0.07,1.256-0.209v-1.882H7.771V97.04h1.974v2.443
		C9.228,99.702,8.645,99.812,7.998,99.812 M41.194,99.739h-0.359v-3.9c0-0.354,0.015-0.721,0.044-1.102l-0.114,0.106
		c-0.039,0.034-0.416,0.331-1.132,0.89l-0.209-0.26l1.454-1.088h0.315V99.739 M35.392,99.739h-0.428l2.205-5.002h-3.029v-0.352
		h3.464v0.267L35.392,99.739 M20.569,99.739h-0.421l-0.743-1.89h-2.175l-0.747,1.89h-0.414l2.153-5.376h0.238L20.569,99.739
		 M18.331,94.952c-0.066,0.234-0.138,0.447-0.216,0.637l-0.751,1.923h1.915l-0.729-1.93C18.49,95.431,18.417,95.221,18.331,94.952
		 M12.138,99.739h-0.374v-5.354h1.311c1.274,0,1.912,0.513,1.912,1.538c0,0.518-0.176,0.914-0.527,1.19
		c-0.352,0.276-0.85,0.414-1.494,0.414h-0.828V99.739 M12.138,94.721v2.483h0.736c0.603,0,1.039-0.099,1.307-0.298
		c0.269-0.199,0.403-0.522,0.403-0.969c0-0.413-0.127-0.718-0.381-0.917c-0.254-0.199-0.647-0.298-1.179-0.298H12.138 M22.13,96.545
		l-0.209-0.084c-0.056-0.056-0.084-0.149-0.084-0.278c0-0.239,0.098-0.359,0.293-0.359c0.2,0,0.3,0.12,0.3,0.359
		c0,0.129-0.029,0.222-0.086,0.278L22.13,96.545"/>
	<path fill="#000000" d="M64.348,112.54c-0.5,0-0.888-0.096-1.163-0.289c-0.275-0.193-0.412-0.461-0.412-0.806
		c0-0.273,0.085-0.5,0.255-0.681c0.17-0.181,0.4-0.304,0.69-0.37c-0.12-0.051-0.215-0.124-0.287-0.218
		c-0.072-0.094-0.108-0.202-0.108-0.324c0-0.266,0.17-0.5,0.509-0.703c-0.232-0.095-0.413-0.245-0.542-0.449
		c-0.129-0.204-0.194-0.438-0.194-0.701c0-0.398,0.126-0.717,0.379-0.958c0.253-0.24,0.594-0.361,1.024-0.361
		c0.261,0,0.464,0.026,0.608,0.077h1.274v0.253l-0.824,0.051c0.22,0.273,0.33,0.574,0.33,0.901c0,0.383-0.128,0.694-0.383,0.932
		c-0.255,0.238-0.598,0.357-1.027,0.357c-0.181,0-0.308-0.007-0.381-0.022c-0.144,0.076-0.254,0.165-0.33,0.267
		c-0.076,0.103-0.114,0.211-0.114,0.326c0,0.127,0.048,0.22,0.145,0.278c0.096,0.059,0.258,0.088,0.485,0.088h0.696
		c0.432,0,0.763,0.087,0.992,0.262c0.229,0.175,0.344,0.433,0.344,0.775c0,0.42-0.17,0.744-0.511,0.972
		C65.463,112.426,64.978,112.54,64.348,112.54 M64.253,110.552c-0.73,0-1.095,0.287-1.095,0.861c0,0.547,0.406,0.82,1.219,0.82
		c1.045,0,1.567-0.333,1.567-1c0-0.239-0.082-0.413-0.245-0.52c-0.164-0.107-0.428-0.161-0.795-0.161H64.253 M64.483,106.967
		c-0.317,0-0.567,0.091-0.749,0.273c-0.182,0.182-0.273,0.435-0.273,0.76c0,0.308,0.093,0.546,0.28,0.716
		c0.187,0.17,0.436,0.254,0.749,0.254c0.332,0,0.587-0.084,0.764-0.253c0.177-0.168,0.266-0.413,0.266-0.732
		c0-0.339-0.091-0.594-0.273-0.764C65.065,107.051,64.81,106.967,64.483,106.967 M76.667,110.812c-0.266,0-0.519-0.026-0.758-0.079
		c-0.239-0.052-0.439-0.128-0.601-0.225v-0.377c0.264,0.134,0.498,0.228,0.703,0.28c0.205,0.053,0.424,0.079,0.656,0.079
		c0.469,0,0.845-0.124,1.128-0.372c0.283-0.248,0.425-0.583,0.425-1.005c0-0.398-0.138-0.71-0.414-0.937
		c-0.276-0.227-0.651-0.341-1.124-0.341c-0.317,0-0.649,0.048-0.996,0.143l-0.22-0.143l0.212-2.45h2.578v0.352h-2.234l-0.165,1.89
		c0.381-0.071,0.679-0.106,0.894-0.106c0.571,0,1.021,0.138,1.349,0.414c0.328,0.276,0.493,0.656,0.493,1.139
		c0,0.549-0.171,0.977-0.513,1.282C77.739,110.659,77.268,110.812,76.667,110.812 M59.491,110.812c-0.906,0-1.359-0.485-1.359-1.454
		v-2.6h0.359v2.578c0,0.4,0.084,0.692,0.253,0.873c0.168,0.182,0.43,0.273,0.784,0.273c0.474,0,0.822-0.12,1.046-0.359
		c0.223-0.239,0.335-0.629,0.335-1.168v-2.197h0.359v3.981h-0.308l-0.066-0.549h-0.022
		C60.612,110.604,60.152,110.812,59.491,110.812 M48.138,110.812c-0.195,0-0.293-0.12-0.293-0.359c0-0.239,0.098-0.359,0.293-0.359
		c0.2,0,0.3,0.12,0.3,0.359C48.439,110.692,48.338,110.812,48.138,110.812 M44.244,110.812c-0.549,0-0.969-0.171-1.26-0.513
		c-0.291-0.342-0.436-0.84-0.436-1.494c0-0.689,0.144-1.215,0.432-1.578c0.288-0.364,0.707-0.546,1.256-0.546
		c0.288,0,0.537,0.053,0.747,0.157c0.21,0.105,0.398,0.284,0.564,0.538h0.022c-0.015-0.308-0.022-0.609-0.022-0.905v-1.432h0.359
		v5.698h-0.238l-0.092-0.608h-0.029C45.245,110.585,44.811,110.812,44.244,110.812 M44.237,107.01c-0.435,0-0.761,0.153-0.98,0.458
		c-0.219,0.305-0.328,0.748-0.328,1.329c0,1.128,0.438,1.692,1.315,1.692c0.449,0,0.779-0.131,0.989-0.392
		c0.21-0.261,0.315-0.692,0.315-1.293v-0.062c0-0.615-0.103-1.058-0.309-1.328C45.032,107.145,44.698,107.01,44.237,107.01
		 M39.596,110.812c-0.579,0-1.03-0.178-1.353-0.535c-0.324-0.356-0.485-0.856-0.485-1.498c0-0.635,0.156-1.143,0.469-1.525
		c0.312-0.382,0.734-0.573,1.263-0.573c0.469,0,0.839,0.164,1.11,0.491c0.271,0.327,0.406,0.771,0.406,1.333v0.293h-2.867
		c0.005,0.547,0.132,0.964,0.383,1.252c0.25,0.288,0.608,0.432,1.075,0.432c0.227,0,0.427-0.016,0.599-0.048
		c0.172-0.032,0.39-0.1,0.654-0.205v0.33c-0.225,0.098-0.432,0.164-0.623,0.2C40.035,110.794,39.825,110.812,39.596,110.812
		 M39.49,107.003c-0.383,0-0.691,0.126-0.923,0.379c-0.232,0.253-0.367,0.617-0.406,1.093h2.461c0-0.461-0.1-0.822-0.3-1.082
		C40.121,107.133,39.844,107.003,39.49,107.003 M35.845,110.812c-0.352,0-0.611-0.094-0.778-0.282
		c-0.167-0.188-0.251-0.483-0.251-0.886v-2.571h-0.59v-0.212l0.59-0.165l0.183-0.901h0.187v0.963h1.168v0.315h-1.168v2.52
		c0,0.305,0.054,0.531,0.161,0.677c0.107,0.146,0.276,0.22,0.505,0.22c0.229,0,0.43-0.02,0.601-0.059v0.293
		C36.277,110.782,36.074,110.812,35.845,110.812 M31.083,110.812c-0.391,0-0.695-0.1-0.912-0.3c-0.217-0.2-0.326-0.477-0.326-0.831
		c0-0.388,0.162-0.69,0.485-0.905c0.323-0.215,0.792-0.328,1.404-0.341l0.758-0.022v-0.264c0-0.378-0.077-0.664-0.231-0.857
		c-0.154-0.193-0.402-0.289-0.743-0.289c-0.369,0-0.751,0.103-1.146,0.308l-0.135-0.315c0.437-0.205,0.869-0.308,1.296-0.308
		c0.437,0,0.764,0.114,0.98,0.341c0.216,0.227,0.324,0.581,0.324,1.062v2.648H32.57l-0.092-0.63h-0.029
		c-0.2,0.256-0.406,0.438-0.617,0.544C31.62,110.759,31.371,110.812,31.083,110.812 M32.478,108.713l-0.696,0.029
		c-0.559,0.027-0.958,0.114-1.196,0.262c-0.238,0.148-0.357,0.378-0.357,0.69c0,0.249,0.076,0.443,0.229,0.58
		c0.153,0.138,0.368,0.207,0.646,0.207c0.425,0,0.76-0.121,1.005-0.364c0.245-0.243,0.368-0.58,0.368-1.013V108.713 M26.368,110.812
		c-0.906,0-1.359-0.485-1.359-1.454v-2.6h0.359v2.578c0,0.4,0.084,0.692,0.253,0.873c0.168,0.182,0.43,0.273,0.784,0.273
		c0.474,0,0.822-0.12,1.046-0.359c0.223-0.239,0.335-0.629,0.335-1.168v-2.197h0.359v3.981h-0.308l-0.066-0.549h-0.022
		C27.49,110.604,27.03,110.812,26.368,110.812 M21.379,110.812c-0.549,0-0.969-0.171-1.26-0.513
		c-0.291-0.342-0.436-0.84-0.436-1.494c0-0.689,0.144-1.215,0.432-1.578c0.288-0.364,0.707-0.546,1.256-0.546
		c0.288,0,0.537,0.053,0.747,0.157c0.21,0.105,0.398,0.284,0.564,0.538h0.022c-0.015-0.308-0.022-0.609-0.022-0.905v-1.432h0.359
		v5.698h-0.238l-0.092-0.608h-0.029C22.38,110.585,21.946,110.812,21.379,110.812 M21.372,107.01c-0.435,0-0.761,0.153-0.98,0.458
		c-0.219,0.305-0.328,0.748-0.328,1.329c0,1.128,0.438,1.692,1.315,1.692c0.449,0,0.779-0.131,0.989-0.392
		c0.21-0.261,0.315-0.692,0.315-1.293v-0.062c0-0.615-0.103-1.058-0.309-1.328C22.167,107.145,21.834,107.01,21.372,107.01
		 M16.196,110.812c-0.391,0-0.695-0.1-0.912-0.3c-0.217-0.2-0.326-0.477-0.326-0.831c0-0.388,0.162-0.69,0.485-0.905
		c0.323-0.215,0.792-0.328,1.404-0.341l0.758-0.022v-0.264c0-0.378-0.077-0.664-0.231-0.857s-0.402-0.289-0.743-0.289
		c-0.369,0-0.751,0.103-1.146,0.308l-0.136-0.315c0.437-0.205,0.869-0.308,1.296-0.308c0.437,0,0.764,0.114,0.98,0.341
		c0.216,0.227,0.324,0.581,0.324,1.062v2.648h-0.267l-0.092-0.63h-0.029c-0.2,0.256-0.406,0.438-0.617,0.544
		C16.734,110.759,16.484,110.812,16.196,110.812 M17.592,108.713l-0.696,0.029c-0.559,0.027-0.958,0.114-1.196,0.262
		c-0.238,0.148-0.357,0.378-0.357,0.69c0,0.249,0.076,0.443,0.229,0.58c0.153,0.138,0.368,0.207,0.646,0.207
		c0.425,0,0.76-0.121,1.005-0.364c0.245-0.243,0.368-0.58,0.368-1.013V108.713 M7.998,110.812c-0.845,0-1.492-0.239-1.943-0.716
		c-0.45-0.477-0.676-1.153-0.676-2.027c0-0.544,0.112-1.027,0.335-1.448c0.223-0.421,0.543-0.746,0.959-0.976
		c0.416-0.229,0.894-0.344,1.434-0.344c0.583,0,1.107,0.107,1.571,0.322l-0.15,0.337c-0.464-0.215-0.945-0.322-1.443-0.322
		c-0.706,0-1.265,0.218-1.679,0.654c-0.414,0.436-0.621,1.024-0.621,1.763c0,0.806,0.196,1.412,0.59,1.818
		c0.393,0.406,0.97,0.61,1.732,0.61c0.493,0,0.912-0.07,1.256-0.209v-1.882H7.771v-0.352h1.974v2.443
		C9.228,110.702,8.645,110.812,7.998,110.812 M73.593,110.739h-3.351v-0.322l1.425-1.487c0.4-0.415,0.681-0.732,0.842-0.952
		c0.161-0.22,0.28-0.43,0.355-0.63c0.076-0.2,0.114-0.41,0.114-0.63c0-0.32-0.105-0.58-0.315-0.78c-0.21-0.2-0.482-0.3-0.817-0.3
		c-0.447,0-0.874,0.162-1.282,0.487l-0.198-0.253c0.447-0.376,0.942-0.564,1.487-0.564c0.466,0,0.833,0.125,1.1,0.374
		c0.267,0.249,0.401,0.592,0.401,1.029c0,0.354-0.09,0.696-0.269,1.027c-0.179,0.331-0.507,0.739-0.983,1.225l-1.373,1.41v0.015
		h2.864V110.739 M56.834,110.739h-0.421l-0.743-1.89h-2.175l-0.747,1.89h-0.414l2.153-5.376h0.238L56.834,110.739 M54.597,105.952
		c-0.066,0.234-0.138,0.447-0.216,0.637l-0.751,1.923h1.915l-0.729-1.93C54.756,106.431,54.682,106.221,54.597,105.952
		 M12.035,110.739h-0.363v-3.981h0.308l0.037,0.718h0.026c0.164-0.293,0.338-0.499,0.524-0.617s0.41-0.178,0.674-0.178
		c0.168,0,0.349,0.017,0.542,0.051l-0.07,0.348c-0.166-0.041-0.338-0.062-0.516-0.062c-0.339,0-0.618,0.144-0.835,0.432
		c-0.217,0.288-0.326,0.652-0.326,1.091V110.739 M48.138,107.545l-0.209-0.084c-0.056-0.056-0.084-0.149-0.084-0.278
		c0-0.239,0.098-0.359,0.293-0.359c0.2,0,0.3,0.12,0.3,0.359c0,0.129-0.029,0.222-0.086,0.278L48.138,107.545 M80.085,107.219
		h-0.238c0.071-0.234,0.145-0.529,0.223-0.884c0.078-0.355,0.138-0.672,0.179-0.95h0.428l0.044,0.073
		C80.539,106.105,80.327,106.692,80.085,107.219"/>
	<path fill="#000000" d="M173.984,134.54c-0.5,0-0.888-0.096-1.163-0.289c-0.275-0.193-0.412-0.461-0.412-0.806
		c0-0.273,0.085-0.5,0.255-0.681c0.17-0.181,0.4-0.304,0.69-0.37c-0.12-0.051-0.215-0.124-0.287-0.218
		c-0.072-0.094-0.108-0.202-0.108-0.324c0-0.266,0.17-0.5,0.509-0.703c-0.232-0.095-0.413-0.245-0.542-0.449
		c-0.129-0.204-0.194-0.438-0.194-0.701c0-0.398,0.126-0.717,0.379-0.958c0.253-0.24,0.594-0.361,1.024-0.361
		c0.261,0,0.464,0.026,0.608,0.077h1.274v0.253l-0.824,0.051c0.22,0.273,0.33,0.574,0.33,0.901c0,0.383-0.128,0.694-0.383,0.932
		c-0.255,0.238-0.598,0.357-1.027,0.357c-0.181,0-0.308-0.007-0.381-0.022c-0.144,0.076-0.254,0.165-0.33,0.267
		c-0.076,0.103-0.114,0.211-0.114,0.326c0,0.127,0.048,0.22,0.145,0.278c0.096,0.059,0.258,0.088,0.485,0.088h0.696
		c0.432,0,0.763,0.087,0.992,0.262c0.229,0.175,0.344,0.433,0.344,0.775c0,0.42-0.17,0.744-0.511,0.972
		C175.099,134.426,174.613,134.54,173.984,134.54 M173.888,132.552c-0.73,0-1.095,0.287-1.095,0.861c0,0.547,0.407,0.82,1.219,0.82
		c1.045,0,1.567-0.333,1.567-1c0-0.239-0.082-0.413-0.245-0.52c-0.164-0.107-0.428-0.161-0.795-0.161H173.888 M174.119,128.967
		c-0.317,0-0.567,0.091-0.749,0.273c-0.182,0.182-0.273,0.435-0.273,0.76c0,0.308,0.093,0.546,0.28,0.716
		c0.187,0.17,0.436,0.255,0.749,0.255c0.332,0,0.587-0.084,0.764-0.253c0.177-0.168,0.266-0.413,0.266-0.732
		c0-0.339-0.091-0.594-0.273-0.764C174.701,129.051,174.446,128.967,174.119,128.967 M157.071,134.54h-0.363v-5.782h0.308
		l0.07,0.568h0.022c0.273-0.43,0.71-0.645,1.311-0.645c0.537,0,0.947,0.176,1.229,0.529c0.282,0.353,0.423,0.866,0.423,1.54
		c0,0.654-0.148,1.162-0.445,1.522c-0.297,0.36-0.701,0.54-1.214,0.54c-0.613,0-1.06-0.229-1.34-0.689h-0.026l0.011,0.308
		c0.01,0.181,0.015,0.378,0.015,0.593V134.54 M158.419,129.01c-0.464,0-0.804,0.128-1.022,0.383
		c-0.217,0.255-0.326,0.671-0.326,1.247v0.117c0,0.623,0.104,1.067,0.313,1.333c0.209,0.266,0.549,0.399,1.02,0.399
		c0.408,0,0.723-0.151,0.947-0.454c0.223-0.303,0.335-0.726,0.335-1.271C159.686,129.595,159.263,129.01,158.419,129.01
		 M57.39,133.925h-0.406c0.742-0.986,1.113-2.069,1.113-3.248c0-0.627-0.096-1.223-0.289-1.785c-0.193-0.563-0.47-1.065-0.831-1.507
		h0.414c0.359,0.427,0.632,0.923,0.82,1.489c0.188,0.565,0.282,1.169,0.282,1.811c0,0.642-0.095,1.24-0.284,1.794
		C58.019,133.033,57.746,133.515,57.39,133.925 M50.891,133.925h-0.406c-0.359-0.415-0.632-0.9-0.82-1.454
		c-0.188-0.554-0.282-1.15-0.282-1.787c0-0.647,0.095-1.252,0.284-1.816c0.189-0.564,0.462-1.058,0.818-1.483h0.414
		c-0.361,0.444-0.638,0.948-0.831,1.511c-0.193,0.563-0.289,1.157-0.289,1.782C49.778,131.856,50.149,132.939,50.891,133.925
		 M126.705,133.705h-0.238c0.071-0.237,0.146-0.536,0.227-0.899c0.081-0.363,0.139-0.676,0.176-0.939h0.428l0.044,0.077
		C127.159,132.591,126.947,133.178,126.705,133.705 M109.949,133.705h-0.238c0.071-0.237,0.146-0.536,0.227-0.899
		c0.081-0.363,0.139-0.676,0.176-0.939h0.428l0.044,0.077C110.403,132.591,110.19,133.178,109.949,133.705 M93.192,133.705h-0.238
		c0.071-0.237,0.146-0.536,0.227-0.899c0.081-0.363,0.139-0.676,0.176-0.939h0.428l0.044,0.077
		C93.647,132.591,93.434,133.178,93.192,133.705 M153.192,132.812c-0.654,0-1.156-0.072-1.505-0.216v-0.374
		c0.386,0.164,0.878,0.245,1.476,0.245c0.439,0,0.788-0.101,1.046-0.302c0.258-0.201,0.386-0.466,0.386-0.793
		c0-0.203-0.043-0.37-0.128-0.504c-0.085-0.133-0.225-0.255-0.417-0.364c-0.193-0.11-0.476-0.228-0.85-0.355
		c-0.547-0.188-0.925-0.391-1.133-0.61c-0.209-0.218-0.313-0.51-0.313-0.873c0-0.4,0.157-0.727,0.471-0.98
		c0.314-0.253,0.717-0.379,1.21-0.379c0.503,0,0.975,0.095,1.417,0.286l-0.136,0.322c-0.444-0.186-0.869-0.278-1.274-0.278
		c-0.396,0-0.71,0.092-0.945,0.275c-0.234,0.183-0.352,0.432-0.352,0.747c0,0.198,0.036,0.36,0.108,0.487
		c0.072,0.127,0.19,0.241,0.353,0.342c0.164,0.101,0.444,0.223,0.842,0.364c0.417,0.144,0.731,0.284,0.941,0.419
		c0.21,0.135,0.363,0.289,0.46,0.461c0.096,0.172,0.145,0.38,0.145,0.624c0,0.447-0.164,0.801-0.493,1.062
		C154.172,132.681,153.736,132.812,153.192,132.812 M121.239,132.812c-0.544,0-1.019-0.101-1.425-0.304v-0.363
		c0.205,0.107,0.435,0.192,0.69,0.253c0.255,0.061,0.495,0.092,0.72,0.092c0.54,0,0.945-0.109,1.216-0.328
		c0.271-0.218,0.406-0.527,0.406-0.925c0-0.354-0.139-0.626-0.416-0.817c-0.277-0.19-0.684-0.286-1.221-0.286h-0.579v-0.352h0.586
		c0.444,0,0.797-0.106,1.056-0.317c0.26-0.211,0.39-0.497,0.39-0.859c0-0.298-0.106-0.537-0.317-0.716
		c-0.211-0.179-0.488-0.269-0.829-0.269c-0.266,0-0.509,0.037-0.729,0.112c-0.22,0.074-0.466,0.202-0.74,0.383l-0.179-0.245
		c0.207-0.173,0.458-0.311,0.751-0.412c0.293-0.101,0.59-0.152,0.89-0.152c0.493,0,0.874,0.117,1.143,0.35
		c0.269,0.233,0.403,0.562,0.403,0.987c0,0.332-0.104,0.612-0.313,0.839c-0.209,0.227-0.489,0.372-0.84,0.436v0.022
		c0.43,0.054,0.757,0.19,0.981,0.41c0.225,0.22,0.337,0.515,0.337,0.886c0,0.501-0.17,0.888-0.511,1.163
		C122.369,132.674,121.879,132.812,121.239,132.812 M88.089,132.812c-0.559,0-0.984-0.233-1.274-0.698
		c-0.291-0.465-0.436-1.154-0.436-2.067c0-0.933,0.141-1.624,0.423-2.073c0.282-0.449,0.711-0.674,1.287-0.674
		c0.564,0,0.994,0.233,1.289,0.698c0.295,0.465,0.443,1.148,0.443,2.049c0,0.94-0.143,1.636-0.43,2.087
		C89.104,132.586,88.67,132.812,88.089,132.812 M88.089,127.63c-0.461,0-0.796,0.205-1.003,0.615
		c-0.208,0.41-0.311,1.011-0.311,1.802c0,0.83,0.109,1.443,0.326,1.84c0.217,0.397,0.547,0.595,0.989,0.595
		c0.461,0,0.798-0.205,1.009-0.615c0.211-0.41,0.317-1.017,0.317-1.82c0-0.791-0.106-1.392-0.317-1.802S88.55,127.63,88.089,127.63
		 M70.585,132.812c-0.391,0-0.695-0.1-0.912-0.3c-0.217-0.2-0.326-0.477-0.326-0.831c0-0.388,0.162-0.69,0.485-0.905
		s0.792-0.328,1.404-0.341l0.758-0.022v-0.264c0-0.378-0.077-0.664-0.231-0.857c-0.154-0.193-0.402-0.289-0.743-0.289
		c-0.369,0-0.751,0.103-1.146,0.308l-0.135-0.315c0.437-0.205,0.869-0.308,1.296-0.308c0.437,0,0.764,0.114,0.98,0.341
		c0.216,0.227,0.324,0.581,0.324,1.062v2.648h-0.267l-0.092-0.63h-0.029c-0.2,0.256-0.406,0.438-0.617,0.544
		C71.123,132.759,70.873,132.812,70.585,132.812 M71.981,130.713l-0.696,0.029c-0.559,0.027-0.958,0.114-1.196,0.262
		c-0.238,0.148-0.357,0.378-0.357,0.69c0,0.249,0.076,0.443,0.229,0.58c0.153,0.138,0.368,0.207,0.646,0.207
		c0.425,0,0.76-0.121,1.005-0.364c0.245-0.243,0.368-0.58,0.368-1.013V130.713 M60.354,132.812c-0.195,0-0.293-0.12-0.293-0.359
		c0-0.239,0.098-0.359,0.293-0.359c0.2,0,0.3,0.12,0.3,0.359C60.654,132.692,60.554,132.812,60.354,132.812 M53.913,132.812
		c-0.54,0-0.953-0.123-1.241-0.37c-0.288-0.247-0.432-0.605-0.432-1.077c0-0.32,0.101-0.601,0.304-0.842
		c0.203-0.242,0.516-0.448,0.941-0.619c-0.393-0.186-0.67-0.381-0.831-0.588c-0.161-0.206-0.242-0.453-0.242-0.742
		c0-0.256,0.065-0.482,0.194-0.676c0.129-0.194,0.311-0.344,0.544-0.449c0.233-0.105,0.493-0.157,0.778-0.157
		c0.454,0,0.82,0.116,1.097,0.348c0.277,0.232,0.416,0.546,0.416,0.941c0,0.273-0.086,0.515-0.258,0.725
		c-0.172,0.21-0.451,0.404-0.837,0.582c0.469,0.193,0.798,0.404,0.989,0.634s0.286,0.508,0.286,0.835
		c0,0.442-0.154,0.795-0.463,1.058C54.848,132.68,54.433,132.812,53.913,132.812 M53.851,130.054
		c-0.449,0.173-0.768,0.365-0.956,0.575c-0.188,0.21-0.282,0.474-0.282,0.791c0,0.337,0.114,0.598,0.342,0.784
		c0.228,0.186,0.547,0.278,0.958,0.278c0.4,0,0.723-0.098,0.967-0.295c0.244-0.197,0.366-0.463,0.366-0.8
		c0-0.303-0.096-0.549-0.288-0.738C54.767,130.46,54.398,130.262,53.851,130.054 M53.921,127.623c-0.344,0-0.621,0.085-0.829,0.255
		c-0.209,0.17-0.313,0.402-0.313,0.698c0,0.171,0.038,0.322,0.115,0.452c0.077,0.131,0.188,0.249,0.333,0.355
		c0.145,0.106,0.389,0.23,0.731,0.372c0.398-0.154,0.684-0.323,0.857-0.509c0.173-0.186,0.26-0.409,0.26-0.67
		c0-0.293-0.103-0.525-0.309-0.696C54.558,127.708,54.277,127.623,53.921,127.623 M44.981,132.812c-0.352,0-0.611-0.094-0.778-0.282
		c-0.167-0.188-0.251-0.483-0.251-0.886v-2.571h-0.59v-0.212l0.59-0.165l0.183-0.901h0.187v0.963h1.168v0.315h-1.168v2.52
		c0,0.305,0.054,0.531,0.161,0.677s0.276,0.22,0.505,0.22c0.229,0,0.43-0.02,0.601-0.059v0.293
		C45.414,132.782,45.211,132.812,44.981,132.812 M40.677,132.812c-0.532,0-0.955-0.082-1.267-0.245v-0.392
		c0.4,0.2,0.823,0.3,1.267,0.3c0.393,0,0.691-0.065,0.895-0.196c0.204-0.131,0.306-0.305,0.306-0.522c0-0.2-0.081-0.369-0.244-0.505
		c-0.162-0.137-0.429-0.271-0.8-0.403c-0.398-0.144-0.677-0.268-0.839-0.372c-0.161-0.104-0.283-0.221-0.364-0.352
		c-0.082-0.131-0.123-0.29-0.123-0.478c0-0.298,0.125-0.533,0.375-0.707c0.25-0.173,0.6-0.26,1.049-0.26
		c0.43,0,0.837,0.081,1.223,0.242l-0.136,0.33c-0.391-0.161-0.753-0.242-1.088-0.242c-0.325,0-0.582,0.054-0.773,0.161
		c-0.19,0.107-0.286,0.256-0.286,0.447c0,0.208,0.074,0.374,0.222,0.498c0.148,0.125,0.436,0.264,0.866,0.417
		c0.359,0.129,0.62,0.246,0.784,0.35c0.164,0.104,0.286,0.222,0.368,0.353c0.082,0.132,0.123,0.287,0.123,0.465
		c0,0.356-0.136,0.63-0.406,0.822C41.56,132.716,41.175,132.812,40.677,132.812 M26.991,132.812c-0.532,0-0.955-0.082-1.267-0.245
		v-0.392c0.4,0.2,0.823,0.3,1.267,0.3c0.393,0,0.692-0.065,0.895-0.196c0.204-0.131,0.306-0.305,0.306-0.522
		c0-0.2-0.081-0.369-0.244-0.505c-0.162-0.137-0.429-0.271-0.8-0.403c-0.398-0.144-0.677-0.268-0.839-0.372
		c-0.161-0.104-0.283-0.221-0.364-0.352c-0.082-0.131-0.123-0.29-0.123-0.478c0-0.298,0.125-0.533,0.375-0.707
		c0.25-0.173,0.6-0.26,1.049-0.26c0.43,0,0.837,0.081,1.223,0.242l-0.136,0.33c-0.391-0.161-0.753-0.242-1.088-0.242
		c-0.325,0-0.582,0.054-0.773,0.161c-0.19,0.107-0.286,0.256-0.286,0.447c0,0.208,0.074,0.374,0.222,0.498
		c0.148,0.125,0.436,0.264,0.866,0.417c0.359,0.129,0.62,0.246,0.784,0.35c0.164,0.104,0.286,0.222,0.368,0.353
		c0.082,0.132,0.123,0.287,0.123,0.465c0,0.356-0.135,0.63-0.406,0.822C27.874,132.716,27.489,132.812,26.991,132.812
		 M17.266,132.812c-0.391,0-0.695-0.1-0.912-0.3c-0.217-0.2-0.326-0.477-0.326-0.831c0-0.388,0.162-0.69,0.485-0.905
		s0.792-0.328,1.404-0.341l0.758-0.022v-0.264c0-0.378-0.077-0.664-0.231-0.857c-0.154-0.193-0.402-0.289-0.743-0.289
		c-0.369,0-0.751,0.103-1.146,0.308l-0.135-0.315c0.437-0.205,0.869-0.308,1.296-0.308c0.437,0,0.764,0.114,0.98,0.341
		c0.216,0.227,0.324,0.581,0.324,1.062v2.648h-0.267l-0.092-0.63h-0.029c-0.2,0.256-0.406,0.438-0.617,0.544
		C17.803,132.759,17.554,132.812,17.266,132.812 M18.661,130.713l-0.696,0.029c-0.559,0.027-0.958,0.114-1.196,0.262
		s-0.357,0.378-0.357,0.69c0,0.249,0.076,0.443,0.229,0.58c0.153,0.138,0.368,0.207,0.646,0.207c0.425,0,0.76-0.121,1.005-0.364
		c0.245-0.243,0.368-0.58,0.368-1.013V130.713 M13.152,132.812c-0.579,0-1.03-0.178-1.353-0.535
		c-0.324-0.356-0.485-0.856-0.485-1.498c0-0.635,0.156-1.143,0.469-1.525c0.312-0.382,0.734-0.573,1.263-0.573
		c0.469,0,0.839,0.164,1.11,0.491c0.271,0.327,0.406,0.771,0.406,1.333v0.293h-2.867c0.005,0.547,0.132,0.964,0.383,1.252
		c0.25,0.288,0.608,0.432,1.075,0.432c0.227,0,0.427-0.016,0.599-0.048c0.172-0.032,0.39-0.1,0.654-0.205v0.33
		c-0.225,0.098-0.432,0.164-0.623,0.2C13.592,132.794,13.382,132.812,13.152,132.812 M13.046,129.003
		c-0.383,0-0.691,0.126-0.923,0.379c-0.232,0.253-0.367,0.617-0.407,1.093h2.461c0-0.461-0.1-0.822-0.3-1.082
		C13.677,129.133,13.4,129.003,13.046,129.003 M170.946,132.739h-0.359v-2.582c0-0.4-0.084-0.692-0.253-0.873
		c-0.168-0.182-0.43-0.273-0.784-0.273c-0.476,0-0.825,0.12-1.046,0.361c-0.221,0.24-0.331,0.631-0.331,1.17v2.197h-0.363v-3.981
		h0.308l0.07,0.546h0.022c0.259-0.415,0.719-0.623,1.381-0.623c0.903,0,1.355,0.485,1.355,1.454V132.739 M165.804,132.739h-0.363
		v-3.981h0.363V132.739 M162.21,132.739h-0.363v-3.981h0.308l0.037,0.718h0.026c0.164-0.293,0.338-0.499,0.524-0.617
		c0.186-0.118,0.41-0.178,0.674-0.178c0.168,0,0.349,0.017,0.542,0.051l-0.07,0.348c-0.166-0.041-0.338-0.062-0.516-0.062
		c-0.339,0-0.618,0.144-0.835,0.432c-0.217,0.288-0.326,0.652-0.326,1.091V132.739 M139.482,132.739h-0.344v-1.366h-2.754v-0.245
		l2.655-3.772h0.443v3.702h0.923v0.315h-0.923V132.739 M139.16,127.67c-0.049,0.09-0.199,0.32-0.45,0.689l-1.89,2.699h2.318v-1.531
		c0-0.737,0.017-1.356,0.051-1.857H139.16 M135.035,132.739h-3.351v-0.322l1.425-1.487c0.4-0.415,0.681-0.732,0.842-0.952
		c0.161-0.22,0.28-0.43,0.355-0.63c0.076-0.2,0.114-0.41,0.114-0.63c0-0.32-0.105-0.58-0.315-0.78c-0.21-0.2-0.482-0.3-0.817-0.3
		c-0.447,0-0.874,0.162-1.282,0.487l-0.198-0.253c0.447-0.376,0.942-0.564,1.487-0.564c0.466,0,0.833,0.125,1.1,0.374
		c0.267,0.249,0.401,0.592,0.401,1.029c0,0.354-0.09,0.696-0.269,1.027c-0.179,0.331-0.507,0.739-0.983,1.225l-1.373,1.41v0.015
		h2.864V132.739 M118.279,132.739h-3.351v-0.322l1.425-1.487c0.4-0.415,0.681-0.732,0.842-0.952c0.161-0.22,0.28-0.43,0.355-0.63
		c0.076-0.2,0.113-0.41,0.113-0.63c0-0.32-0.105-0.58-0.315-0.78c-0.21-0.2-0.482-0.3-0.817-0.3c-0.447,0-0.874,0.162-1.282,0.487
		l-0.198-0.253c0.447-0.376,0.942-0.564,1.487-0.564c0.466,0,0.833,0.125,1.1,0.374c0.267,0.249,0.401,0.592,0.401,1.029
		c0,0.354-0.09,0.696-0.269,1.027c-0.179,0.331-0.507,0.739-0.983,1.225l-1.373,1.41v0.015h2.864V132.739 M106.478,132.739h-3.351
		v-0.322l1.425-1.487c0.4-0.415,0.681-0.732,0.842-0.952c0.161-0.22,0.28-0.43,0.355-0.63c0.076-0.2,0.114-0.41,0.114-0.63
		c0-0.32-0.105-0.58-0.315-0.78c-0.21-0.2-0.482-0.3-0.817-0.3c-0.447,0-0.874,0.162-1.282,0.487l-0.198-0.253
		c0.447-0.376,0.942-0.564,1.487-0.564c0.466,0,0.833,0.125,1.1,0.374c0.267,0.249,0.401,0.592,0.401,1.029
		c0,0.354-0.09,0.696-0.269,1.027c-0.179,0.331-0.507,0.739-0.983,1.225l-1.373,1.41v0.015h2.864V132.739 M101.522,132.739h-3.351
		v-0.322l1.425-1.487c0.4-0.415,0.681-0.732,0.842-0.952c0.161-0.22,0.28-0.43,0.355-0.63c0.076-0.2,0.114-0.41,0.114-0.63
		c0-0.32-0.105-0.58-0.315-0.78c-0.21-0.2-0.482-0.3-0.817-0.3c-0.447,0-0.874,0.162-1.282,0.487l-0.198-0.253
		c0.447-0.376,0.942-0.564,1.487-0.564c0.466,0,0.833,0.125,1.1,0.374c0.267,0.249,0.401,0.592,0.401,1.029
		c0,0.354-0.09,0.696-0.269,1.027c-0.179,0.331-0.507,0.739-0.983,1.225l-1.373,1.41v0.015h2.864V132.739 M84.766,132.739h-3.351
		v-0.322l1.425-1.487c0.4-0.415,0.681-0.732,0.842-0.952c0.161-0.22,0.28-0.43,0.355-0.63c0.076-0.2,0.114-0.41,0.114-0.63
		c0-0.32-0.105-0.58-0.315-0.78c-0.21-0.2-0.482-0.3-0.817-0.3c-0.447,0-0.874,0.162-1.282,0.487l-0.198-0.253
		c0.447-0.376,0.942-0.564,1.487-0.564c0.466,0,0.833,0.125,1.1,0.374c0.267,0.249,0.401,0.592,0.401,1.029
		c0,0.354-0.09,0.696-0.269,1.027c-0.179,0.331-0.507,0.739-0.983,1.225l-1.373,1.41v0.015h2.864V132.739 M77.037,132.739h-0.363
		v-5.698h0.363V132.739 M74.666,132.739h-0.363v-5.698h0.363V132.739 M65.681,132.739h-0.374v-5.354h2.933v0.344h-2.56v2.271h2.417
		v0.348h-2.417V132.739 M37.761,132.739h-0.363v-3.981h0.363V132.739 M35.892,132.739h-2.926v-5.354h0.374v5.002h2.552V132.739
		 M24.119,132.739H23.76v-2.582c0-0.4-0.084-0.692-0.253-0.873c-0.168-0.182-0.43-0.273-0.784-0.273
		c-0.476,0-0.825,0.12-1.046,0.361c-0.221,0.24-0.331,0.631-0.331,1.17v2.197h-0.363v-3.981h0.308l0.07,0.546h0.022
		c0.259-0.415,0.719-0.623,1.381-0.623c0.903,0,1.355,0.485,1.355,1.454V132.739 M6.947,132.739H5.666v-5.354h1.447
		c0.854,0,1.504,0.223,1.95,0.67c0.445,0.447,0.668,1.099,0.668,1.956c0,0.898-0.236,1.578-0.707,2.038
		C8.552,132.508,7.86,132.739,6.947,132.739 M6.039,127.714v4.695h0.886c1.599,0,2.399-0.795,2.399-2.384
		c0-0.767-0.195-1.343-0.584-1.73c-0.389-0.387-0.961-0.58-1.716-0.58H6.039 M147.645,130.864h-1.739v-0.3h1.739V130.864
		 M127.075,129.545l-0.209-0.084c-0.056-0.056-0.084-0.149-0.084-0.278c0-0.239,0.098-0.359,0.293-0.359c0.2,0,0.3,0.12,0.3,0.359
		c0,0.129-0.029,0.222-0.086,0.278L127.075,129.545 M110.319,129.545l-0.209-0.084c-0.056-0.056-0.084-0.149-0.084-0.278
		c0-0.239,0.098-0.359,0.293-0.359c0.2,0,0.3,0.12,0.3,0.359c0,0.129-0.029,0.222-0.086,0.278L110.319,129.545 M93.562,129.545
		l-0.209-0.084c-0.056-0.056-0.084-0.149-0.084-0.278c0-0.239,0.098-0.359,0.293-0.359c0.2,0,0.3,0.12,0.3,0.359
		c0,0.129-0.029,0.222-0.086,0.278L93.562,129.545 M60.354,129.545l-0.209-0.084c-0.056-0.056-0.084-0.149-0.084-0.278
		c0-0.239,0.098-0.359,0.293-0.359c0.2,0,0.3,0.12,0.3,0.359c0,0.129-0.029,0.222-0.086,0.278L60.354,129.545 M141.527,129.219
		h-0.238c0.071-0.234,0.145-0.529,0.223-0.884c0.078-0.355,0.138-0.672,0.179-0.95h0.428l0.044,0.073
		C141.981,128.105,141.768,128.692,141.527,129.219 M124.77,129.219h-0.238c0.071-0.234,0.145-0.529,0.223-0.884
		c0.078-0.355,0.138-0.672,0.179-0.95h0.428l0.044,0.073C125.224,128.105,125.012,128.692,124.77,129.219 M108.014,129.219h-0.238
		c0.071-0.234,0.145-0.529,0.223-0.884c0.078-0.355,0.138-0.672,0.179-0.95h0.428l0.044,0.073
		C108.468,128.105,108.256,128.692,108.014,129.219 M91.258,129.219H91.02c0.071-0.234,0.145-0.529,0.223-0.884
		c0.078-0.355,0.138-0.672,0.179-0.95h0.428l0.044,0.073C91.712,128.105,91.499,128.692,91.258,129.219 M165.621,128.007
		c-0.154,0-0.231-0.118-0.231-0.355c0-0.234,0.077-0.352,0.231-0.352l0.178,0.092c0.043,0.061,0.064,0.148,0.064,0.26
		c0,0.11-0.021,0.197-0.064,0.26L165.621,128.007 M37.578,128.007c-0.154,0-0.231-0.118-0.231-0.355
		c0-0.234,0.077-0.352,0.231-0.352l0.178,0.092c0.043,0.061,0.064,0.148,0.064,0.26c0,0.11-0.021,0.197-0.064,0.26L37.578,128.007"
		/>
	<path fill="#000000" d="M50.611,144.705h-0.238c0.071-0.237,0.146-0.536,0.227-0.899c0.081-0.363,0.139-0.676,0.176-0.939h0.428
		l0.044,0.077C51.065,143.591,50.853,144.178,50.611,144.705 M33.855,144.705h-0.238c0.071-0.237,0.146-0.536,0.227-0.899
		c0.081-0.363,0.139-0.676,0.176-0.939h0.428l0.044,0.077C34.309,143.591,34.097,144.178,33.855,144.705 M17.098,144.705H16.86
		c0.071-0.237,0.146-0.536,0.227-0.899c0.081-0.363,0.139-0.676,0.176-0.939h0.428l0.044,0.077
		C17.553,143.591,17.34,144.178,17.098,144.705 M62.015,143.812c-0.266,0-0.519-0.026-0.758-0.079
		c-0.239-0.052-0.439-0.128-0.601-0.225v-0.377c0.264,0.134,0.498,0.228,0.703,0.28s0.424,0.079,0.656,0.079
		c0.469,0,0.845-0.124,1.128-0.372c0.283-0.248,0.425-0.583,0.425-1.005c0-0.398-0.138-0.71-0.414-0.937
		c-0.276-0.227-0.651-0.341-1.124-0.341c-0.317,0-0.649,0.048-0.996,0.143l-0.22-0.143l0.212-2.45h2.578v0.352H61.37l-0.165,1.89
		c0.381-0.071,0.679-0.106,0.894-0.106c0.571,0,1.021,0.138,1.349,0.414c0.328,0.276,0.493,0.656,0.493,1.139
		c0,0.549-0.171,0.977-0.513,1.282S62.615,143.812,62.015,143.812 M28.389,143.812c-0.544,0-1.019-0.101-1.425-0.304v-0.363
		c0.205,0.107,0.435,0.192,0.69,0.253c0.255,0.061,0.495,0.092,0.72,0.092c0.54,0,0.945-0.109,1.216-0.328
		c0.271-0.218,0.407-0.527,0.407-0.925c0-0.354-0.139-0.626-0.416-0.817c-0.277-0.19-0.684-0.286-1.221-0.286h-0.579v-0.352h0.586
		c0.444,0,0.797-0.106,1.056-0.317c0.26-0.211,0.39-0.497,0.39-0.859c0-0.298-0.106-0.536-0.317-0.716
		c-0.211-0.179-0.488-0.269-0.829-0.269c-0.266,0-0.509,0.037-0.729,0.112c-0.22,0.074-0.466,0.202-0.74,0.383l-0.179-0.245
		c0.207-0.173,0.458-0.311,0.751-0.412c0.293-0.101,0.59-0.152,0.89-0.152c0.493,0,0.874,0.117,1.143,0.35
		c0.269,0.233,0.403,0.562,0.403,0.987c0,0.332-0.104,0.612-0.313,0.839c-0.209,0.227-0.489,0.372-0.84,0.436v0.022
		c0.43,0.054,0.757,0.19,0.981,0.41c0.225,0.22,0.337,0.515,0.337,0.886c0,0.501-0.17,0.888-0.511,1.163
		C29.518,143.674,29.028,143.812,28.389,143.812 M58.941,143.739H55.59v-0.322l1.425-1.487c0.4-0.415,0.681-0.732,0.842-0.952
		c0.161-0.22,0.28-0.43,0.355-0.63c0.076-0.2,0.114-0.41,0.114-0.63c0-0.32-0.105-0.58-0.315-0.78c-0.21-0.2-0.482-0.3-0.817-0.3
		c-0.447,0-0.874,0.162-1.282,0.487l-0.198-0.253c0.447-0.376,0.942-0.564,1.487-0.564c0.466,0,0.833,0.124,1.1,0.374
		c0.267,0.249,0.401,0.592,0.401,1.029c0,0.354-0.09,0.696-0.269,1.027c-0.179,0.331-0.507,0.739-0.983,1.225l-1.373,1.41v0.015
		h2.864V143.739 M46.632,143.739h-0.344v-1.366h-2.754v-0.245l2.655-3.772h0.443v3.702h0.923v0.315h-0.923V143.739 M46.31,138.67
		c-0.049,0.09-0.199,0.32-0.45,0.689l-1.89,2.699h2.318v-1.531c0-0.737,0.017-1.356,0.051-1.857H46.31 M42.185,143.739h-3.351
		v-0.322l1.425-1.487c0.4-0.415,0.681-0.732,0.842-0.952c0.161-0.22,0.28-0.43,0.355-0.63c0.076-0.2,0.113-0.41,0.113-0.63
		c0-0.32-0.105-0.58-0.315-0.78c-0.21-0.2-0.482-0.3-0.817-0.3c-0.447,0-0.874,0.162-1.282,0.487l-0.198-0.253
		c0.447-0.376,0.942-0.564,1.487-0.564c0.466,0,0.833,0.124,1.1,0.374c0.267,0.249,0.401,0.592,0.401,1.029
		c0,0.354-0.09,0.696-0.269,1.027c-0.179,0.331-0.507,0.739-0.983,1.225l-1.373,1.41v0.015h2.864V143.739 M25.428,143.739h-3.351
		v-0.322l1.425-1.487c0.4-0.415,0.681-0.732,0.842-0.952c0.161-0.22,0.28-0.43,0.355-0.63c0.076-0.2,0.114-0.41,0.114-0.63
		c0-0.32-0.105-0.58-0.315-0.78c-0.21-0.2-0.482-0.3-0.817-0.3c-0.447,0-0.874,0.162-1.282,0.487l-0.198-0.253
		c0.447-0.376,0.942-0.564,1.487-0.564c0.466,0,0.833,0.124,1.1,0.374c0.267,0.249,0.401,0.592,0.401,1.029
		c0,0.354-0.09,0.696-0.269,1.027c-0.179,0.331-0.507,0.739-0.983,1.225l-1.373,1.41v0.015h2.864V143.739 M12.361,143.739h-0.359
		v-3.9c0-0.354,0.015-0.721,0.044-1.102l-0.113,0.106c-0.039,0.034-0.416,0.331-1.132,0.89l-0.209-0.26l1.454-1.088h0.315V143.739
		 M8.672,143.739H5.321v-0.322l1.425-1.487c0.4-0.415,0.681-0.732,0.842-0.952c0.161-0.22,0.28-0.43,0.355-0.63
		c0.076-0.2,0.114-0.41,0.114-0.63c0-0.32-0.105-0.58-0.315-0.78c-0.21-0.2-0.482-0.3-0.817-0.3c-0.447,0-0.874,0.162-1.282,0.487
		l-0.198-0.253c0.447-0.376,0.942-0.564,1.487-0.564c0.466,0,0.833,0.124,1.1,0.374c0.267,0.249,0.401,0.592,0.401,1.029
		c0,0.354-0.09,0.696-0.269,1.027c-0.179,0.331-0.507,0.739-0.983,1.225l-1.373,1.41v0.015h2.864V143.739 M50.981,140.545
		l-0.209-0.084c-0.056-0.056-0.084-0.149-0.084-0.278c0-0.239,0.098-0.359,0.293-0.359c0.2,0,0.3,0.12,0.3,0.359
		c0,0.129-0.029,0.222-0.086,0.278L50.981,140.545 M34.225,140.545l-0.209-0.084c-0.056-0.056-0.084-0.149-0.084-0.278
		c0-0.239,0.098-0.359,0.293-0.359c0.2,0,0.3,0.12,0.3,0.359c0,0.129-0.029,0.222-0.086,0.278L34.225,140.545 M17.468,140.545
		l-0.209-0.084c-0.056-0.056-0.084-0.149-0.084-0.278c0-0.239,0.098-0.359,0.293-0.359c0.2,0,0.3,0.12,0.3,0.359
		c0,0.129-0.029,0.222-0.086,0.278L17.468,140.545 M65.433,140.219h-0.238c0.071-0.234,0.145-0.529,0.223-0.884
		c0.078-0.355,0.138-0.672,0.179-0.95h0.428l0.044,0.073C65.887,139.105,65.674,139.692,65.433,140.219 M48.676,140.219h-0.238
		c0.071-0.234,0.145-0.529,0.223-0.884c0.078-0.355,0.138-0.672,0.179-0.95h0.428l0.044,0.073
		C49.131,139.105,48.918,139.692,48.676,140.219 M31.92,140.219h-0.238c0.071-0.234,0.145-0.529,0.223-0.884
		c0.078-0.355,0.138-0.672,0.179-0.95h0.428l0.044,0.073C32.374,139.105,32.162,139.692,31.92,140.219 M15.164,140.219h-0.238
		c0.071-0.234,0.145-0.529,0.223-0.884c0.078-0.355,0.138-0.672,0.179-0.95h0.428l0.044,0.073
		C15.618,139.105,15.405,139.692,15.164,140.219"/>
</g>
</svg>
